SplineFontDB: 3.0
FontName: eiadr10
FullName: eiad
FamilyName: Eiad
Weight: Regular
Copyright: %% This file is public domain.\n%% Originally written 1998, Ivan A Derzhanski.\n%% \n% eiadr10.mf: Computer Modern Irish 10 point\n\nGenerated from MetaFont bitmap by mftrace 1.2.14, http://www.xs4all.nl/~hanwen/mftrace/ 
Version: 001.001
ItalicAngle: 0
UnderlinePosition: -102.4
UnderlineWidth: 51.2
Ascent: 819
Descent: 205
LayerCount: 2
Layer: 0 0 "Back"  1
Layer: 1 0 "Fore"  0
NeedsXUIDChange: 1
UniqueID: 4168708
OS2Version: 0
OS2_WeightWidthSlopeOnly: 0
OS2_UseTypoMetrics: 0
CreationTime: 1248265364
ModificationTime: 1260507613
OS2TypoAscent: 0
OS2TypoAOffset: 1
OS2TypoDescent: 0
OS2TypoDOffset: 1
OS2TypoLinegap: 0
OS2WinAscent: 0
OS2WinAOffset: 1
OS2WinDescent: 0
OS2WinDOffset: 1
HheadAscent: 0
HheadAOffset: 1
HheadDescent: 0
HheadDOffset: 1
OS2Vendor: 'PfEd'
Lookup: 258 0 0 "1"  {"1-1"  } []
DEI: 91125
LangName: 1033 
Encoding: Custom
UnicodeInterp: none
NameList: Adobe Glyph List
DisplaySize: -24
AntiAlias: 1
FitToEm: 1
ExtremaBound: 10
WinInfo: 0 27 11
BeginPrivate: 3
lenIV 1 4
BlueValues 2 []
ForceBold 5 false
EndPrivate
TeXData: 1 0 0 346030 173015 115343 463471 1073742 115343 783286 444596 497025 792723 393216 433062 380633 303038 157286 324010 404750 52429 2506097 1059062 262144
BeginChars: 260 125

StartChar: uni1E56
Encoding: 0 7766 1
Width: 0
Flags: HW
HStem: -199 22G<167 228> -13 24<439 524> 31 146<325 385> 494 33<35 109> 580 25<364 481> 696 110<383 451>
VStem: 140 89<-190 453 471 486> 358 27<113 177> 372 109<708 794> 641 106<170 404>
LayerCount: 2
Fore
SplineSet
427 696 m 0xfec0
 400 696 372 717 372 752 c 0
 372 782 397 806 427 806 c 1
 451 800 l 1
 479 787 480 764 480 755 c 0
 480 753 480 752 480 752 c 2
 480 711 447 696 427 696 c 0xfec0
140 440 m 0
 140 443 140 446 140 449 c 0
 140 476 136 494 50 494 c 2
 35 494 l 1
 35 526 l 1
 45 526 l 2
 95 526 133 549 140 580 c 0
 145 595 161 595 164 595 c 0
 219 595 226 534 229 521 c 1
 229 471 l 1
 238 483 l 2
 300 598 404 604 415 604 c 2
 416 604 418 604 420 604 c 0
 423 604 429 604 435 604 c 0
 598 604 748 475 748 292 c 0
 748 118 620 -13 484 -13 c 0
 409 -13 415 31 342 31 c 0
 307 31 299 20 288 20 c 0
 281 20 275 35 275 42 c 0
 275 44 275 45 276 46 c 1
 277 49 281 51 289 54 c 1
 352 89 358 148 358 162 c 0xff40
 358 174 361 177 372 177 c 0xfec0
 383 177 385 171 385 167 c 0xff40
 385 97 403 10 481 10 c 0
 561 10 641 123 641 292 c 0
 641 469 535 580 425 580 c 0
 336 580 253 505 233 395 c 0
 232 389 232 379 232 365 c 0
 232 326 229 360 229 310 c 2
 229 75 l 2
 229 -68 232 -188 232 -190 c 1
 230 -195 231 -193 225 -199 c 1
 187 -199 l 2
 146 -199 143 -199 140 -194 c 0
 140 -193 140 -185 140 -166 c 0
 140 -127 140 -41 140 133 c 0
 140 330 140 408 140 440 c 0
EndSplineSet
Validated: 1
EndChar

StartChar: Aacute
Encoding: 3 193 2
Width: 0
Flags: HW
HStem: -12 75<361 465> 608 20G<488 498>
LayerCount: 2
Fore
SplineSet
476 627 m 1
 480 628 485 629 493 629 c 0
 504 629 509 627 513 622 c 0
 517 617 768 11 768 7 c 0
 768 2 764 0 754 0 c 0
 737 0 733 2 721 24 c 0
 713 38 636 175 633 175 c 0
 619 175 514 7 414 -12 c 0
 412 -12 410 -12 407 -12 c 0
 401 -12 394 -12 387 -12 c 0
 381 -12 375 -12 370 -12 c 0
 350 -12 312 1 271 42 c 0
 214 101 182 187 177 187 c 0
 175 187 78 58 70 50 c 0
 65 46 57 44 48 44 c 0
 39 44 36 46 36 51 c 0
 36 58 459 609 467 621 c 1
 470 623 474 626 476 627 c 1
579 808 m 0
 607 808 617 783 617 769 c 0
 617 757 610 744 595 738 c 0
 595 738 423 655 414 651 c 1
 408 663 l 1
 400 674 l 1
 401 675 558 800 563 803 c 0
 573 808 573 808 579 808 c 0
602 227 m 1
 470 451 448 521 441 536 c 1
 439 536 327 386 326 385 c 2
 232 263 l 1
 242 246 l 5
 311 114 360 62 432 62 c 6
 433 62 l 2
 448 62 491 63 551 128 c 1
 613 200 l 1
 616 204 l 1
 602 227 l 1
EndSplineSet
Validated: 1
EndChar

StartChar: Eacute
Encoding: 4 201 3
Width: 0
Flags: HW
HStem: -10 26<288 430> 300 33<163 507 594 653> 589 23<283 391> 625 22G<256 260>
VStem: 56 106<181 300 300 300 333 421> 507 89<333 461> 569 28<124 153>
LayerCount: 2
Fore
SplineSet
507 349 m 2
 507 466 455 571 355 589 c 0
 353 589 351 589 349 589 c 0
 346 589 342 589 338 589 c 0
 284 589 245 560 220 528 c 0
 184 484 164 428 164 341 c 2
 163 333 l 1
 507 333 l 1
 507 349 l 2
421 808 m 0xf8
 450 808 460 785 460 770 c 0
 460 760 456 753 451 748 c 0
 447 744 261 625 258 625 c 1
 254 627 257 628 242 645 c 1
 404 803 l 1
 414 808 415 808 421 808 c 0xf8
337 -10 m 0
 159 -10 56 156 56 292 c 2
 56 300 l 2
 56 525 241 611 315 611 c 0
 319 611 329 612 338 612 c 0
 346 612 356 611 361 611 c 0
 398 611 460 586 480 573 c 0
 545 533 594 459 594 362 c 0
 594 344 595 346 595 341 c 0
 595 335 597 333 612 333 c 2
 653 333 l 1
 653 300 l 1
 163 300 l 1
 163 288 l 2
 163 166 193 84 265 40 c 0
 290 24 317 15 350 15 c 0
 472 15 552 94 569 153 c 0
 572 162 575 164 584 164 c 2
 584 164 584 164 585 164 c 0
 588 164 597 164 597 155 c 0
 597 144 546 -10 337 -10 c 0
EndSplineSet
Validated: 1
EndChar

StartChar: Iacute
Encoding: 5 205 4
Width: 0
Flags: HW
HStem: 0 22G<160 230> 494 33<34 105> 595 22G<99 137 158 189>
VStem: 140 90<6 454>
LayerCount: 2
Fore
SplineSet
272 808 m 0
 285 808 308 797 308 770 c 0
 308 750 304 751 203 676 c 2
 109 607 l 1
 99 617 l 2
 95 622 91 627 91 628 c 1
 92 630 249 799 252 802 c 1
 257 804 262 808 272 808 c 0
185 0 m 2
 181 0 178 0 175 -0 c 0
 143 0 140 1 140 13 c 0
 140 16 140 20 140 25 c 0
 140 53 140 112 140 232 c 0
 140 285 141 326 141 359 c 0
 141 479 136 483 101 489 c 0
 90 491 67 494 49 494 c 2
 34 494 l 1
 34 526 l 1
 45 526 l 2
 93 526 129 551 136 582 c 0
 140 595 151 595 159 595 c 0
 160 595 161 595 162 595 c 0
 216 595 229 536 229 524 c 0
 229 518 230 441 230 261 c 2
 230 6 l 1
 223 0 l 1
 185 0 l 2
EndSplineSet
Validated: 1
EndChar

StartChar: Oacute
Encoding: 6 211 5
Width: 0
VWidth: 1000
Flags: HW
HStem: -21 26<300.97 420.479> 577 26<302.698 423.842> 613 21G<285.5 318.5>
VStem: 56 103<173.457 406.102> 562 104<180.828 406.828>
LayerCount: 2
Fore
SplineSet
56 328 m 2
 56 410 163 602 334 602 c 0
 339 602 350 603 359 603 c 0
 362 603 l 0
 561 603 664 413 664 328 c 0
 664 318 666 303 666 288 c 0
 666 132 545 -21 361 -21 c 0
 140 -21 56 182 56 260 c 0
 56 268 56 278 56 288 c 2
 56 328 l 2
446 789 m 0
 463 789 482 775 482 752 c 0
 482 731 475 729 377 669 c 2
 286 613 l 1
 285 613 270 632 270 633 c 1
 418 774 l 2
 428 784 435 789 446 789 c 0
562 302 m 0
 562 541 409 577 372 577 c 2
 360 577 l 2
 280 577 159 514 159 302 c 0
 159 72 280 5 361 5 c 0
 441 5 562 71 562 302 c 0
EndSplineSet
Validated: 1
EndChar

StartChar: Uacute
Encoding: 7 218 6
Width: 0
Flags: HW
HStem: -11 24<288 430> 505 33<5 75 459 529> 586 20G<130 156 586 616>
VStem: 111 92<103 473> 567 89<-5 145 148 462>
LayerCount: 2
Fore
SplineSet
454 808 m 0
 476 808 491 791 494 775 c 1
 494 756 482 746 442 706 c 2
 354 615 l 1
 295 554 l 1
 285 562 l 2
 279 567 274 571 274 571 c 1
 275 572 309 623 351 684 c 0
 437 807 436 808 454 808 c 0
656 -5 m 1
 649 -11 l 1
 574 -11 l 1
 567 -5 l 1
 567 70 l 1
 567 145 l 1
 562 133 l 2
 537 73 481 -11 359 -11 c 0
 223 -11 136 40 116 158 c 0
 112 183 111 181 111 328 c 0
 111 366 111 395 111 418 c 0
 111 488 107 495 74 501 c 0
 63 503 39 505 20 505 c 2
 5 505 l 1
 5 538 l 1
 15 538 l 1
 65 538 104 564 111 595 c 0
 114 603 118 605 123 605 c 0
 127 605 131 604 134 604 c 0
 178 604 197 570 202 537 c 0
 203 531 203 474 203 356 c 0
 203 310 202 268 202 230 c 0
 202 92 216 12 357 12 c 0
 359 12 362 12 365 12 c 0
 486 12 548 111 562 215 c 0
 563 222 563 285 563 346 c 0
 563 373 563 395 563 413 c 0
 563 475 562 484 551 493 c 0
 540 501 514 505 474 505 c 2
 459 505 l 1
 459 538 l 1
 469 538 l 1
 519 538 555 564 562 595 c 0
 565 604 572 605 578 605 c 0
 583 605 587 604 588 604 c 0
 645 604 655 547 655 536 c 0
 655 530 656 448 656 261 c 2
 656 -5 l 1
EndSplineSet
Validated: 1
EndChar

StartChar: arrowup
Encoding: 11 8593 7
Width: 0
Flags: HW
HStem: 367 41<29 36 476 483> 583 20G<252 260>
VStem: 236 41<-80 490>
LayerCount: 2
Fore
SplineSet
29 408 m 1
 139 428 219 503 256 604 c 1
 293 504 374 428 483 408 c 1
 483 387 l 2
 483 370 483 367 481 367 c 0
 480 367 371 382 286 480 c 2
 276 490 l 1
 276 207 l 2
 276 -66 276 -77 274 -80 c 0
 271 -87 264 -92 256 -92 c 0
 250 -92 239 -87 236 -80 c 0
 235 -79 235 -77 235 -65 c 0
 235 -41 236 25 236 207 c 2
 236 490 l 1
 226 480 l 2
 142 383 34 367 31 367 c 0
 29 367 29 370 29 387 c 2
 29 408 l 1
EndSplineSet
Validated: 1
EndChar

StartChar: arrowdown
Encoding: 12 8595 8
Width: 512
Flags: HW
LayerCount: 2
Fore
SplineSet
248 602 m 0
 251 603 253 604 256 604 c 0
 264 604 271 600 274 593 c 0
 276 589 276 578 276 305 c 2
 276 22 l 1
 286 32 l 2
 327 79 381 116 441 135 c 0
 454 139 478 145 481 145 c 0
 483 145 483 142 483 125 c 2
 483 104 l 1
 476 103 l 2
 473 102 464 100 458 98 c 0
 386 79 325 31 285 -32 c 0
 276 -46 264 -69 260 -82 c 0
 258 -87 256 -91 256 -91 c 1
 256 -91 254 -87 252 -82 c 0
 248 -69 236 -46 227 -32 c 0
 187 31 126 79 54 98 c 0
 48 100 39 102 36 103 c 2
 29 104 l 1
 29 125 l 2
 29 142 29 145 31 145 c 0
 34 145 58 139 71 135 c 0
 131 116 185 79 226 32 c 2
 236 22 l 1
 236 305 l 2
 236 558 236 588 238 592 c 0
 240 597 243 600 248 602 c 0
EndSplineSet
Validated: 1
EndChar

StartChar: uni030D
Encoding: 13 781 9
Width: 284
Flags: HW
LayerCount: 2
Fore
SplineSet
129 623 m 0
 133 624 138 624 143 624 c 0
 161 624 178 615 185 600 c 0
 188 594 190 586 190 579 c 0
 190 576 157 372 154 359 c 1
 154 356 l 1
 142 356 l 1
 130 356 l 1
 130 359 l 1
 127 372 93 576 93 579 c 0
 93 601 107 618 129 623 c 0
EndSplineSet
Validated: 1
EndChar

StartChar: exclamdown
Encoding: 14 161 10
Width: 0
Flags: HW
HStem: 296 110<99 185>
VStem: 87 110<-211 27 307 394>
LayerCount: 2
Fore
SplineSet
87 351 m 0
 87 381 112 406 143 406 c 0
 167 406 197 385 197 351 c 0
 197 318 169 296 143 296 c 0
 113 296 87 318 87 351 c 0
142 -221 m 0
 110 -221 87 -198 87 -172 c 0
 87 -164 128 201 129 206 c 0
 130 208 130 213 141 213 c 0
 152 213 154 208 155 206 c 0
 156 201 197 -164 197 -172 c 0
 197 -199 171 -221 142 -221 c 0
EndSplineSet
Validated: 1
EndChar

StartChar: questiondown
Encoding: 15 191 11
Width: 0
Flags: HW
HStem: -221 25<191 338> -131 95<367 414> 189 24<213 286> 296 110<212 299>
VStem: 86 42<-148 -57> 201 110<307 394> 297 44<119 185> 414 41<-147 -69>
LayerCount: 2
Fore
SplineSet
201 351 m 0xfd
 201 381 226 406 257 406 c 0
 281 406 310 385 310 351 c 0
 310 318 283 296 257 296 c 0
 227 296 201 318 201 351 c 0xfd
183 136 m 0
 183 123 177 123 171 123 c 0
 160 123 156 129 156 137 c 0
 156 152 168 173 175 181 c 0
 188 195 217 213 251 213 c 0
 320 213 341 161 341 130 c 0
 341 80 308 63 237 11 c 0
 162 -42 128 -59 128 -105 c 0
 128 -123 147 -199 258 -199 c 0
 374 -199 414 -133 414 -131 c 0
 414 -130 411 -131 408 -131 c 0
 380 -131 359 -111 359 -84 c 0
 359 -53 384 -36 408 -36 c 0
 434 -36 455 -54 455 -84 c 0
 455 -167 366 -221 256 -221 c 0
 175 -221 105 -178 86 -110 c 0
 85 -107 85 -104 85 -102 c 0
 85 -97 86 -93 86 -82 c 0
 86 -29 116 -5 126 8 c 1
 126 8 288 127 289 129 c 0
 295 136 297 142 297 152 c 0xfb
 297 183 270 189 254 189 c 0
 227 189 187 173 183 136 c 0
EndSplineSet
Validated: 1
EndChar

StartChar: grave
Encoding: 18 96 12
Width: 512
Flags: HW
LayerCount: 2
Fore
SplineSet
137 607 m 0
 138 607 140 608 142 608 c 0
 147 608 153 607 157 605 c 0
 162 603 162 602 234 552 c 2
 297 508 l 1
 291 496 l 2
 288 490 285 484 284 484 c 0
 283 484 130 538 126 540 c 0
 121 543 115 549 112 554 c 0
 110 558 110 560 110 569 c 0
 110 578 110 580 113 586 c 0
 118 597 127 605 137 607 c 0
EndSplineSet
Validated: 1
EndChar

StartChar: acute
Encoding: 19 180 13
Width: 512
Flags: HW
LayerCount: 2
Fore
SplineSet
360 607 m 1
 362 607 365 608 367 608 c 0
 380 608 392 600 398 586 c 0
 401 580 402 578 402 569 c 0
 402 560 401 558 399 554 c 0
 396 549 390 543 385 540 c 0
 381 538 228 484 227 484 c 0
 226 484 223 490 220 496 c 2
 214 508 l 1
 281 555 l 2
 318 581 349 603 351 604 c 0
 354 605 358 606 360 607 c 1
EndSplineSet
Validated: 1
EndChar

StartChar: uni030C
Encoding: 20 780 14
Width: 0
Flags: HW
HStem: 489 54<227 304>
VStem: 124 263
LayerCount: 2
Fore
SplineSet
128 564 m 0
 131 573 133 575 134 575 c 0
 135 574 l 1
 136 574 164 567 196 559 c 2
 255 544 l 2
 256 544 284 551 317 560 c 2
 378 575 l 1
 379 574 387 552 387 551 c 0
 387 550 258 489 256 489 c 0
 253 489 124 550 124 551 c 0
 124 552 126 557 128 564 c 0
EndSplineSet
Validated: 1
EndChar

StartChar: uni0306
Encoding: 21 774 15
Width: 512
Flags: HW
LayerCount: 2
Fore
SplineSet
101 597 m 2
 101 604 l 1
 113 604 l 1
 125 604 l 1
 125 598 l 1
 127 585 133 572 143 564 c 0
 151 558 167 550 179 547 c 0
 199 541 227 538 255 538 c 0
 283 538 312 541 332 547 c 0
 344 550 360 558 368 564 c 0
 378 572 384 585 386 598 c 1
 386 604 l 1
 398 604 l 1
 410 604 l 1
 410 597 l 2
 408 575 398 557 382 541 c 0
 354 513 306 498 256 498 c 0
 232 498 207 501 184 509 c 0
 135 525 105 557 101 597 c 2
EndSplineSet
Validated: 1
EndChar

StartChar: bar
Encoding: 22 772 16
Width: 512
Flags: HW
LayerCount: 2
Fore
SplineSet
71 545 m 1
 71 561 l 1
 256 561 l 1
 440 561 l 1
 440 545 l 1
 440 528 l 1
 256 528 l 1
 71 528 l 1
 71 545 l 1
EndSplineSet
Validated: 1
EndChar

StartChar: uni030A
Encoding: 23 778 17
Width: 768
Flags: HW
LayerCount: 2
Fore
SplineSet
362 626 m 0
 365 626 370 626 376 626 c 0
 389 626 407 626 415 625 c 0
 444 619 469 604 478 588 c 0
 481 582 482 580 482 572 c 0
 482 564 481 563 478 557 c 0
 469 541 444 526 414 520 c 0
 407 519 395 519 383 519 c 0
 371 519 360 519 353 520 c 0
 323 526 298 541 289 557 c 0
 286 563 286 564 286 572 c 0
 286 580 286 582 289 588 c 0
 299 606 327 622 362 626 c 0
425 601 m 0
 418 602 390 603 370 603 c 0
 362 603 355 602 351 602 c 0
 329 599 318 593 313 582 c 0
 312 579 312 576 312 573 c 0
 312 563 318 554 329 549 c 0
 340 543 348 543 384 543 c 0
 411 543 418 543 424 544 c 0
 434 546 442 550 447 554 c 1
 451 559 456 566 456 572 c 0
 456 578 451 586 447 591 c 1
 442 595 434 599 425 601 c 0
EndSplineSet
Validated: 1
EndChar

StartChar: uni0327
Encoding: 24 807 18
Width: 454
Flags: HW
LayerCount: 2
Fore
SplineSet
219 -47 m 1
 219 -23 l 1
 255 -23 l 1
 291 -23 l 1
 291 -39 l 1
 291 -55 l 1
 303 -57 l 2
 340 -66 365 -84 373 -108 c 0
 375 -113 376 -122 376 -130 c 0
 376 -134 376 -138 375 -141 c 0
 373 -151 367 -162 359 -169 c 0
 347 -181 331 -190 306 -196 c 0
 277 -204 244 -207 195 -208 c 2
 147 -208 l 1
 134 -209 l 1
 134 -198 l 1
 134 -185 l 1
 138 -185 l 1
 140 -184 153 -184 167 -184 c 0
 246 -184 288 -173 300 -146 c 0
 303 -140 304 -139 304 -128 c 0
 304 -118 303 -117 300 -110 c 0
 291 -92 268 -78 237 -74 c 0
 232 -73 226 -73 223 -73 c 2
 219 -73 l 1
 219 -47 l 1
EndSplineSet
Validated: 1
EndChar

StartChar: uni204A
Encoding: 25 8266 19
Width: 0
Flags: HW
HStem: 351 72<50 353>
VStem: 325 31<-203 -98>
LayerCount: 2
Fore
SplineSet
56 440 m 1
 56 441 57 441 58 441 c 1
 65 438 111 431 138 428 c 0
 178 423 195 423 248 423 c 0
 301 423 317 423 358 428 c 0
 384 431 430 438 437 441 c 1
 439 441 439 440 439 430 c 0
 439 420 432 366 398 109 c 0
 374 -61 355 -203 355 -203 c 1
 353 -208 349 -210 341 -210 c 0
 329 -210 325 -205 325 -199 c 0
 325 -191 329 -148 362 94 c 2
 402 388 l 1
 388 383 l 2
 319 363 246 351 174 351 c 0
 140 351 107 353 74 358 c 0
 50 361 30 366 30 367 c 0
 30 368 36 384 43 403 c 0
 49 422 55 439 56 440 c 1
EndSplineSet
Validated: 1
EndChar

StartChar: uni0307
Encoding: 26 775 20
Width: 284
Flags: HW
LayerCount: 2
Fore
SplineSet
129 683 m 0
 134 684 138 685 143 685 c 0
 157 685 169 680 180 669 c 0
 191 659 197 645 197 631 c 0
 197 616 191 602 180 592 c 0
 169 581 156 576 142 576 c 0
 128 576 114 581 103 592 c 0
 92 602 87 616 87 631 c 0
 87 640 88 645 93 654 c 0
 99 667 114 680 129 683 c 0
EndSplineSet
Validated: 1
EndChar

StartChar: aacute
Encoding: 27 225 21
Width: 0
Flags: HW
HStem: -12 61<231 321>
LayerCount: 2
Fore
SplineSet
419 714 m 0
 434 714 455 699 455 677 c 0
 455 671 455 662 445 652 c 0
 440 647 272 533 254 521 c 1
 246 531 l 2
 242 536 238 541 238 542 c 2
 393 702 l 2
 399 708 403 714 419 714 c 0
422 125 m 1
 380 83 336 -12 259 -12 c 0
 257 -12 256 -12 254 -12 c 0
 230 -12 182 -8 131 112 c 0
 127 119 125 126 124 126 c 0
 123 126 64 35 62 33 c 0
 59 29 53 26 48 25 c 0
 47 25 46 24 45 24 c 0
 39 24 35 28 35 32 c 0
 35 36 309 466 314 470 c 1
 322 474 l 2
 324 474 328 475 333 475 c 0
 340 474 343 473 347 468 c 0
 351 464 513 9 513 8 c 0
 513 0 504 -2 500 -2 c 0
 487 -2 487 2 470 32 c 1
 465 44 450 70 440 89 c 2
 422 125 l 1
396 171 m 1
 342 273 313 337 298 381 c 1
 293 392 l 1
 163 187 l 1
 169 171 l 1
 208 84 239 49 285 49 c 0
 347 49 377 113 403 139 c 1
 410 147 l 1
 396 171 l 1
EndSplineSet
Validated: 1
EndChar

StartChar: eacute
Encoding: 28 233 22
Width: 0
Flags: HW
HStem: -11 27<194 308> 237 23<116 357 426 482> 434 25<190 287>
VStem: 29 86<121 236 259 271 306 329> 357 69<259 361>
LayerCount: 2
Fore
SplineSet
215 458 m 0
 220 459 227 459 234 459 c 0
 249 459 268 456 283 453 c 0
 318 446 347 433 371 409 c 0
 404 375 426 329 426 269 c 1
 426 259 l 1
 455 259 l 1
 482 259 l 1
 482 248 l 1
 482 237 l 1
 299 237 l 1
 115 237 l 1
 115 220 l 2
 115 131 134 74 175 41 c 0
 197 24 219 15 245 15 c 0
 256 15 268 16 280 19 c 0
 336 31 382 71 398 120 c 0
 401 131 405 134 413 134 c 0
 418 134 419 134 422 131 c 0
 425 129 426 127 426 124 c 0
 426 121 425 117 422 110 c 0
 407 67 375 32 331 10 c 0
 302 -3 266 -11 234 -11 c 0
 230 -11 229 -11 225 -11 c 0
 216 -11 l 0
 172 -6 134 13 101 45 c 0
 88 58 80 68 70 84 c 0
 50 116 35 149 29 191 c 0
 29 193 28 197 28 201 c 0
 28 208 29 216 29 226 c 0
 29 236 28 246 28 253 c 0
 28 257 29 260 29 262 c 0
 41 342 89 408 156 440 c 0
 174 449 193 455 215 458 c 0
261 434 m 0
 259 434 254 435 250 435 c 0
 244 435 245 436 238 436 c 0
 235 436 224 434 222 434 c 0
 183 428 147 393 131 346 c 0
 126 334 123 319 121 306 c 0
 119 295 116 270 116 264 c 2
 116 259 l 1
 237 259 l 1
 357 259 l 1
 357 273 l 1
 357 336 335 385 304 411 c 0
 292 421 277 430 261 434 c 0
313 713 m 0
 315 714 319 714 322 714 c 0
 328 714 334 713 339 711 c 0
 346 707 353 699 357 691 c 0
 358 689 358 688 358 687 c 0
 358 684 357 682 357 677 c 0
 357 672 358 669 358 667 c 0
 358 665 358 664 357 663 c 2
 350 652 l 1
 253 585 l 2
 179 535 161 522 158 522 c 1
 158 523 154 527 150 532 c 2
 142 541 l 1
 145 544 l 1
 163 564 303 707 306 709 c 0
 308 710 311 712 313 713 c 0
EndSplineSet
Validated: 1
EndChar

StartChar: iacute
Encoding: 29 237 23
Width: 278
Flags: HW
HStem: 0 22G<138 178> 351 33<35 86> 432 20G<121 142>
VStem: 114 69<6 160 160 327>
LayerCount: 2
Fore
SplineSet
221 711 m 0
 227 714 229 714 237 714 c 1
 244 713 247 713 251 711 c 0
 258 707 265 699 268 691 c 0
 271 685 272 683 272 677 c 0
 272 667 269 659 262 652 c 1
 258 649 75 522 73 521 c 1
 72 521 67 526 62 531 c 2
 54 542 l 1
 122 611 l 2
 218 710 214 708 221 711 c 0
121 449 m 1
 126 453 l 1
 136 453 l 2
 148 452 155 449 162 442 c 0
 171 433 176 420 180 400 c 0
 181 390 182 379 182 198 c 2
 182 6 l 1
 178 3 l 1
 175 0 l 1
 148 0 l 2
 128 0 122 0 120 2 c 1
 114 5 114 -6 114 160 c 0
 114 242 114 312 113 316 c 0
 109 343 97 349 54 351 c 2
 35 351 l 1
 35 368 l 1
 35 384 l 1
 42 384 l 2
 77 387 105 408 112 437 c 0
 113 441 114 444 115 444 c 1
 121 449 l 1
EndSplineSet
Validated: 1
EndChar

StartChar: oacute
Encoding: 30 243 24
Width: 0
Flags: HW
HStem: -10 26<201 310> 435 24<203 309>
VStem: 29 86<121 320> 396 86<122 322>
LayerCount: 2
Fore
SplineSet
274 435 m 0
 272 435 270 435 268 435 c 0
 265 435 261 435 257 435 c 0
 231 435 206 428 184 414 c 0
 144 389 123 348 117 288 c 0
 116 279 115 252 115 228 c 0
 115 211 116 194 116 185 c 0
 116 120 134 81 166 51 c 0
 191 26 223 15 256 15 c 0
 288 15 319 26 345 51 c 0
 377 81 396 120 396 185 c 0
 396 194 396 211 396 228 c 0
 396 244 397 261 397 273 c 0
 397 279 396 285 396 288 c 0
 393 317 384 342 374 361 c 0
 355 401 318 428 274 435 c 0
230 457 m 0
 238 458 248 459 256 459 c 0
 312 459 369 435 411 393 c 0
 417 387 426 378 429 373 c 0
 464 329 482 274 482 220 c 0
 482 204 480 188 477 172 c 0
 461 86 395 18 309 -4 c 0
 290 -9 279 -10 256 -10 c 0
 232 -10 221 -9 202 -4 c 0
 100 22 29 113 29 219 c 0
 29 265 43 315 69 353 c 0
 107 411 163 449 230 457 c 0
333 712 m 0
 335 713 340 714 344 714 c 0
 350 714 352 714 358 710 c 0
 366 706 373 699 377 691 c 0
 379 686 380 684 380 677 c 0
 380 666 378 660 371 653 c 0
 366 648 180 522 178 522 c 1
 178 522 174 527 170 531 c 2
 162 541 l 1
 168 548 l 1
 325 709 l 2
 327 710 331 712 333 712 c 0
EndSplineSet
Validated: 1
EndChar

StartChar: uacute
Encoding: 31 250 25
Width: 0
Flags: HW
HStem: -10 23<223 313> 351 33<33 84 344 396> 432 20G<120 140 431 451>
VStem: 113 72<44 211 211 326> 426 70<-5 114 114 318>
LayerCount: 2
Fore
SplineSet
120 449 m 1
 125 453 l 1
 135 453 l 2
 144 452 147 452 152 450 c 0
 168 442 183 420 183 388 c 0
 183 381 184 334 184 239 c 0
 184 96 184 84 188 68 c 0
 195 38 216 20 254 14 c 0
 262 13 274 12 285 12 c 0
 297 12 307 13 313 14 c 0
 331 19 346 28 361 41 c 0
 396 76 423 135 423 215 c 0
 423 225 426 247 426 270 c 0
 426 292 424 311 423 316 c 0
 419 343 407 351 362 351 c 1
 344 351 l 1
 344 368 l 1
 344 384 l 1
 352 384 l 1
 386 384 415 408 422 437 c 0
 423 441 425 445 426 445 c 1
 426 445 428 447 431 449 c 2
 436 453 l 1
 446 453 l 2
 455 452 459 452 463 450 c 0
 480 442 495 419 495 387 c 0
 495 379 496 322 496 185 c 2
 496 -5 l 1
 492 -10 l 1
 488 -10 l 1
 461 -10 l 1
 434 -10 l 1
 431 -10 l 1
 426 -5 l 1
 426 55 l 2
 426 88 426 114 426 114 c 1
 426 110 414 82 411 75 c 0
 388 29 355 -1 313 -10 c 0
 311 -10 309 -11 306 -11 c 0
 301 -11 294 -10 280 -10 c 0
 253 -10 237 -9 221 -6 c 0
 188 1 165 12 147 30 c 0
 132 44 125 57 119 80 c 0
 113 99 113 105 113 211 c 0
 113 247 113 280 113 299 c 0
 113 309 113 315 113 316 c 0
 109 343 96 351 51 351 c 1
 33 351 l 1
 33 368 l 1
 33 384 l 1
 41 384 l 1
 75 384 106 408 113 437 c 0
 114 441 112 444 113 444 c 1
 120 449 l 1
365 712 m 0
 370 714 372 714 379 714 c 0
 386 713 388 713 393 710 c 0
 400 706 408 699 411 691 c 0
 414 685 415 683 415 677 c 0
 415 667 411 659 404 652 c 0
 401 649 217 523 214 521 c 0
 213 521 199 538 198 541 c 0
 198 543 224 571 275 623 c 2
 356 707 l 2
 358 708 362 710 365 712 c 0
EndSplineSet
Validated: 1
EndChar

StartChar: uni1E57
Encoding: 32 7767 26
Width: 0
Flags: HW
HStem: -199 22G<129 175> -10 24<334 414> 351 33<28 79> 426 26<271 376> 577 109<283 370>
VStem: 110 70<-193 262> 260 27<77 117 117 125> 476 86<110 319>
LayerCount: 2
Fore
SplineSet
313 683 m 0
 317 684 323 685 327 685 c 0
 356 685 381 661 381 631 c 0
 381 599 357 577 327 577 c 0
 323 577 317 576 313 577 c 0
 296 581 281 594 274 612 c 0
 272 618 272 621 272 631 c 0
 272 640 272 642 274 648 c 0
 281 666 296 679 313 683 c 0
115 449 m 1
 120 453 l 1
 130 453 l 1
 142 453 149 449 156 442 c 0
 169 429 176 409 176 372 c 1
 176 351 l 1
 182 361 l 2
 204 396 227 421 260 436 c 0
 273 442 286 447 301 450 c 0
 309 452 323 453 336 453 c 0
 344 453 351 453 357 453 c 0
 360 453 364 453 366 453 c 0
 405 446 441 429 471 406 c 0
 481 399 502 378 510 368 c 0
 520 356 531 339 539 324 c 0
 554 291 562 263 562 228 c 0
 562 219 l 0
 562 162 545 106 514 62 c 0
 505 49 480 24 468 16 c 0
 450 4 428 -6 409 -10 c 0
 407 -10 404 -11 401 -11 c 0
 395 -11 389 -10 383 -10 c 0
 376 -10 370 -11 364 -11 c 0
 361 -11 358 -10 356 -10 c 0
 344 -7 333 -3 323 3 c 0
 303 12 282 17 260 17 c 0
 250 17 238 16 228 14 c 0
 224 13 220 13 218 13 c 0
 212 13 211 16 208 24 c 0
 206 29 205 32 205 35 c 0
 205 39 207 41 211 43 c 0
 218 47 227 54 233 60 c 0
 249 75 260 94 260 117 c 0
 260 124 261 126 263 128 c 0
 265 131 267 131 272 131 c 0
 279 131 284 129 286 125 c 1
 286 124 287 118 287 112 c 0
 287 61 315 25 357 15 c 0
 364 14 373 13 380 13 c 0
 387 13 395 14 399 15 c 0
 432 27 463 89 472 162 c 0
 475 180 476 199 476 217 c 0
 476 241 474 264 469 282 c 0
 454 351 411 405 359 421 c 0
 348 424 337 426 326 426 c 0
 299 426 273 416 251 401 c 0
 209 370 177 320 177 259 c 0
 177 251 177 248 177 246 c 0
 177 245 177 245 177 244 c 0
 179 240 179 220 179 24 c 2
 179 -193 l 1
 175 -196 l 1
 172 -199 l 1
 144 -199 l 2
 113 -199 112 -199 110 -193 c 1
 109 -192 109 -188 109 -175 c 0
 109 -149 110 -87 110 60 c 0
 110 197 107 312 106 316 c 0
 102 343 91 351 46 351 c 1
 28 351 l 1
 28 368 l 1
 28 384 l 1
 36 384 l 1
 70 384 98 408 105 437 c 0
 106 441 109 444 110 444 c 1
 115 449 l 1
EndSplineSet
Validated: 1
EndChar

StartChar: exclam
Encoding: 33 33 27
Width: 284
Flags: HW
VStem: 87 110<12 93 379 616>
LayerCount: 2
Fore
SplineSet
127 625 m 0
 132 626 137 627 142 627 c 0
 161 627 178 618 188 603 c 0
 193 595 197 586 197 578 c 0
 197 570 156 205 155 200 c 0
 154 195 149 193 141 193 c 0
 134 193 130 195 129 200 c 0
 128 205 87 570 87 578 c 0
 87 600 103 619 127 625 c 0
129 108 m 0
 134 109 138 109 143 109 c 0
 157 109 169 104 180 93 c 0
 191 83 197 69 197 55 c 0
 197 40 191 26 180 16 c 0
 169 5 156 0 142 0 c 0
 128 0 114 5 103 16 c 0
 92 26 87 40 87 55 c 0
 87 64 88 70 93 79 c 0
 99 92 114 105 129 108 c 0
EndSplineSet
Validated: 1
EndChar

StartChar: quotedbl
Encoding: 34 34 28
Width: 512
Flags: HW
LayerCount: 2
Fore
SplineSet
75 602 m 0
 80 603 84 604 89 604 c 0
 105 604 120 598 131 585 c 0
 138 578 146 563 150 551 c 0
 155 535 158 517 158 497 c 0
 158 476 155 454 150 432 c 0
 145 413 140 400 131 382 c 0
 117 353 103 335 83 312 c 0
 71 300 66 296 61 296 c 0
 58 296 56 297 53 300 c 1
 50 304 49 305 49 308 c 0
 49 312 50 314 60 324 c 0
 82 346 97 365 110 391 c 0
 121 414 128 437 132 463 c 0
 133 474 134 493 134 504 c 0
 134 506 134 509 134 510 c 2
 133 515 l 1
 127 510 l 2
 116 500 102 495 88 495 c 0
 79 495 69 497 61 502 c 0
 45 510 34 530 34 549 c 0
 34 575 50 597 75 602 c 0
273 602 m 0
 278 603 283 604 288 604 c 0
 304 604 319 598 330 585 c 0
 337 578 344 563 348 551 c 0
 353 535 356 517 356 497 c 0
 356 476 353 454 348 432 c 0
 343 413 339 400 330 382 c 0
 316 353 302 335 282 312 c 0
 270 300 265 296 260 296 c 0
 257 296 255 297 252 300 c 1
 249 304 248 305 248 308 c 0
 248 312 249 314 259 324 c 0
 281 346 295 365 308 391 c 0
 319 414 327 437 331 463 c 0
 332 474 333 493 333 504 c 0
 333 506 333 509 333 510 c 2
 332 515 l 1
 326 510 l 2
 315 500 300 495 286 495 c 0
 271 495 258 500 248 511 c 0
 238 521 232 535 232 549 c 0
 232 563 238 578 248 588 c 0
 254 595 264 600 273 602 c 0
EndSplineSet
Validated: 1
EndChar

StartChar: numbersign
Encoding: 35 35 29
Width: 0
Flags: HW
HStem: 136 41<74 243 302 478 538 782> 335 41<72 314 374 550 609 780> 584 20G<418 431 652 667>
LayerCount: 2
Fore
SplineSet
56 355 m 0
 56 359 58 367 70 376 c 1
 200 377 l 1
 330 377 l 1
 369 485 l 2
 410 599 410 604 426 604 c 0
 436 604 446 595 446 584 c 0
 446 580 411 480 410 478 c 2
 374 377 l 1
 374 377 378 376 386 376 c 0
 402 376 433 377 470 377 c 2
 565 377 l 1
 604 485 l 2
 644 595 644 604 662 604 c 0
 672 604 682 595 682 584 c 0
 682 577 651 493 645 478 c 2
 609 377 l 1
 609 376 646 376 694 376 c 2
 780 376 l 1
 795 368 796 359 796 355 c 0
 796 337 784 335 741 335 c 0
 727 335 709 335 687 335 c 2
 593 335 l 1
 591 326 587 318 563 249 c 2
 538 177 l 1
 659 177 l 2
 692 177 718 178 737 178 c 0
 785 178 796 175 796 157 c 0
 796 146 784 137 782 136 c 1
 652 136 l 1
 522 136 l 1
 483 28 l 2
 444 -83 444 -92 426 -92 c 0
 415 -92 406 -83 406 -71 c 1
 407 -68 418 -29 442 34 c 2
 478 136 l 1
 478 136 474 137 466 137 c 0
 450 137 419 136 382 136 c 2
 287 136 l 1
 248 28 l 2
 209 -83 208 -92 190 -92 c 0
 179 -92 170 -83 170 -71 c 1
 171 -68 183 -29 207 34 c 2
 243 136 l 1
 243 136 238 137 231 137 c 0
 217 137 190 136 158 136 c 2
 72 136 l 1
 58 143 57 151 57 155 c 0
 57 156 57 157 57 157 c 0
 57 173 68 175 74 177 c 1
 259 177 l 1
 261 186 265 194 289 263 c 2
 314 335 l 1
 193 335 l 1
 72 335 l 1
 64 338 56 344 56 355 c 0
495 177 m 1
 495 179 547 328 550 335 c 1
 357 335 l 1
 355 326 352 318 328 249 c 2
 302 177 l 1
 398 177 l 1
 495 177 l 1
EndSplineSet
Validated: 1
EndChar

StartChar: sterling
Encoding: 36 163 30
Width: 654
Flags: HW
HStem: 286 33<167 249 321 431> 406 95<509 562>
VStem: 249 72<112 286 318 531> 562 34<500 525> 599 27<78 127>
LayerCount: 2
Fore
SplineSet
404 616 m 0
 411 617 418 618 425 618 c 0
 499 618 565 573 588 505 c 0
 594 489 597 470 597 455 c 0
 597 451 597 446 596 443 c 0
 592 420 573 406 550 406 c 0
 522 406 502 427 502 452 c 0
 502 460 504 468 508 476 c 0
 515 492 532 501 550 501 c 0
 551 501 552 501 553 501 c 1
 558 500 562 500 562 500 c 1
 562 502 555 516 552 521 c 0
 532 557 497 582 456 591 c 0
 448 593 437 593 426 593 c 0
 417 593 409 593 404 592 c 0
 366 583 339 555 328 517 c 0
 322 493 321 481 321 393 c 2
 321 318 l 1
 374 318 l 2
 414 318 429 318 431 317 c 0
 435 315 436 311 436 302 c 0
 436 293 435 289 431 287 c 0
 429 286 414 286 374 286 c 2
 321 286 l 1
 321 209 l 2
 320 133 319 131 317 122 c 0
 311 97 308 94 308 91 c 0
 308 89 320 85 367 65 c 0
 415 46 443 37 477 35 c 0
 481 35 484 34 488 34 c 0
 528 34 564 50 584 75 c 0
 593 88 598 100 599 116 c 0
 599 123 600 125 602 127 c 0
 605 130 606 130 612 130 c 0
 619 130 620 130 623 127 c 0
 626 124 626 123 626 118 c 0
 626 90 612 60 592 37 c 0
 573 17 541 -2 511 -7 c 0
 499 -9 486 -11 473 -11 c 0
 454 -11 434 -8 412 -2 c 0
 386 4 364 12 309 36 c 2
 281 48 l 1
 269 38 l 2
 237 7 189 -11 142 -11 c 0
 135 -11 129 -11 122 -10 c 0
 83 -6 56 9 56 39 c 0
 56 61 68 83 87 96 c 0
 101 106 121 114 143 118 c 0
 152 120 160 120 178 120 c 0
 202 120 211 119 234 114 c 0
 240 113 246 112 246 112 c 1
 248 114 249 145 249 211 c 2
 249 286 l 1
 208 286 l 1
 167 286 l 1
 164 289 l 2
 161 292 161 292 161 302 c 0
 161 312 161 312 164 315 c 2
 167 318 l 1
 208 318 l 1
 249 318 l 1
 249 396 l 2
 250 471 250 474 252 483 c 0
 260 520 280 552 308 575 c 0
 335 598 370 612 404 616 c 0
193 73 m 0
 183 75 172 75 162 75 c 0
 142 75 126 72 114 66 c 0
 102 60 95 50 95 40 c 0
 95 33 98 27 105 22 c 0
 114 16 127 12 141 12 c 0
 159 12 180 18 196 28 c 0
 209 36 222 49 229 61 c 0
 230 63 231 63 231 64 c 0
 231 65 230 65 229 66 c 0
 224 68 203 72 193 73 c 0
EndSplineSet
Validated: 1
EndChar

StartChar: percent
Encoding: 37 37 31
Width: 0
Flags: HW
HStem: -164 24<632 697> 279 24<632 697> 302 24<177 242> 622 24<397 545> 744 24<178 242>
VStem: 57 65<412 659> 313 26<432 638> 512 65<-54 192> 768 26<-34 172>
LayerCount: 2
Fore
SplineSet
190 767 m 0
 193 767 199 768 204 768 c 0
 213 768 223 767 229 765 c 0
 237 763 251 757 259 751 c 0
 263 749 275 737 286 726 c 0
 308 704 323 692 343 680 c 0
 372 663 403 652 439 647 c 0
 446 646 459 645 472 645 c 0
 485 645 498 646 505 647 c 0
 574 657 630 695 668 753 c 0
 675 762 676 763 681 766 c 0
 685 768 687 768 691 768 c 0
 702 768 710 754 710 744 c 1
 709 739 698 723 443 292 c 0
 210 -104 178 -158 174 -160 c 1
 171 -163 167 -164 164 -164 c 0
 161 -164 157 -163 154 -161 c 0
 149 -159 147 -158 145 -153 c 0
 143 -149 142 -146 142 -143 c 0
 142 -140 143 -137 144 -134 c 1
 146 -132 253 49 382 267 c 0
 511 486 616 666 616 666 c 1
 616 666 613 664 609 662 c 0
 601 656 578 644 566 640 c 0
 544 631 516 622 490 622 c 0
 472 622 l 0
 422 622 371 636 327 663 c 0
 323 666 318 668 318 667 c 1
 323 656 l 2
 330 634 339 610 339 583 c 0
 339 573 340 554 340 536 c 0
 340 518 339 497 339 487 c 0
 339 447 324 415 309 383 c 0
 282 330 248 302 208 302 c 0
 192 302 175 307 159 315 c 0
 108 341 68 408 57 492 c 0
 57 495 57 498 57 503 c 0
 57 512 57 524 57 536 c 0
 57 553 57 570 57 580 c 0
 57 607 69 631 77 653 c 0
 102 716 143 758 190 767 c 0
220 744 m 0
 216 745 213 744 209 744 c 0
 201 744 193 742 187 739 c 0
 157 725 133 678 126 622 c 0
 122 596 122 584 122 536 c 0
 122 487 122 474 126 449 c 0
 135 381 165 332 201 327 c 0
 204 327 206 326 209 326 c 0
 237 326 265 349 285 391 c 0
 299 420 313 449 313 489 c 0
 313 499 313 518 313 535 c 0
 313 553 313 571 313 581 c 0
 313 621 299 650 285 679 c 0
 268 715 244 739 220 744 c 0
645 302 m 0
 650 303 657 302 662 302 c 0
 702 302 737 274 764 221 c 0
 779 189 794 157 794 117 c 0
 794 107 795 88 795 70 c 0
 795 52 794 33 794 22 c 0
 794 -18 779 -51 764 -83 c 0
 737 -136 703 -164 663 -164 c 0
 647 -164 629 -159 613 -151 c 0
 562 -125 523 -58 512 26 c 0
 512 29 512 32 512 37 c 0
 512 46 512 58 512 70 c 0
 512 81 512 93 512 102 c 0
 512 107 512 111 512 114 c 0
 521 176 545 229 580 264 c 0
 598 282 622 297 645 302 c 0
675 279 m 0
 671 280 668 279 664 279 c 0
 656 279 648 276 642 273 c 0
 612 259 588 213 581 157 c 0
 577 131 577 118 577 70 c 0
 577 21 577 8 581 -17 c 0
 590 -85 619 -134 655 -139 c 0
 658 -139 661 -140 664 -140 c 0
 692 -140 719 -117 739 -75 c 0
 753 -46 768 -16 768 24 c 0
 768 34 768 52 768 70 c 0
 768 87 768 105 768 115 c 0
 768 155 753 184 739 213 c 0
 722 249 699 274 675 279 c 0
EndSplineSet
Validated: 1
EndChar

StartChar: ampersand
Encoding: 38 38 32
Width: 0
Flags: HW
HStem: -22 23<309 502> 248 86<472 547> 316 24<206 299> 338 68<153 179> 414 23<241 297> 475 94<310 350> 518 86<601 647> 603 24<199 313>
VStem: 57 85<124 316> 72 72<406 548> 114 66<353 393> 303 95<482 563> 314 27<353 394> 427 27<296 374> 597 84<545 561 561 578> 683 27<158 301>
LayerCount: 2
Fore
SplineSet
280 411 m 0
 274 413 263 414 254 414 c 0
 249 414 244 414 241 414 c 0
 221 409 204 398 188 381 c 0
 182 375 179 372 179 370 c 0
 179 368 181 365 186 362 c 0
 205 348 232 338 257 338 c 0
 258 338 260 338 261 338 c 0
 286 338 302 351 311 365 c 0
 313 369 314 371 314 377 c 0xa82f
 314 383 313 385 311 389 c 0
 305 399 294 407 280 411 c 0
229 626 m 0
 232 626 240 627 248 627 c 0
 256 627 264 626 270 626 c 0
 315 626 356 604 378 579 c 0
 389 565 396 546 398 528 c 1
 398 517 397 509 393 500 c 0
 385 485 368 475 351 475 c 0
 343 475 335 477 328 481 c 0
 313 488 303 505 303 522 c 0
 303 547 318 565 343 569 c 1
 350 571 l 1
 343 577 l 1
 320 593 284 603 248 603 c 0
 218 603 192 592 172 570 c 0
 160 558 152 543 148 525 c 1
 143 509 143 498 143 471 c 0
 143 451 143 443 145 434 c 0
 147 421 153 406 154 406 c 0
 155 406 158 408 161 410 c 0
 171 416 193 426 205 429 c 0
 221 434 232 436 247 436 c 0
 249 436 253 436 256 436 c 0
 272 436 275 436 285 434 c 0
 314 426 333 410 339 388 c 0
 340 384 341 381 341 377 c 0
 341 362 328 344 314 334 c 0
 306 329 295 322 285 319 c 0
 277 317 266 316 255 316 c 0
 227 316 195 323 169 335 c 0
 165 337 161 338 161 338 c 2
 160 338 158 332 156 326 c 0
 148 300 142 272 142 229 c 0
 142 224 142 220 142 215 c 0
 142 184 146 167 153 144 c 0
 162 114 180 86 202 68 c 1
 239 35 288 13 343 5 c 0
 360 3 381 0 401 0 c 0
 437 0 476 5 507 13 c 0
 585 32 639 76 665 143 c 0
 677 174 683 206 683 243 c 0
 683 255 684 261 684 266 c 0
 684 268 684 270 683 272 c 0
 680 284 674 295 667 306 c 0
 655 323 646 333 607 367 c 0
 598 375 585 388 577 395 c 1
 563 410 l 1
 556 407 l 2
 553 406 538 401 526 397 c 0
 488 387 479 383 468 375 c 0
 462 371 458 365 455 359 c 0
 454 355 454 352 454 342 c 0
 454 327 456 317 462 304 c 2
 466 296 l 1
 468 302 l 2
 471 314 478 324 488 329 c 0
 495 332 503 334 510 334 c 0
 525 334 541 325 548 310 c 0
 551 304 553 297 553 291 c 0
 553 285 551 277 548 271 c 0
 541 256 526 248 509 248 c 0
 506 248 502 248 498 248 c 0
 496 248 495 248 493 248 c 0
 468 254 449 271 437 296 c 0
 429 312 427 324 427 342 c 0
 427 345 427 348 427 350 c 0
 427 359 428 365 433 373 c 0
 442 391 461 402 499 414 c 0
 509 417 526 425 536 428 c 1
 621 479 l 1
 630 489 638 502 644 513 c 2
 647 518 l 1
 641 518 l 2
 640 518 640 518 639 518 c 0
 623 518 603 530 597 545 c 0
 597 546 597 548 597 550 c 0
 597 553 597 557 597 561 c 0
 597 565 597 569 597 573 c 0
 597 575 597 577 597 578 c 0
 603 594 623 603 640 603 c 0
 643 603 647 604 650 603 c 0
 663 599 674 590 679 578 c 0
 681 573 683 570 683 558 c 0
 683 521 665 484 633 453 c 0
 621 441 610 435 597 427 c 0
 592 424 589 422 589 422 c 1
 589 420 612 397 632 380 c 1
 670 345 686 328 696 306 c 1
 706 287 710 276 710 253 c 2
 710 244 l 2
 710 214 706 192 699 164 c 0
 690 132 673 100 655 77 c 0
 619 32 564 0 496 -13 c 0
 462 -20 441 -22 398 -22 c 0
 349 -22 319 -18 278 -8 c 0
 203 10 136 49 98 96 c 0
 79 121 63 148 57 177 c 0
 56 180 56 182 56 185 c 0
 56 190 57 197 57 210 c 0
 57 221 57 228 57 235 c 0
 57 238 57 242 57 245 c 0
 60 260 68 285 72 298 c 0
 80 320 96 346 108 362 c 0
 111 365 114 369 114 370 c 0
 115 371 113 373 109 378 c 0
 92 396 78 421 72 446 c 0
 72 448 71 451 71 454 c 0
 71 460 72 466 72 472 c 0
 72 478 71 484 71 490 c 0
 71 493 72 496 72 498 c 0
 75 511 80 522 87 536 c 0
 95 552 104 563 118 577 c 0
 134 593 151 604 174 612 c 1
 190 619 206 626 229 626 c 0
EndSplineSet
Validated: 1
EndChar

StartChar: quoteright
Encoding: 39 8217 33
Width: 284
Flags: HW
LayerCount: 2
Fore
SplineSet
128 602 m 0
 133 603 137 604 142 604 c 0
 158 604 173 598 184 585 c 0
 191 578 199 563 203 551 c 0
 208 535 211 517 211 497 c 0
 211 476 208 454 203 432 c 0
 198 413 193 400 184 382 c 0
 170 353 156 335 136 312 c 0
 124 300 119 296 114 296 c 0
 111 296 109 297 106 300 c 1
 103 304 102 305 102 308 c 0
 102 312 104 314 115 325 c 0
 122 332 130 341 134 346 c 0
 162 381 178 420 185 463 c 0
 186 474 188 493 188 504 c 0
 188 506 187 509 187 510 c 2
 186 515 l 1
 180 510 l 2
 169 500 156 495 142 495 c 0
 133 495 123 497 115 502 c 0
 99 510 87 530 87 549 c 0
 87 575 103 597 128 602 c 0
EndSplineSet
Validated: 1
EndChar

StartChar: parenleft
Encoding: 40 40 34
Width: 398
Flags: HW
VStem: 102 239
LayerCount: 2
Fore
SplineSet
315 762 m 0
 323 768 324 768 330 768 c 0
 334 768 336 768 338 765 c 0
 340 763 341 761 341 759 c 0
 341 755 340 753 325 737 c 0
 258 669 215 586 188 481 c 0
 171 413 163 335 163 256 c 0
 163 177 171 99 188 32 c 0
 215 -74 258 -157 325 -225 c 0
 340 -241 341 -243 341 -247 c 0
 341 -249 340 -251 338 -253 c 0
 336 -256 334 -256 330 -256 c 0
 324 -256 323 -256 315 -250 c 0
 282 -224 246 -185 220 -148 c 0
 143 -40 102 100 102 256 c 0
 102 412 143 552 220 660 c 0
 246 697 282 736 315 762 c 0
EndSplineSet
Validated: 1
EndChar

StartChar: parenright
Encoding: 41 41 35
Width: 398
Flags: HW
VStem: 56 239
LayerCount: 2
Fore
SplineSet
61 767 m 1
 62 767 67 768 69 768 c 0
 73 768 75 767 82 762 c 0
 115 736 151 697 177 660 c 0
 254 552 295 412 295 256 c 0
 295 100 254 -40 177 -148 c 0
 151 -185 115 -224 82 -250 c 0
 75 -255 73 -256 69 -256 c 0
 67 -256 63 -255 61 -255 c 1
 58 -253 56 -248 56 -244 c 1
 57 -243 65 -234 74 -225 c 0
 140 -157 183 -74 209 32 c 0
 226 99 234 177 234 256 c 0
 234 335 226 413 209 481 c 0
 183 586 140 669 74 737 c 0
 65 746 57 755 56 756 c 1
 56 760 58 765 61 767 c 1
EndSplineSet
Validated: 1
EndChar

StartChar: asterisk
Encoding: 42 42 36
Width: 0
Flags: HW
HStem: 523 48<232 243 268 279>
VStem: 227 56<330 523 571 767>
LayerCount: 2
Fore
SplineSet
248 767 m 1
 250 768 252 768 254 768 c 0
 262 768 271 764 276 759 c 1
 280 756 284 747 284 743 c 0
 284 741 275 702 275 656 c 0
 275 611 268 571 268 571 c 0
 269 571 283 580 336 620 c 0
 373 647 405 670 407 670 c 1
 410 671 413 672 416 672 c 0
 431 672 444 657 444 642 c 0
 444 640 444 637 443 635 c 0
 439 624 440 624 362 587 c 0
 323 569 290 552 286 551 c 1
 280 547 l 1
 356 511 l 2
 441 470 439 471 443 460 c 0
 444 458 444 455 444 453 c 0
 444 438 431 423 416 423 c 0
 413 423 410 424 407 425 c 1
 405 425 373 448 336 475 c 0
 283 515 269 523 268 523 c 0
 268 523 275 483 275 438 c 0
 275 392 284 353 284 351 c 0
 284 347 280 339 276 336 c 2
 275 334 271 332 269 330 c 1
 264 328 262 328 256 328 c 0
 249 328 247 328 243 330 c 0
 240 332 235 334 234 336 c 2
 230 339 227 347 227 351 c 0
 227 353 236 392 236 438 c 0
 236 483 243 523 243 523 c 0
 242 523 228 515 175 475 c 0
 138 448 106 425 104 425 c 1
 101 424 98 423 95 423 c 0
 80 423 67 438 67 453 c 0
 67 455 67 458 68 460 c 0
 72 471 70 470 155 511 c 2
 231 547 l 1
 227 551 l 1
 223 552 187 569 148 587 c 0
 70 624 72 624 68 635 c 0
 67 637 67 640 67 642 c 0
 67 657 80 672 95 672 c 0
 98 672 101 671 104 670 c 1
 106 670 138 647 175 620 c 0
 228 580 242 571 243 571 c 0
 243 571 236 611 236 656 c 0
 236 702 227 741 227 743 c 0
 227 747 230 756 234 759 c 2
 236 762 243 766 248 767 c 1
EndSplineSet
Validated: 1
EndChar

StartChar: plus
Encoding: 43 43 37
Width: 796
Flags: HW
HStem: 236 41<72 378 419 724>
VStem: 378 41<-70 236 276 582>
LayerCount: 2
Fore
SplineSet
389 595 m 1
 392 596 395 597 398 597 c 0
 405 597 413 593 417 586 c 2
 419 582 l 1
 419 429 l 1
 419 276 l 1
 571 276 l 1
 724 276 l 1
 728 274 l 2
 731 272 734 269 736 267 c 1
 738 263 739 262 739 256 c 0
 739 250 738 249 736 245 c 1
 734 243 731 240 728 238 c 2
 724 236 l 1
 571 236 l 1
 419 236 l 1
 419 83 l 1
 419 -70 l 1
 417 -74 l 2
 415 -77 412 -80 410 -81 c 0
 406 -84 404 -84 398 -84 c 0
 392 -84 391 -84 387 -81 c 0
 385 -80 382 -77 380 -74 c 2
 378 -70 l 1
 378 83 l 1
 378 236 l 1
 225 236 l 1
 72 236 l 1
 68 238 l 2
 65 240 61 243 60 245 c 0
 57 249 57 250 57 256 c 0
 57 262 57 263 60 267 c 0
 61 269 65 272 68 274 c 2
 72 276 l 1
 225 276 l 1
 378 276 l 1
 378 430 l 1
 379 584 l 1
 382 588 l 2
 383 590 387 593 389 595 c 1
EndSplineSet
Validated: 1
EndChar

StartChar: comma
Encoding: 44 44 38
Width: 284
Flags: HW
HStem: 2 105<96 184>
VStem: 87 119<18 89>
LayerCount: 2
Fore
SplineSet
128 108 m 0
 132 109 136 109 141 109 c 0
 146 109 151 109 155 108 c 0
 182 102 198 78 206 36 c 0
 207 29 207 16 207 2 c 0
 207 -12 207 -26 206 -34 c 0
 197 -93 172 -144 132 -186 c 0
 123 -195 119 -199 115 -199 c 0
 112 -199 109 -198 106 -195 c 1
 103 -191 102 -189 102 -186 c 0
 102 -182 104 -181 113 -171 c 0
 151 -132 174 -86 181 -33 c 0
 183 -23 185 4 185 14 c 0
 185 20 184 17 178 13 c 1
 170 5 157 0 143 0 c 0
 138 0 133 1 128 2 c 0
 103 7 87 28 87 54 c 0
 87 80 103 103 128 108 c 0
EndSplineSet
Validated: 1
EndChar

StartChar: hyphen
Encoding: 45 45 39
Width: 340
Flags: HW
HStem: 190 60<11 284>
VStem: 11 272<190 251>
LayerCount: 2
Fore
SplineSet
11 221 m 1
 11 251 l 1
 147 251 l 1
 284 251 l 1
 284 221 l 1
 284 190 l 1
 147 190 l 1
 11 190 l 1
 11 221 l 1
EndSplineSet
Validated: 1
EndChar

StartChar: period
Encoding: 46 46 40
Width: 284
Flags: HW
HStem: 2 105
VStem: 89 105<10 100>
LayerCount: 2
Fore
SplineSet
129 108 m 0
 134 109 139 109 143 109 c 0
 172 109 196 86 196 56 c 0
 196 52 196 47 195 42 c 0
 191 23 174 6 155 2 c 0
 150 1 146 0 141 0 c 0
 112 0 87 25 87 54 c 0
 87 59 88 63 89 68 c 0
 93 87 110 104 129 108 c 0
EndSplineSet
Validated: 1
EndChar

StartChar: slash
Encoding: 47 47 41
Width: 0
Flags: HW
LayerCount: 2
Fore
SplineSet
427 767 m 1
 428 768 432 768 435 768 c 0
 446 768 455 758 455 748 c 0
 455 744 402 599 275 250 c 0
 177 -20 94 -246 94 -246 c 0
 90 -252 84 -256 77 -256 c 0
 74 -256 71 -255 68 -254 c 1
 66 -252 61 -249 60 -247 c 0
 57 -243 57 -242 57 -237 c 0
 57 -231 71 -193 236 262 c 0
 334 532 417 758 417 758 c 0
 419 762 423 765 427 767 c 1
EndSplineSet
Validated: 1
EndChar

StartChar: zero
Encoding: 48 48 42
Width: 824
Flags: HW
HStem: -23 25<365 464> 658 24<367 463>
VStem: 199 87<139 517> 544 86<137 518>
LayerCount: 2
Fore
SplineSet
257 599 m 0
 293 651 352 682 414 682 c 0
 465 682 547 661 592 561 c 0
 619 502 630 433 630 328 c 0
 630 183 605 50 502 0 c 0
 473 -14 445 -23 415 -23 c 0
 373 -23 289 -8 243 85 c 0
 211 145 199 215 199 328 c 0
 199 448 213 528 257 599 c 0
493 625 m 0
 478 640 452 658 414 658 c 0
 391 658 340 648 311 591 c 0
 287 541 286 465 286 363 c 0
 286 355 286 347 286 339 c 0
 286 323 286 306 286 289 c 0
 286 159 293 0 415 0 c 0
 462 0 491 29 506 54 c 0
 541 105 544 194 544 339 c 0
 544 498 541 577 493 625 c 0
EndSplineSet
Validated: 1
EndChar

StartChar: one
Encoding: 49 49 43
Width: 642
Flags: HW
HStem: 0 33<179 274 418 512> 584 33<174 279>
VStem: 307 77<60 610>
LayerCount: 2
Fore
SplineSet
307 610 m 1
 273 596 237 584 185 584 c 2
 174 584 l 1
 174 616 l 1
 185 616 l 2
 233 616 303 630 351 673 c 2
 361 682 l 1
 369 682 l 2
 371 682 372 682 373 682 c 0
 377 682 377 682 384 676 c 1
 384 368 l 1
 384 60 l 1
 391 37 405 33 489 33 c 2
 512 33 l 1
 512 0 l 1
 501 0 l 1
 494 1 347 3 346 3 c 0
 345 3 197 1 190 0 c 1
 179 0 l 1
 179 33 l 1
 202 33 l 2
 292 33 296 37 307 60 c 1
 307 610 l 1
EndSplineSet
Validated: 1
EndChar

StartChar: two
Encoding: 50 50 44
Width: 794
Flags: HW
HStem: 0 80<269 548> 649 32<304 430>
VStem: 189 42<548 579> 571 27<113 179>
LayerCount: 2
Fore
SplineSet
362 681 m 0
 363 681 368 681 374 681 c 0
 388 681 409 681 415 680 c 0
 456 674 492 660 522 638 c 0
 533 629 554 609 562 597 c 0
 570 586 584 560 588 548 c 0
 592 535 596 517 597 504 c 0
 598 499 598 491 598 484 c 0
 598 472 597 460 596 452 c 0
 589 414 572 378 543 341 c 0
 524 316 492 288 438 240 c 0
 425 228 407 212 400 205 c 2
 283 92 l 1
 269 80 l 1
 388 80 l 2
 525 81 543 82 548 87 c 0
 554 93 561 121 567 155 c 0
 569 165 570 175 571 176 c 1
 571 179 l 1
 585 179 l 1
 598 179 l 1
 598 176 l 1
 597 175 591 136 584 90 c 0
 577 43 570 4 569 3 c 1
 569 0 l 1
 379 0 l 1
 189 0 l 1
 189 12 l 2
 189 22 189 26 191 29 c 0
 192 30 234 76 282 130 c 0
 331 183 375 234 381 240 c 0
 459 328 491 384 502 451 c 0
 503 458 503 470 503 482 c 0
 503 494 503 507 502 514 c 0
 496 556 482 587 458 612 c 0
 434 636 408 647 373 649 c 0
 371 649 369 649 367 649 c 0
 318 649 272 622 245 577 c 0
 240 569 231 551 231 548 c 1
 242 548 l 2
 258 548 273 543 283 532 c 0
 293 522 298 508 298 494 c 0
 298 480 294 467 284 456 c 0
 278 450 270 445 261 442 c 0
 256 440 250 440 244 440 c 0
 238 440 231 440 226 442 c 0
 201 450 189 469 189 497 c 0
 189 532 202 568 222 600 c 0
 232 615 255 638 270 648 c 0
 290 661 311 671 334 676 c 0
 342 679 347 679 362 681 c 0
EndSplineSet
Validated: 1
EndChar

StartChar: three
Encoding: 51 51 45
Width: 789
Flags: HW
HStem: 82 116<241 295> 344 24<325 413> 344 15<444 454> 488 104<262 316> 654 28<323 449>
VStem: 219 103<497 585> 493 96<458 608>
LayerCount: 2
Fore
SplineSet
374 681 m 0xde
 379 681 389 682 397 682 c 0
 444 682 489 670 525 646 c 0
 550 631 566 614 577 591 c 0
 585 573 589 559 589 541 c 0
 589 539 589 537 589 535 c 0
 585 459 534 394 455 364 c 0
 447 361 444 359 446 359 c 1xbe
 470 354 486 349 505 339 c 0
 531 327 548 314 566 295 c 0
 599 260 616 219 616 175 c 0
 616 149 610 121 598 95 c 0
 567 33 506 -9 430 -20 c 0
 423 -21 410 -22 396 -22 c 0
 382 -22 368 -21 361 -20 c 0
 323 -14 289 -1 261 17 c 0
 235 34 218 54 205 80 c 0
 197 98 191 120 191 138 c 0
 191 163 203 182 222 191 c 0
 232 196 239 198 250 198 c 0
 260 198 266 196 276 191 c 0
 287 186 295 178 300 168 c 0
 305 159 307 149 307 139 c 0
 307 124 301 109 290 98 c 0
 280 88 265 82 250 82 c 0
 249 82 248 82 247 82 c 0
 244 82 241 82 241 82 c 1
 241 82 244 78 247 73 c 0
 272 40 315 17 365 9 c 0
 373 8 384 8 394 8 c 0
 404 8 414 8 419 9 c 0
 462 21 493 58 504 109 c 0
 508 128 510 151 510 175 c 0
 510 201 507 228 502 248 c 0
 490 299 454 336 412 343 c 0
 408 344 388 344 365 344 c 2
 325 344 l 1
 322 347 l 2
 319 349 318 351 318 356 c 0
 318 360 319 363 322 365 c 0
 324 367 326 368 327 368 c 0
 333 368 392 373 397 374 c 0
 454 385 493 452 493 541 c 0
 493 564 491 576 487 590 c 0
 479 616 463 635 438 647 c 0
 426 652 411 655 395 655 c 0
 390 655 385 654 379 654 c 0
 338 650 304 636 279 613 c 0
 273 606 262 595 262 594 c 1
 262 594 266 593 272 593 c 0
 283 593 293 591 302 585 c 0
 316 576 324 560 324 542 c 0
 324 537 324 532 323 527 c 0
 318 503 298 488 272 488 c 0
 240 488 219 510 219 543 c 0
 219 573 231 602 254 627 c 0
 282 656 328 676 374 681 c 0xde
EndSplineSet
Validated: 1
EndChar

StartChar: four
Encoding: 52 52 46
Width: 789
Flags: HW
HStem: 0 33<354 433 554 633> 169 33<211 454 534 635> 673 20G<513 522>
VStem: 460 74<53 114 114 169 202 581>
LayerCount: 2
Fore
SplineSet
504 691 m 0
 507 693 508 693 517 693 c 0
 526 693 527 692 530 690 c 2
 534 687 l 1
 534 444 l 1
 534 202 l 1
 585 202 l 1
 635 202 l 1
 635 185 l 1
 635 169 l 1
 584 169 l 1
 534 169 l 1
 534 114 l 2
 534 59 535 57 537 53 c 0
 541 42 547 38 562 36 c 0
 571 34 597 33 615 33 c 2
 633 33 l 1
 633 16 l 1
 633 0 l 1
 624 0 l 1
 619 1 587 1 554 2 c 0
 530 3 512 3 494 3 c 0
 476 3 457 3 433 2 c 0
 400 1 369 1 364 0 c 1
 354 0 l 1
 354 16 l 1
 354 33 l 1
 372 33 l 2
 390 33 416 34 426 36 c 0
 440 38 447 42 451 53 c 0
 453 57 454 59 454 114 c 2
 454 169 l 1
 317 169 l 1
 181 169 l 1
 181 185 l 1
 181 202 l 1
 341 445 l 2
 452 613 502 689 504 691 c 0
460 202 m 1
 460 391 l 1
 460 581 l 1
 335 391 l 1
 211 203 l 1
 335 202 l 1
 460 202 l 1
EndSplineSet
Validated: 1
EndChar

StartChar: five
Encoding: 53 53 47
Width: 766
Flags: HW
HStem: -22 30<309 434> 407 24<346 447> 563 86<281 465>
VStem: 194 102<127 193> 245 33<378 573> 510 91<105 312>
LayerCount: 2
Fore
SplineSet
250 680 m 2xec
 252 681 253 682 254 682 c 0
 257 682 260 680 266 678 c 0
 289 668 318 658 342 654 c 0
 362 651 384 649 404 649 c 0
 440 649 475 655 510 667 c 0
 520 670 534 675 539 677 c 0
 546 680 550 682 553 682 c 0
 556 682 557 681 559 679 c 0
 562 677 562 675 562 671 c 0
 562 666 562 664 557 658 c 0
 549 647 535 633 523 623 c 0
 495 598 461 580 425 571 c 0
 406 566 385 563 365 563 c 0
 338 563 310 569 280 577 c 1
 278 577 l 1
 278 477 l 1
 278 378 l 1xec
 288 386 l 2
 316 411 348 425 387 429 c 0
 394 430 401 430 408 430 c 0
 455 430 500 411 536 376 c 0
 570 341 592 295 600 242 c 0
 601 234 601 220 601 207 c 0
 601 193 601 180 600 172 c 0
 595 145 589 124 578 102 c 0
 566 77 554 62 536 43 c 0
 511 19 486 3 455 -8 c 0
 428 -18 409 -22 379 -22 c 0
 365 -22 359 -22 353 -22 c 0
 350 -22 347 -23 343 -22 c 0
 314 -16 289 -1 267 16 c 0
 256 24 239 41 231 52 c 0
 207 84 194 127 194 167 c 0xf4
 194 177 196 186 200 194 c 0
 208 210 227 219 245 219 c 0xec
 254 219 262 217 270 213 c 0
 277 209 287 200 291 193 c 1
 293 186 296 174 296 169 c 0xf4
 296 163 293 151 291 144 c 1
 285 133 270 122 256 119 c 0
 254 119 249 118 245 118 c 0
 239 118 232 119 229 120 c 1
 227 120 l 1
 230 113 l 2
 243 75 272 41 309 23 c 0
 319 19 338 11 350 9 c 0
 356 8 367 8 376 8 c 0
 386 8 394 8 399 9 c 0
 449 20 487 58 501 113 c 0
 507 138 510 167 510 212 c 0
 510 289 501 328 481 360 c 0
 461 391 437 407 408 407 c 0
 375 407 343 397 317 381 c 0
 306 373 285 352 276 339 c 0
 272 333 268 328 267 327 c 1
 265 326 262 326 259 326 c 0
 256 326 253 326 251 327 c 1
 245 331 245 319 245 504 c 0
 245 585 244 633 244 657 c 0
 244 669 245 675 245 676 c 0
 246 678 248 680 250 680 c 2xec
EndSplineSet
Validated: 1
EndChar

StartChar: six
Encoding: 54 54 48
Width: 804
Flags: HW
HStem: -23 31<359 468> 414 24<369 462> 654 28<407 458 458 464 464 530>
VStem: 197 95<147 339 242 470> 501 95<528 607> 528 93<102 314>
LayerCount: 2
Fore
SplineSet
443 681 m 0xf4
 447 682 453 682 459 682 c 0
 473 682 493 680 501 679 c 0
 555 669 587 636 595 588 c 0
 596 583 596 576 596 572 c 0
 596 548 587 533 569 525 c 0
 562 522 561 522 549 522 c 0
 536 522 535 522 528 525 c 0
 519 529 510 537 507 545 c 0
 503 553 501 561 501 568 c 0xf8
 501 585 510 602 525 610 c 0
 533 614 539 615 548 615 c 0
 553 615 556 616 556 616 c 1
 556 618 536 637 531 640 c 0
 522 645 508 652 497 654 c 0
 494 655 490 655 487 655 c 0
 480 655 473 654 465 654 c 0
 459 654 453 655 448 655 c 0
 446 655 443 654 441 654 c 0
 375 640 323 579 303 494 c 0
 295 459 290 423 290 369 c 0
 290 346 289 339 290 339 c 0
 291 339 l 1
 292 340 294 346 297 351 c 0
 313 387 339 414 369 427 c 0
 384 434 400 437 419 437 c 0
 421 437 424 437 427 437 c 0
 477 437 514 419 551 382 c 0
 590 342 612 301 620 251 c 0
 621 242 622 224 622 208 c 0
 622 199 621 189 621 183 c 0
 621 123 595 81 551 36 c 0
 533 19 519 9 501 0 c 0
 473 -14 443 -23 411 -23 c 0
 409 -23 405 -23 403 -23 c 0
 345 -23 292 11 257 62 c 0
 245 81 227 118 219 145 c 0
 211 170 205 204 202 234 c 0
 199 261 197 292 197 321 c 0
 197 348 199 372 201 390 c 0
 215 500 267 593 344 643 c 0
 374 663 409 677 443 681 c 0xf4
433 414 m 0
 427 415 422 414 416 414 c 0
 382 414 354 399 332 370 c 0
 305 334 292 282 292 222 c 0
 292 217 292 211 292 205 c 0
 292 154 300 116 307 92 c 0
 321 51 352 19 387 10 c 0
 393 8 403 8 413 8 c 0
 421 8 429 8 435 9 c 0
 455 14 469 22 484 37 c 0
 508 61 520 86 525 127 c 0
 527 145 528 178 528 225 c 0xf4
 528 274 526 290 522 312 c 0
 517 341 503 367 485 385 c 0
 470 400 453 411 433 414 c 0
EndSplineSet
Validated: 1
EndChar

StartChar: seven
Encoding: 55 55 49
Width: 696
Flags: HW
HStem: 579 81<208 508> 672 20G<179 206>
VStem: 145 27<480 544> 179 27<688 692> 269 93<-16 14 14 195>
LayerCount: 2
Fore
SplineSet
179 689 m 1
 179 692 l 1
 193 692 l 1
 206 692 l 1
 206 688 l 2
 207 679 215 672 228 668 c 0
 235 666 253 663 275 662 c 0
 284 661 344 660 438 659 c 2
 586 659 l 1
 586 646 l 1
 586 634 l 1
 511 529 l 2
 469 471 433 420 429 414 c 0
 397 362 378 295 370 209 c 0
 366 168 364 116 364 55 c 0
 364 33 363 16 362 13 c 0
 359 1 350 -10 340 -16 c 0
 332 -20 324 -22 316 -22 c 0
 294 -22 273 -8 269 14 c 0
 268 17 268 24 268 33 c 0
 268 48 269 68 270 83 c 0
 276 145 291 207 315 267 c 0
 337 321 367 380 401 429 c 0
 405 435 431 471 459 509 c 2
 508 579 l 1
 508 579 502 579 492 579 c 0
 472 579 436 579 397 579 c 0
 358 579 317 579 289 579 c 0
 275 579 263 579 257 579 c 0
 221 578 202 576 199 574 c 0
 197 573 190 561 187 552 c 0
 183 542 179 522 176 502 c 0
 174 493 173 484 172 483 c 1
 172 480 l 1
 159 480 l 1
 145 480 l 1
 145 483 l 1
 146 484 154 531 163 586 c 0
 171 641 178 687 179 689 c 1
EndSplineSet
Validated: 1
EndChar

StartChar: eight
Encoding: 56 56 50
Width: 793
Flags: HW
LayerCount: 2
Fore
SplineSet
386 681 m 0
 393 682 401 682 408 682 c 0
 450 682 493 670 527 647 c 0
 547 633 569 610 579 590 c 0
 589 571 593 550 593 530 c 0
 593 500 582 470 563 444 c 0
 546 420 514 395 481 378 c 0
 475 374 470 371 471 371 c 1
 506 348 l 2
 524 336 544 323 549 319 c 0
 592 283 618 233 621 180 c 0
 621 178 621 176 621 174 c 0
 621 145 614 118 601 91 c 0
 581 50 550 20 507 0 c 0
 485 -10 465 -16 439 -20 c 0
 432 -21 419 -22 406 -22 c 0
 393 -22 380 -21 373 -20 c 0
 347 -16 322 -8 299 2 c 0
 245 29 210 71 199 124 c 0
 197 132 196 143 196 154 c 0
 196 165 197 177 199 185 c 0
 207 228 231 266 271 299 c 0
 284 309 310 326 327 335 c 0
 335 339 342 343 342 343 c 1
 342 343 330 351 317 359 c 0
 283 381 270 394 255 414 c 0
 248 424 236 445 232 458 c 0
 226 475 223 493 223 511 c 0
 223 565 251 617 300 649 c 0
 324 665 357 678 386 681 c 0
435 653 m 0
 428 654 412 655 400 655 c 0
 395 655 391 654 388 654 c 0
 317 645 269 603 269 550 c 0
 269 539 272 526 278 514 c 0
 287 497 299 482 318 469 c 2
 388 424 l 1
 445 387 l 1
 449 388 l 2
 451 389 457 394 464 398 c 0
 518 433 547 480 547 529 c 0
 547 531 547 535 547 537 c 0
 545 567 534 590 511 613 c 0
 491 633 465 647 435 653 c 0
439 281 m 0
 400 307 369 327 368 327 c 0
 367 327 352 318 342 312 c 0
 292 278 259 232 250 183 c 0
 249 176 248 167 248 157 c 0
 248 145 249 134 251 126 c 0
 256 99 270 75 290 56 c 0
 321 24 363 7 409 7 c 0
 415 7 422 7 428 8 c 0
 511 17 569 71 569 135 c 0
 569 144 567 153 565 162 c 0
 558 187 541 213 518 229 c 0
 514 232 478 256 439 281 c 0
EndSplineSet
Validated: 1
EndChar

StartChar: nine
Encoding: 57 57 51
Width: 811
Flags: HW
HStem: -23 30<288 416> 223 24<350 445> 655 26<356 454>
VStem: 193 95<345 451 451 557> 218 43<26 42> 218 95<51 132> 524 91<179 289 289 326 326 342 397 438 459 521>
LayerCount: 2
Fore
SplineSet
385 681 m 0xea
 389 681 394 681 399 681 c 0
 414 681 433 680 442 679 c 0
 474 672 504 657 528 633 c 0
 547 615 558 600 572 573 c 0
 596 525 615 475 615 404 c 0
 615 391 616 367 616 342 c 0
 616 317 615 295 615 285 c 0
 615 243 602 204 590 169 c 0
 583 151 565 115 555 99 c 0
 507 22 436 -23 361 -23 c 0
 305 -23 259 -3 237 29 c 0
 226 45 218 63 218 85 c 0
 218 91 218 95 218 98 c 0
 218 100 218 101 218 103 c 0
 222 117 232 128 245 134 c 0
 252 137 253 138 266 138 c 0
 278 138 280 137 287 134 c 0
 304 126 313 110 313 91 c 0xe6
 313 72 304 56 288 48 c 0xf2
 281 45 272 44 266 44 c 0
 265 44 264 44 263 44 c 0
 260 44 260 44 261 42 c 1xea
 261 41 264 38 267 36 c 0
 286 19 313 7 353 7 c 0
 355 7 357 7 360 7 c 0
 378 7 396 11 412 18 c 0
 436 29 460 52 477 80 c 0
 499 113 513 155 519 206 c 0
 522 232 524 249 524 289 c 1
 524 326 l 1
 520 314 l 2
 503 275 477 246 445 233 c 0
 430 226 414 223 395 223 c 0
 393 223 390 223 387 223 c 0
 355 223 330 232 305 246 c 0
 292 254 280 262 266 275 c 0
 214 326 193 380 193 453 c 0
 193 456 193 458 193 461 c 0xf2
 193 485 196 498 200 516 c 0
 209 554 228 586 261 618 c 0
 281 640 297 652 317 662 c 0
 337 672 360 681 385 681 c 0xea
425 655 m 0
 421 656 416 655 411 655 c 0
 400 655 388 654 379 651 c 0
 353 645 331 630 314 604 c 0
 299 581 288 561 288 525 c 0
 288 514 287 482 287 450 c 0
 287 418 288 385 288 374 c 0xf2
 288 346 296 325 304 310 c 0
 314 291 331 271 345 261 c 0
 359 252 379 247 398 247 c 0
 404 247 411 247 416 248 c 0
 439 252 456 262 473 280 c 0
 505 315 524 370 524 438 c 0
 524 444 524 452 524 459 c 0
 524 541 509 574 490 604 c 0
 472 631 451 650 425 655 c 0
EndSplineSet
Validated: 1
EndChar

StartChar: colon
Encoding: 58 58 52
Width: 284
Flags: HW
VStem: 89 105<10 100 341 432>
LayerCount: 2
Fore
SplineSet
129 439 m 0
 134 440 139 441 143 441 c 0
 172 441 196 417 196 387 c 0
 196 383 196 379 195 374 c 0
 191 355 174 338 155 334 c 0
 150 333 146 332 141 332 c 0
 112 332 87 357 87 386 c 0
 87 391 88 394 89 399 c 0
 93 418 110 435 129 439 c 0
129 108 m 0
 134 109 139 109 143 109 c 0
 172 109 196 86 196 56 c 0
 196 52 196 47 195 42 c 0
 191 23 174 6 155 2 c 0
 150 1 146 0 141 0 c 0
 112 0 87 25 87 54 c 0
 87 59 88 63 89 68 c 0
 93 87 110 104 129 108 c 0
EndSplineSet
Validated: 1
EndChar

StartChar: semicolon
Encoding: 59 59 53
Width: 0
Flags: HW
HStem: -199 22G<113 116> 0 109<103 175> 332 108<129 186>
VStem: 88 109<34 96 343 386 386 430> 176 23<-73 10>
LayerCount: 2
Fore
SplineSet
129 439 m 0xf0
 133 440 138 441 142 441 c 0
 172 441 197 417 197 387 c 0
 197 383 196 378 195 374 c 0
 190 349 167 332 142 332 c 0
 110 332 88 356 88 386 c 0
 88 390 87 395 88 399 c 0
 92 418 110 435 129 439 c 0xf0
128 108 m 0
 131 109 136 109 141 109 c 0
 145 109 150 109 154 108 c 0
 179 102 193 79 198 39 c 0
 199 32 199 14 199 0 c 0
 199 -14 199 -28 198 -35 c 0
 193 -71 183 -99 167 -130 c 0
 156 -153 144 -171 128 -188 c 0
 122 -195 118 -199 115 -199 c 0
 112 -199 109 -198 106 -195 c 0
 103 -192 102 -189 102 -187 c 0
 102 -184 106 -180 113 -171 c 0
 146 -132 173 -86 173 -37 c 0
 173 -26 176 -6 176 4 c 0xe8
 176 8 177 10 176 10 c 2
 176 10 172 8 168 6 c 0
 160 2 150 0 142 0 c 0
 127 0 112 5 102 16 c 0
 93 26 88 41 88 54 c 0
 88 80 103 103 128 108 c 0
EndSplineSet
Validated: 1
EndChar

StartChar: less
Encoding: 60 60 54
Width: 796
Flags: HW
LayerCount: 2
Fore
SplineSet
391 414 m 0
 647 535 686 553 695 553 c 0
 697 553 697 552 699 551 c 0
 706 547 711 539 711 532 c 0
 711 526 708 521 703 517 c 0
 701 515 578 457 427 385 c 2
 155 256 l 1
 427 127 l 2
 578 55 701 -3 703 -5 c 0
 708 -9 711 -14 711 -20 c 0
 711 -27 706 -35 699 -39 c 0
 697 -40 697 -41 695 -41 c 0
 686 -41 647 -23 391 98 c 0
 228 175 94 239 92 241 c 0
 88 244 85 250 85 256 c 0
 85 262 88 269 93 272 c 0
 95 273 229 337 391 414 c 0
EndSplineSet
Validated: 1
EndChar

StartChar: equal
Encoding: 61 61 55
Width: 796
Flags: HW
HStem: 136 41<74 724> 335 41<74 724>
LayerCount: 2
Fore
SplineSet
68 374 m 2
 72 376 l 1
 397 376 l 1
 724 376 l 1
 728 374 l 2
 731 372 734 369 736 367 c 1
 738 363 739 361 739 355 c 0
 739 349 738 348 736 344 c 1
 734 342 731 339 729 338 c 2
 725 336 l 1
 399 335 l 1
 74 335 l 1
 68 337 l 1
 61 341 57 346 57 355 c 0
 57 361 57 363 60 367 c 0
 61 369 65 372 68 374 c 2
68 175 m 1
 74 177 l 1
 399 177 l 1
 725 177 l 1
 729 174 l 2
 731 173 734 170 736 168 c 1
 738 164 739 163 739 157 c 0
 739 151 738 149 736 145 c 1
 734 143 731 140 728 138 c 2
 724 136 l 1
 397 136 l 1
 72 136 l 1
 68 138 l 2
 65 140 61 143 60 145 c 0
 57 149 57 151 57 157 c 0
 57 166 61 171 68 175 c 1
EndSplineSet
Validated: 1
EndChar

StartChar: greater
Encoding: 62 62 56
Width: 796
Flags: HW
LayerCount: 2
Fore
SplineSet
96 551 m 0
 98 552 99 553 101 553 c 0
 110 553 148 535 404 414 c 0
 567 337 701 273 703 271 c 0
 707 268 711 262 711 256 c 0
 711 250 707 244 703 241 c 0
 701 239 567 175 404 98 c 2
 110 -41 l 1
 103 -41 l 2
 92 -40 85 -31 85 -21 c 0
 85 -17 86 -13 88 -9 c 0
 92 -4 63 -18 387 135 c 2
 641 256 l 1
 387 377 l 2
 62 531 92 516 88 521 c 1
 86 525 86 526 86 532 c 0
 86 538 86 540 89 544 c 0
 90 546 93 549 96 551 c 0
EndSplineSet
Validated: 1
EndChar

StartChar: question
Encoding: 63 63 57
Width: 512
Flags: HW
HStem: 193 24<225 300>
VStem: 170 44<240 287> 201 110<12 93> 328 27<240 279> 383 42<461 555>
LayerCount: 2
Fore
SplineSet
228 626 m 0xd8
 237 627 246 627 254 627 c 0
 287 627 317 620 344 607 c 0
 361 598 373 590 387 577 c 0
 405 558 416 540 423 515 c 0
 425 507 425 503 425 488 c 0
 425 472 425 469 423 461 c 0
 419 447 408 426 400 415 c 0
 396 410 389 402 385 397 c 1
 379 393 346 369 301 335 c 0
 260 305 224 279 222 276 c 0
 216 269 214 264 214 254 c 0
 214 247 214 245 216 240 c 0
 224 225 238 216 258 216 c 0
 259 216 260 216 261 216 c 0
 285 218 305 228 317 244 c 0
 323 252 327 259 328 269 c 0
 328 275 329 278 331 280 c 0
 334 283 335 283 341 283 c 0
 348 283 348 283 351 280 c 0
 354 277 354 276 354 268 c 0
 353 253 346 236 336 224 c 0
 319 206 287 193 256 193 c 0
 207 193 170 232 170 276 c 0
 170 298 179 320 196 335 c 0
 199 338 234 364 274 394 c 0
 319 426 352 450 356 455 c 2
 365 463 374 475 378 484 c 0
 381 490 383 503 383 511 c 0
 383 525 377 542 367 555 c 0
 350 578 320 595 286 601 c 0
 279 602 266 603 253 603 c 0
 240 603 227 602 219 601 c 0
 175 595 144 582 117 560 c 0
 111 555 97 540 97 538 c 0
 97 537 100 537 103 537 c 0
 131 537 151 515 151 490 c 0
 151 482 149 474 145 466 c 0
 137 450 121 441 104 441 c 0
 87 441 69 450 61 466 c 0
 57 475 56 484 56 496 c 0
 58 523 70 548 88 567 c 0
 117 599 169 621 228 626 c 0xd8
243 108 m 0
 248 109 252 109 257 109 c 0
 271 109 283 104 294 93 c 0
 305 83 310 69 310 55 c 0
 310 40 305 26 294 16 c 0
 283 5 269 0 255 0 c 0
 241 0 228 5 217 16 c 0
 206 26 201 40 201 55 c 0xb8
 201 64 202 70 207 79 c 0
 213 92 228 105 243 108 c 0
EndSplineSet
Validated: 1
EndChar

StartChar: at
Encoding: 64 64 58
Width: 796
Flags: HW
HStem: -9 24<305 537> 470 25<347 456> 591 24<308 487>
VStem: 530 72<214 390>
LayerCount: 2
Fore
SplineSet
375 614 m 0
 377 614 382 615 389 615 c 0
 406 615 431 614 438 613 c 0
 484 608 523 595 564 575 c 0
 629 542 678 493 709 432 c 0
 719 409 724 398 729 379 c 0
 736 352 740 329 740 300 c 0
 740 296 739 292 739 288 c 0
 736 186 707 126 656 113 c 0
 650 111 640 110 630 110 c 0
 625 110 619 110 615 111 c 0
 587 114 565 123 550 138 c 0
 542 146 534 157 532 166 c 2
 531 171 l 1
 523 163 l 2
 513 153 500 142 490 136 c 0
 474 126 450 117 433 114 c 0
 421 112 409 110 396 110 c 0
 356 110 315 121 282 143 c 0
 234 175 203 225 195 280 c 0
 194 287 193 294 193 301 c 0
 193 351 214 400 252 437 c 0
 267 451 282 462 301 471 c 0
 329 485 358 494 390 495 c 0
 413 495 432 492 452 485 c 0
 485 475 514 455 536 427 c 2
 542 420 l 1
 569 420 l 1
 596 420 l 1
 599 418 l 1
 602 415 l 1
 602 292 l 1
 603 169 l 1
 605 162 l 2
 606 158 608 153 609 151 c 0
 613 145 620 138 624 136 c 0
 628 134 632 133 637 133 c 0
 645 133 655 135 663 139 c 0
 670 142 683 156 688 164 c 0
 701 187 709 218 712 265 c 0
 713 275 713 286 713 295 c 0
 713 344 704 382 684 423 c 0
 650 491 586 546 510 572 c 0
 472 585 440 591 398 591 c 0
 355 591 324 585 286 572 c 0
 183 536 105 450 87 350 c 0
 84 333 83 318 83 302 c 0
 83 286 84 271 87 254 c 0
 97 199 125 147 166 105 c 0
 218 54 283 23 361 14 c 0
 370 13 383 13 399 13 c 0
 425 13 457 14 481 17 c 0
 548 24 618 41 673 63 c 2
 686 69 l 1
 710 70 l 1
 733 70 l 1
 736 67 l 2
 738 65 739 62 739 60 c 0
 739 58 738 55 737 54 c 0
 734 51 721 46 688 35 c 0
 621 13 551 -1 481 -7 c 0
 455 -9 425 -11 399 -11 c 0
 382 -11 368 -10 358 -9 c 0
 311 -4 272 9 231 29 c 0
 166 62 118 111 87 173 c 0
 77 195 72 206 67 225 c 0
 60 251 57 276 57 302 c 0
 57 328 60 353 67 379 c 0
 72 398 77 409 87 432 c 0
 118 493 166 542 231 575 c 0
 273 597 315 609 359 613 c 0
 365 614 372 614 375 614 c 0
418 470 m 0
 412 471 406 471 400 471 c 0
 377 471 357 465 338 453 c 0
 301 428 276 386 267 335 c 0
 266 327 266 314 266 302 c 0
 266 290 266 278 267 270 c 0
 273 232 287 201 309 176 c 0
 335 148 365 133 399 133 c 0
 410 133 423 135 435 138 c 0
 470 147 501 171 524 204 c 2
 530 214 l 1
 530 302 l 1
 530 390 l 1
 524 400 l 2
 497 439 461 463 418 470 c 0
EndSplineSet
Validated: 1
EndChar

StartChar: A
Encoding: 65 65 59
Width: 1032
Flags: HW
HStem: -12 75<523 602> 608 20G<625 634>
LayerCount: 2
Fore
SplineSet
584 519 m 0
 581 528 578 536 578 536 c 1
 577 536 571 529 566 521 c 2
 560 514 514 453 462 385 c 2
 369 263 l 1
 378 246 l 2
 437 131 483 80 538 66 c 0
 545 64 557 62 568 62 c 0
 574 62 580 62 585 63 c 0
 620 69 651 89 687 128 c 2
 750 200 l 1
 753 204 l 1
 738 227 l 2
 663 354 619 439 584 519 c 0
612 627 m 0
 616 628 621 629 629 629 c 0
 640 629 645 627 649 622 c 0
 653 617 904 11 904 7 c 0
 904 2 900 0 890 0 c 0
 873 0 869 2 857 24 c 0
 849 38 772 175 769 175 c 0
 767 175 749 155 720 122 c 0
 667 60 644 36 614 17 c 0
 595 4 572 -8 550 -12 c 0
 548 -12 546 -13 543 -13 c 0
 537 -13 530 -12 523 -12 c 0
 517 -12 511 -13 505 -13 c 0
 502 -13 500 -12 498 -12 c 0
 465 -5 438 12 408 42 c 0
 380 71 357 107 325 168 c 0
 319 178 314 187 313 187 c 0
 312 187 289 157 261 121 c 0
 233 84 208 52 206 50 c 0
 201 46 193 44 184 44 c 0
 175 44 172 46 172 51 c 0
 172 54 226 126 386 336 c 0
 503 490 601 618 603 621 c 1
 606 623 610 626 612 627 c 0
EndSplineSet
Validated: 1
EndChar

StartChar: B
Encoding: 66 66 60
Width: 963
Flags: HW
HStem: -11 24<427 547> 582 25<448 571> 703 33<98 168>
VStem: 204 92<210 413 469 675> 677 106<180 422>
LayerCount: 2
Fore
SplineSet
210 802 m 0
 215 805 216 805 227 805 c 0
 245 805 259 798 272 785 c 0
 282 773 292 753 295 735 c 0
 296 729 296 685 296 598 c 2
 296 469 l 1
 304 480 l 2
 323 510 347 535 373 554 c 0
 400 576 433 592 465 599 c 0
 482 604 501 604 519 604 c 0
 572 604 625 587 670 551 c 0
 718 512 755 454 772 389 c 0
 779 359 783 329 783 300 c 0
 783 238 767 178 734 126 c 0
 714 93 681 61 650 39 c 0
 607 10 563 -11 513 -11 c 0
 507 -11 498 -11 490 -11 c 0
 475 -11 458 -10 446 -8 c 0
 350 5 270 60 230 139 c 0
 218 163 212 183 207 210 c 2
 204 223 l 1
 204 445 l 1
 204 689 204 671 197 683 c 0
 193 692 183 696 167 699 c 0
 156 701 133 703 114 703 c 2
 98 703 l 1
 98 720 l 1
 98 736 l 1
 110 736 l 1
 159 736 197 761 204 792 c 0
 206 798 204 798 210 802 c 0
542 582 m 1
 540 582 536 582 533 582 c 0
 526 582 518 582 510 582 c 0
 505 582 501 582 498 582 c 0
 449 576 404 553 364 514 c 0
 339 488 318 460 302 426 c 2
 296 413 l 1
 296 313 l 1
 296 205 297 205 303 174 c 0
 314 116 342 72 389 42 c 0
 419 24 454 12 488 12 c 0
 504 12 521 15 535 19 c 0
 583 33 627 76 650 130 c 0
 669 173 677 224 677 302 c 0
 677 317 l 0
 677 365 674 391 668 420 c 0
 656 485 627 533 585 561 c 0
 571 571 557 578 542 582 c 1
EndSplineSet
Validated: 1
EndChar

StartChar: C
Encoding: 67 67 61
Width: 935
Flags: HW
HStem: 585 27<426 568>
LayerCount: 2
Fore
SplineSet
459 611 m 0
 465 611 477 612 491 612 c 0
 511 612 534 611 545 610 c 0
 598 605 635 593 672 568 c 0
 692 555 705 544 730 519 c 0
 750 500 753 497 753 494 c 0
 753 493 753 489 752 489 c 1
 751 486 676 424 673 423 c 0
 670 422 666 423 663 426 c 1
 663 427 659 435 656 445 c 0
 632 521 605 559 559 575 c 0
 539 582 521 585 492 585 c 0
 468 585 459 584 442 579 c 0
 392 563 348 517 323 461 c 0
 305 416 296 362 296 297 c 0
 296 293 296 290 296 286 c 0
 298 232 304 191 319 153 c 0
 346 81 402 28 462 17 c 0
 469 16 480 16 493 16 c 0
 513 16 536 17 555 19 c 0
 626 27 671 55 727 125 c 0
 732 130 736 135 737 136 c 1
 741 138 746 137 751 134 c 1
 756 130 758 126 758 123 c 0
 758 121 757 119 755 116 c 0
 749 107 726 82 714 69 c 0
 672 28 633 6 579 -4 c 0
 557 -8 524 -11 494 -11 c 0
 476 -11 458 -10 446 -8 c 0
 322 10 226 103 197 228 c 0
 192 250 189 272 189 295 c 0
 189 326 194 358 203 389 c 0
 210 416 228 453 243 477 c 0
 293 553 371 601 459 611 c 0
EndSplineSet
Validated: 1
EndChar

StartChar: D
Encoding: 68 68 62
Width: 1045
Flags: HW
HStem: -33 25<508 626> 603 24<510 624>
VStem: 269 105<172 424> 759 106<173 423>
LayerCount: 2
Fore
SplineSet
189 626 m 0
 192 628 197 629 198 629 c 0
 200 629 205 627 210 625 c 0
 241 611 276 603 317 603 c 0
 339 603 l 0
 369 603 387 607 456 616 c 0
 508 624 532 627 564 627 c 0
 596 627 617 623 644 615 c 0
 719 592 782 541 821 469 c 0
 844 429 857 386 863 336 c 0
 864 329 865 313 865 297 c 0
 865 282 864 266 863 259 c 0
 857 209 844 166 821 126 c 0
 799 86 770 52 734 25 c 0
 702 0 660 -19 623 -27 c 0
 605 -31 585 -33 567 -33 c 0
 540 -33 514 -28 489 -20 c 0
 414 3 351 54 312 126 c 0
 289 166 275 209 269 259 c 0
 269 261 269 265 269 269 c 0
 269 277 269 287 269 297 c 0
 269 308 269 318 269 326 c 0
 269 330 269 334 269 336 c 0
 276 395 295 445 325 492 c 0
 350 528 384 563 418 583 c 0
 422 586 426 589 425 589 c 0
 423 589 398 585 389 582 c 0
 359 574 337 561 279 523 c 0
 235 494 211 481 184 470 c 0
 178 468 174 466 171 466 c 0
 166 466 163 470 159 478 c 0
 157 482 155 484 155 487 c 0
 155 491 157 496 161 505 c 0
 173 535 182 568 182 603 c 0
 182 610 183 619 183 620 c 1
 184 622 186 624 189 626 c 0
591 603 m 0
 586 603 578 603 570 603 c 0
 563 603 556 604 550 604 c 0
 547 604 545 603 543 603 c 0
 504 597 467 573 438 539 c 0
 393 485 375 414 375 298 c 0
 375 181 393 110 438 56 c 0
 467 22 505 0 543 -7 c 0
 549 -8 558 -8 566 -8 c 0
 575 -8 585 -8 591 -7 c 0
 629 0 666 22 695 56 c 0
 740 110 759 181 759 298 c 0
 759 414 740 485 695 539 c 0
 666 573 629 596 591 603 c 0
EndSplineSet
Validated: 1
EndChar

StartChar: E
Encoding: 69 69 63
Width: 949
Flags: HW
HStem: -10 26<421 529 529 565> 300 33<297 641 730 787> 589 23<416 524>
VStem: 190 106<180 292 292 300 333 421> 641 89<333 452> 703 26<125 153>
LayerCount: 2
Fore
SplineSet
450 611 m 0xf4
 454 611 463 612 472 612 c 0
 480 612 491 611 496 611 c 0
 521 611 546 603 566 595 c 0
 579 591 603 580 614 573 c 0
 679 533 728 459 728 362 c 0
 728 344 730 344 730 339 c 0xf8
 730 333 731 333 746 333 c 0
 750 333 755 333 760 333 c 2
 787 333 l 1
 787 316 l 1
 787 300 l 1
 543 300 l 1
 297 300 l 1
 297 288 l 2
 297 259 300 222 304 197 c 0
 316 125 348 72 399 40 c 0
 424 24 451 15 484 15 c 0
 498 15 513 16 529 19 c 0
 596 30 650 64 683 113 c 0
 691 124 700 143 703 153 c 0
 706 162 709 164 718 164 c 0
 725 164 725 164 728 161 c 0
 730 159 731 157 731 155 c 0
 731 153 730 150 729 146 c 0
 726 136 715 113 709 104 c 0
 674 48 608 7 529 -6 c 0
 507 -10 497 -10 471 -10 c 0
 443 -10 434 -9 411 -4 c 0
 385 2 355 16 333 29 c 0
 299 51 268 82 246 115 c 0
 211 168 190 226 190 292 c 0
 190 294 190 298 190 300 c 0
 190 355 201 406 227 456 c 0
 242 487 261 511 286 536 c 0
 314 563 344 581 380 595 c 0
 399 602 428 611 450 611 c 0xf4
489 589 m 0
 483 590 478 589 472 589 c 0
 449 589 428 583 409 574 c 0
 392 565 367 545 354 528 c 0
 318 484 298 428 298 341 c 1
 297 333 l 1
 469 333 l 1
 641 333 l 1
 641 349 l 1
 641 442 609 515 565 552 c 0
 540 572 518 584 489 589 c 0
EndSplineSet
Validated: 1
EndChar

StartChar: F
Encoding: 70 70 64
Width: 1007
Flags: HW
HStem: -199 22G<276 338> 111 73<342 748> 505 33<144 214> 582 25<531 654>
VStem: 250 92<-193 111 183 437 459 474> 729 109<461 522>
LayerCount: 2
Fore
SplineSet
256 603 m 0
 261 606 262 606 270 606 c 0
 286 606 299 601 309 592 c 0
 320 582 328 568 333 549 c 0
 335 540 335 539 336 499 c 2
 336 459 l 1
 341 464 l 2
 438 550 501 590 558 603 c 0
 568 605 573 605 596 606 c 0
 601 606 606 606 611 606 c 0
 656 606 698 602 728 594 c 0
 752 589 778 577 792 568 c 0
 818 551 836 522 838 492 c 0
 838 486 838 482 837 480 c 0
 836 477 746 402 742 400 c 0
 737 398 731 401 729 406 c 1
 729 408 728 418 728 428 c 0
 727 451 725 467 721 484 c 0
 706 544 670 576 604 582 c 0
 597 583 591 583 585 583 c 0
 567 583 550 579 531 572 c 0
 487 556 441 523 365 457 c 2
 342 437 l 1
 342 310 l 1
 342 183 l 1
 545 183 l 1
 748 183 l 1
 748 147 l 1
 748 111 l 1
 545 111 l 1
 342 111 l 1
 342 -41 l 1
 342 -193 l 1
 338 -196 l 1
 335 -199 l 1
 297 -199 l 2
 256 -199 255 -199 252 -194 c 0
 251 -192 250 -126 250 139 c 0
 250 438 249 469 248 474 c 0
 244 486 237 494 226 498 c 0
 215 502 190 505 160 505 c 2
 144 505 l 1
 144 521 l 1
 144 538 l 1
 155 538 l 2
 205 541 241 562 248 593 c 0
 250 599 250 599 256 603 c 0
EndSplineSet
Validated: 1
EndChar

StartChar: G
Encoding: 71 71 65
Width: 947
Flags: HW
HStem: -221 33<417 600> 522 73<148 430 531 791>
VStem: 240 67<286 400> 252 27<-46 28> 689 67<-101 21>
LayerCount: 2
Fore
SplineSet
148 559 m 1xe8
 148 595 l 1
 470 595 l 1
 791 595 l 1
 791 559 l 1
 791 522 l 1
 660 522 l 1
 531 522 l 1
 516 518 l 2
 485 510 451 497 422 485 c 0
 367 459 329 430 314 398 c 0
 309 386 306 372 306 358 c 0xe8
 306 330 317 300 336 275 c 0
 358 249 388 229 421 220 c 0
 425 219 464 211 507 202 c 0
 550 193 590 184 596 182 c 0
 624 174 653 158 677 141 c 0
 685 135 705 116 712 108 c 0
 729 86 744 59 750 33 c 0
 754 17 756 1 756 -14 c 0
 756 -42 749 -69 736 -96 c 0
 725 -120 713 -136 694 -155 c 0
 658 -189 612 -213 559 -221 c 0
 556 -221 553 -222 549 -222 c 0
 541 -222 530 -221 520 -221 c 0
 504 -221 488 -221 478 -221 c 0
 448 -221 423 -208 398 -199 c 0
 357 -183 332 -176 297 -171 c 0
 266 -166 253 -165 214 -165 c 0
 185 -165 177 -164 176 -163 c 1
 174 -162 168 -146 168 -143 c 0
 168 -139 170 -136 179 -130 c 0
 220 -96 252 -49 252 4 c 0
 252 10 252 16 252 19 c 0
 252 22 252 26 252 28 c 1
 254 31 260 33 265 33 c 0
 267 33 269 33 271 32 c 1
 277 29 279 26 279 17 c 0xd8
 279 -10 285 -42 295 -66 c 0
 320 -123 372 -164 442 -179 c 0
 468 -185 497 -188 522 -188 c 0
 534 -188 546 -187 555 -186 c 0
 575 -182 597 -175 613 -166 c 0
 660 -139 689 -95 689 -48 c 0
 689 -43 690 -39 689 -34 c 0
 684 10 652 49 607 72 c 0
 589 80 578 84 542 91 c 0
 524 95 487 104 458 109 c 0
 400 122 388 125 364 136 c 0
 316 160 280 195 260 239 c 0
 247 267 240 295 240 323 c 0
 240 337 242 352 246 365 c 0
 259 411 297 451 358 487 c 0
 373 496 402 510 418 517 c 2
 430 522 l 1
 290 522 l 1
 148 522 l 1
 148 559 l 1xe8
EndSplineSet
Validated: 1
EndChar

StartChar: H
Encoding: 72 72 66
Width: 958
Flags: HW
HStem: 0 22G<237 298 668 752> 582 24<472 612> 715 33<104 174>
VStem: 664 92<6 507>
LayerCount: 2
Fore
SplineSet
216 813 m 0
 221 816 222 816 230 816 c 0
 246 816 259 811 269 802 c 0
 280 792 288 778 293 759 c 2
 295 750 l 1
 296 604 l 1
 296 460 l 1
 318 481 l 2
 355 516 382 539 408 557 c 0
 443 582 475 598 505 604 c 0
 512 605 518 605 549 605 c 0
 596 605 623 603 652 596 c 0
 675 590 700 580 713 571 c 0
 732 558 747 538 753 515 c 2
 756 507 l 1
 756 256 l 1
 756 6 l 1
 752 3 l 1
 749 0 l 1
 710 0 l 1
 671 0 l 1
 668 3 l 1
 665 6 l 1
 664 257 l 1
 663 509 l 1
 660 517 l 2
 654 540 642 555 622 566 c 0
 605 574 585 580 557 582 c 0
 547 583 539 583 531 583 c 0
 504 583 487 578 462 565 c 0
 424 547 383 515 322 456 c 2
 302 437 l 1
 302 221 l 1
 302 6 l 1
 298 3 l 1
 295 0 l 1
 257 0 l 2
 216 0 215 0 212 5 c 0
 211 7 210 74 210 343 c 0
 210 648 209 679 208 684 c 0
 204 696 197 704 186 708 c 0
 175 712 150 715 120 715 c 2
 104 715 l 1
 104 731 l 1
 104 748 l 1
 115 748 l 2
 165 751 201 772 208 803 c 0
 210 809 210 809 216 813 c 0
EndSplineSet
Validated: 1
EndChar

StartChar: I
Encoding: 73 73 67
Width: 543
Flags: HW
HStem: 0 22G<276 338> 494 33<145 215> 574 20G<268 283>
VStem: 252 90<6 445>
LayerCount: 2
Fore
SplineSet
256 592 m 0
 261 595 262 595 273 595 c 0
 291 594 305 588 318 575 c 0
 329 563 339 542 341 524 c 0
 342 518 342 441 342 261 c 2
 342 6 l 1
 338 3 l 1
 335 0 l 1
 297 0 l 2
 256 0 255 0 252 5 c 0
 251 7 250 52 250 232 c 0
 249 480 250 461 243 473 c 0
 239 482 229 486 213 489 c 0
 202 491 179 494 161 494 c 2
 145 494 l 1
 145 510 l 1
 145 526 l 1
 157 526 l 2
 205 529 241 551 248 582 c 0
 250 588 250 588 256 592 c 0
EndSplineSet
Validated: 1
EndChar

StartChar: uni1E0A
Encoding: 74 7690 68
Width: 0
Flags: HW
HStem: -33 25<382 500> 603 24<384 498> 696 110<397 485>
VStem: 143 105<172 424> 386 110<708 795> 633 106<173 423>
LayerCount: 2
Fore
SplineSet
428 804 m 0
 433 805 437 806 442 806 c 0
 455 806 469 800 479 790 c 0
 490 780 496 766 496 752 c 0
 496 742 494 736 489 727 c 0
 483 713 469 699 454 696 c 0
 449 695 444 696 439 696 c 0
 426 696 412 703 402 713 c 0
 391 723 386 737 386 752 c 0
 386 761 387 766 392 775 c 0
 398 788 413 801 428 804 c 0
63 626 m 0
 66 628 71 629 72 629 c 0
 74 629 79 627 84 625 c 0
 115 611 150 603 191 603 c 0
 213 603 l 0
 243 603 261 607 330 616 c 0
 382 624 406 627 438 627 c 0
 470 627 491 623 518 615 c 0
 593 592 656 541 695 469 c 0
 718 429 731 386 737 336 c 0
 738 329 739 313 739 297 c 0
 739 282 738 266 737 259 c 0
 731 209 718 166 695 126 c 0
 673 86 644 52 608 25 c 0
 576 0 534 -19 497 -27 c 0
 479 -31 459 -33 441 -33 c 0
 414 -33 389 -28 364 -20 c 0
 289 3 225 54 186 126 c 0
 163 166 149 209 143 259 c 0
 143 261 143 265 143 269 c 0
 143 277 143 287 143 297 c 0
 143 308 143 318 143 326 c 0
 143 330 143 334 143 336 c 0
 150 395 169 445 199 492 c 0
 224 528 258 563 292 583 c 0
 296 586 300 589 299 589 c 0
 297 589 272 585 263 582 c 0
 233 574 211 561 153 523 c 0
 109 494 85 481 58 470 c 0
 52 468 48 466 45 466 c 0
 40 466 37 470 33 478 c 0
 31 482 29 484 29 487 c 0
 29 491 31 496 35 505 c 0
 47 535 56 568 56 603 c 0
 56 610 57 619 57 620 c 1
 58 622 60 624 63 626 c 0
465 603 m 0
 460 603 452 603 444 603 c 0
 437 603 430 604 424 604 c 0
 421 604 419 603 417 603 c 0
 378 597 341 573 312 539 c 0
 267 485 249 414 249 298 c 0
 249 181 267 110 312 56 c 0
 341 22 379 0 417 -7 c 0
 423 -8 432 -8 440 -8 c 0
 449 -8 459 -8 465 -7 c 0
 503 0 540 22 569 56 c 0
 614 110 633 181 633 298 c 0
 633 414 614 485 569 539 c 0
 540 573 503 596 465 603 c 0
EndSplineSet
Validated: 1
EndChar

StartChar: Cdotaccent
Encoding: 75 266 69
Width: 0
Flags: HW
HStem: -11 27<296 466> 585 28<293 435> 696 110<311 398>
VStem: 56 106<183 414>
LayerCount: 2
Fore
SplineSet
342 805 m 0
 345 806 349 806 353 806 c 0
 362 806 372 804 381 799 c 0
 393 793 406 777 409 764 c 0
 410 761 409 756 409 751 c 0
 409 746 410 741 409 738 c 0
 405 720 387 700 368 696 c 0
 363 695 358 696 353 696 c 0
 331 696 312 710 303 733 c 0
 301 739 301 742 301 752 c 0
 301 761 301 763 303 769 c 0
 310 787 325 800 342 805 c 0
326 611 m 0
 331 611 344 612 357 612 c 0
 377 612 401 610 412 610 c 0
 465 610 502 593 539 568 c 0
 559 555 572 544 597 519 c 0
 617 500 620 497 620 494 c 0
 620 493 619 489 618 489 c 1
 617 486 543 424 540 423 c 0
 537 422 532 423 529 426 c 1
 529 427 526 435 523 445 c 0
 499 521 472 559 426 575 c 0
 406 582 387 585 358 585 c 0
 334 585 326 584 309 579 c 0
 259 563 214 517 189 461 c 0
 171 417 163 362 163 297 c 0
 163 293 163 290 163 286 c 0
 163 232 171 191 186 153 c 0
 213 81 269 28 329 17 c 0
 336 16 347 15 359 15 c 0
 378 15 403 17 422 19 c 0
 493 27 538 55 594 125 c 0
 599 130 603 135 604 136 c 1
 608 138 612 137 617 134 c 1
 622 130 625 127 625 123 c 0
 625 121 624 119 622 116 c 0
 616 107 593 82 581 69 c 0
 539 28 499 6 445 -4 c 0
 422 -8 390 -11 360 -11 c 0
 342 -11 325 -10 313 -8 c 0
 189 10 92 103 63 228 c 0
 58 250 56 272 56 296 c 0
 56 327 61 358 70 389 c 0
 77 416 95 453 110 477 c 0
 160 553 238 601 326 611 c 0
EndSplineSet
Validated: 1
EndChar

StartChar: L
Encoding: 76 76 70
Width: 740
Flags: HW
HStem: 703 33<128 179>
VStem: 210 91<98 648> 568 27<73 133>
LayerCount: 2
Fore
SplineSet
215 801 m 1
 220 805 l 1
 231 805 l 2
 240 804 245 804 251 802 c 0
 274 794 289 775 297 744 c 2
 299 737 l 1
 300 421 l 1
 301 104 l 1
 303 94 l 2
 308 69 318 51 333 38 c 0
 349 22 369 12 398 7 c 0
 407 5 420 5 432 5 c 0
 444 5 456 5 464 7 c 0
 483 11 501 19 516 29 c 0
 526 36 543 53 550 63 c 0
 561 80 568 103 568 122 c 0
 568 126 568 128 571 130 c 0
 574 133 575 133 582 133 c 0
 589 133 589 133 592 130 c 0
 595 127 595 126 595 121 c 0
 595 113 593 97 590 87 c 0
 587 76 575 54 568 44 c 0
 554 25 537 10 512 -2 c 0
 483 -16 463 -22 430 -23 c 0
 426 -23 423 -23 419 -23 c 0
 344 -23 282 -3 246 32 c 0
 228 50 217 69 210 98 c 0
 209 104 209 130 208 388 c 0
 207 701 208 676 201 687 c 0
 194 698 175 703 140 703 c 2
 128 703 l 1
 128 720 l 1
 128 736 l 1
 132 736 l 2
 138 736 149 738 156 740 c 0
 182 748 200 767 206 790 c 0
 207 794 208 797 209 797 c 1
 215 801 l 1
EndSplineSet
Validated: 1
EndChar

StartChar: M
Encoding: 77 77 71
Width: 1222
Flags: HW
HStem: 0 22G<275 335 616 676 957 1017> 505 33<144 214> 583 23<470 513 513 522 517 557 811 853 853 863 858 898>
VStem: 252 87<6 438 471 496> 593 87<6 438 471 525> 934 87<6 511>
CounterMasks: 1 1c
LayerCount: 2
Fore
SplineSet
256 603 m 0
 261 606 262 606 273 606 c 0
 290 605 300 601 311 591 c 0
 320 583 329 569 334 555 c 0
 338 542 339 532 339 501 c 2
 339 471 l 1
 352 487 l 2
 409 558 450 592 489 603 c 0
 496 605 498 605 523 605 c 0
 558 605 582 602 605 594 c 0
 635 584 656 569 667 546 c 0
 676 529 680 511 680 486 c 2
 680 471 l 1
 693 487 l 2
 750 558 791 592 830 603 c 0
 837 605 839 605 864 605 c 0
 891 605 904 604 924 600 c 0
 947 596 969 586 984 575 c 0
 997 564 1010 546 1015 528 c 0
 1021 509 1021 524 1021 254 c 2
 1021 6 l 1
 1017 3 l 1
 1014 0 l 1
 977 0 l 2
 938 0 937 0 934 5 c 0
 933 7 932 58 932 262 c 2
 931 516 l 1
 929 525 l 2
 926 537 924 545 918 553 c 0
 906 572 886 581 854 583 c 0
 843 583 840 583 833 581 c 0
 799 573 758 537 698 462 c 2
 680 438 l 1
 680 222 l 1
 680 6 l 1
 676 3 l 1
 673 0 l 1
 636 0 l 2
 597 0 596 0 593 5 c 0
 592 7 591 58 591 262 c 2
 590 516 l 1
 588 525 l 2
 585 537 583 545 577 553 c 0
 565 572 545 581 513 583 c 0
 502 583 499 583 492 581 c 0
 458 573 417 537 357 462 c 2
 339 438 l 1
 339 222 l 1
 339 6 l 1
 335 3 l 1
 332 0 l 1
 295 0 l 2
 256 0 255 0 252 5 c 0
 251 7 250 54 250 239 c 0
 249 492 250 472 243 484 c 0
 239 493 229 498 213 501 c 0
 202 503 179 505 160 505 c 2
 144 505 l 1
 144 521 l 1
 144 538 l 1
 155 538 l 2
 205 541 241 562 248 593 c 0
 250 599 250 599 256 603 c 0
EndSplineSet
Validated: 1
EndChar

StartChar: N
Encoding: 78 78 72
Width: 998
Flags: HW
HStem: 0 22G<276 338 708 792> 505 33<144 214> 582 24<512 652>
VStem: 250 92<6 437 460 497> 703 92<6 507>
LayerCount: 2
Fore
SplineSet
256 603 m 0
 261 606 262 606 270 606 c 0
 286 606 299 601 309 592 c 0
 320 582 328 568 333 549 c 0
 335 540 335 539 336 500 c 2
 336 460 l 1
 358 481 l 2
 395 516 421 539 447 557 c 0
 482 582 515 598 545 604 c 0
 552 605 558 605 589 605 c 0
 636 605 663 603 692 596 c 0
 715 590 740 580 753 571 c 0
 772 558 787 538 793 515 c 2
 796 507 l 1
 796 256 l 1
 796 6 l 1
 792 3 l 1
 788 0 l 1
 750 0 l 1
 711 0 l 1
 708 3 l 1
 705 6 l 1
 703 257 l 1
 702 509 l 1
 700 517 l 2
 694 540 682 555 662 566 c 0
 645 574 625 580 597 582 c 0
 587 583 579 583 571 583 c 0
 544 583 527 578 502 565 c 0
 464 547 422 515 361 456 c 2
 342 437 l 1
 342 221 l 1
 342 6 l 1
 338 3 l 1
 335 0 l 1
 297 0 l 2
 256 0 255 0 252 5 c 0
 251 7 250 54 250 239 c 0
 249 492 250 472 243 484 c 0
 239 493 229 498 213 501 c 0
 202 503 179 505 160 505 c 2
 144 505 l 1
 144 521 l 1
 144 538 l 1
 155 538 l 2
 205 541 241 562 248 593 c 0
 250 599 250 599 256 603 c 0
EndSplineSet
Validated: 1
EndChar

StartChar: O
Encoding: 79 79 73
Width: 993
Flags: HW
HStem: -22 27<440 565>
VStem: 191 104<173 419> 709 104<176 419>
LayerCount: 2
Fore
SplineSet
475 616 m 0
 480 616 492 617 501 617 c 0
 502 617 502 617 503 617 c 0
 619 617 726 550 780 442 c 0
 797 407 807 376 813 336 c 0
 814 326 815 310 815 295 c 0
 815 280 814 264 813 255 c 0
 809 226 803 202 793 178 c 0
 755 80 669 8 569 -15 c 0
 544 -20 532 -22 503 -22 c 0
 473 -22 460 -20 436 -15 c 0
 377 -2 323 28 280 72 c 0
 232 122 201 183 191 255 c 0
 190 264 190 280 190 295 c 0
 190 310 190 326 191 336 c 0
 197 376 207 407 224 442 c 0
 273 540 369 606 475 616 c 0
520 590 m 0
 514 591 508 591 502 591 c 0
 455 591 408 571 371 535 c 0
 322 485 296 408 296 309 c 0
 296 221 312 152 345 100 c 0
 382 41 442 5 503 5 c 0
 556 5 611 34 647 82 c 0
 689 138 709 211 709 309 c 0
 709 408 683 485 634 535 c 0
 602 566 563 585 520 590 c 0
EndSplineSet
Validated: 1
EndChar

StartChar: P
Encoding: 80 80 74
Width: 1036
Flags: HW
HStem: -199 22G<278 339> -13 24<549 638> 494 33<145 215> 580 27<472 598>
VStem: 251 89<-190 388> 469 27<112 177> 752 106<172 409>
LayerCount: 2
Fore
SplineSet
525 604 m 0
 526 604 528 605 530 605 c 0
 534 605 540 604 546 604 c 0
 554 604 563 604 569 604 c 0
 595 604 622 597 646 589 c 0
 679 578 713 560 740 538 c 0
 755 526 784 497 795 482 c 0
 824 444 842 402 851 358 c 0
 855 336 858 315 858 292 c 0
 858 249 849 204 833 163 c 0
 824 138 803 106 786 84 c 0
 777 72 754 50 743 41 c 0
 699 6 645 -13 595 -13 c 0
 593 -13 590 -13 588 -13 c 0
 563 -13 544 -6 524 8 c 0
 499 24 481 31 453 31 c 0
 438 31 427 30 412 24 c 0
 406 22 401 20 398 20 c 0
 393 20 391 25 387 36 c 0
 385 43 385 43 387 46 c 1
 388 49 391 51 399 54 c 1
 429 70 453 96 463 128 c 0
 466 138 469 154 469 162 c 0
 469 174 472 177 483 177 c 0
 488 177 490 177 493 174 c 0
 495 172 496 170 496 167 c 0
 496 164 497 154 497 145 c 0
 497 90 512 56 534 34 c 0
 547 21 561 14 579 11 c 0
 583 10 588 10 592 10 c 0
 621 10 646 22 670 46 c 0
 700 76 725 125 738 179 c 0
 746 214 752 253 752 292 c 0
 752 312 750 332 748 351 c 0
 733 457 668 545 587 571 c 0
 571 576 553 580 536 580 c 0
 503 580 470 569 442 551 c 0
 392 518 356 461 344 395 c 0
 343 389 343 379 343 365 c 0
 343 348 343 342 341 340 c 1
 341 339 340 333 340 310 c 0
 340 277 342 212 342 75 c 0
 342 -68 343 -188 343 -190 c 1
 342 -192 341 -195 339 -196 c 1
 336 -199 l 1
 298 -199 l 2
 257 -199 254 -199 251 -194 c 0
 251 -193 250 -185 250 -166 c 0
 250 -127 251 -41 251 133 c 0
 251 330 251 409 251 441 c 0
 251 457 251 461 251 463 c 0
 247 475 238 482 227 486 c 0
 216 490 191 494 161 494 c 2
 145 494 l 1
 145 510 l 1
 145 526 l 1
 156 526 l 1
 206 526 242 549 249 580 c 0
 251 586 251 588 258 592 c 0
 263 595 263 595 274 595 c 0
 291 595 301 590 312 580 c 0
 325 569 335 548 338 529 c 2
 340 521 l 1
 340 534 l 2
 340 536 340 536 340 536 c 0
 340 536 341 526 341 509 c 2
 341 471 l 1
 348 483 l 2
 377 535 419 573 469 592 c 0
 482 597 501 602 514 604 c 0
 518 605 524 604 525 604 c 0
EndSplineSet
Validated: 1
EndChar

StartChar: uni1E1E
Encoding: 81 7710 75
Width: 753
Flags: HW
HStem: -199 22G<137 199> 111 73<203 608> 505 33<5 75> 582 25<391 514>
VStem: 111 92<-193 111 183 437 459 474> 590 109<461 522>
LayerCount: 2
Fore
SplineSet
437 804 m 0
 440 805 445 806 450 806 c 0
 457 806 464 805 469 803 c 0
 488 796 502 778 505 759 c 0
 505 756 505 754 505 751 c 0
 505 728 490 706 468 699 c 0
 463 697 457 697 450 697 c 0
 443 697 437 697 433 699 c 0
 416 705 404 717 398 734 c 0
 396 738 396 745 396 751 c 0
 396 757 396 763 398 767 c 0
 404 786 418 799 437 804 c 0
117 603 m 0
 122 606 123 606 131 606 c 0
 147 606 160 601 170 592 c 0
 181 582 189 568 194 549 c 0
 196 540 196 539 197 499 c 2
 197 459 l 1
 202 464 l 2
 299 550 362 590 419 603 c 0
 429 605 434 605 457 606 c 0
 462 606 467 606 472 606 c 0
 517 606 559 602 589 594 c 0
 613 589 638 577 652 568 c 0
 678 551 696 522 698 492 c 0
 698 486 698 482 697 480 c 0
 696 477 607 402 603 400 c 0
 598 398 592 401 590 406 c 1
 590 408 589 418 589 428 c 0
 588 451 586 467 582 484 c 0
 567 544 531 576 465 582 c 0
 458 583 452 583 446 583 c 0
 428 583 411 579 392 572 c 0
 348 556 301 523 225 457 c 2
 203 437 l 1
 203 310 l 1
 203 183 l 1
 406 183 l 1
 608 183 l 1
 608 147 l 1
 608 111 l 1
 406 111 l 1
 203 111 l 1
 203 -41 l 1
 203 -193 l 1
 199 -196 l 1
 196 -199 l 1
 158 -199 l 2
 117 -199 116 -199 113 -194 c 0
 112 -192 111 -126 111 139 c 0
 111 438 110 469 109 474 c 0
 105 486 98 494 87 498 c 0
 76 502 50 505 20 505 c 2
 5 505 l 1
 5 521 l 1
 5 538 l 1
 15 538 l 2
 65 541 102 562 109 593 c 0
 111 599 111 599 117 603 c 0
EndSplineSet
Validated: 1
EndChar

StartChar: R
Encoding: 82 82 76
Width: 1003
Flags: HW
HStem: -23 24<784 833> 273 25<438 526> 494 33<144 214> 579 28<405 550>
VStem: 252 87<6 485> 637 106<50 197 395 522> 847 27<13 50>
LayerCount: 2
Fore
SplineSet
451 604 m 0
 453 604 455 605 457 605 c 0
 462 605 468 604 474 604 c 0
 488 604 503 606 518 606 c 0
 526 606 534 605 541 604 c 0
 635 593 714 550 736 502 c 0
 741 491 743 481 743 467 c 0
 743 445 739 429 727 406 c 0
 719 390 709 376 695 361 c 0
 666 333 630 312 584 296 c 0
 576 293 572 292 572 291 c 0
 572 290 577 290 585 288 c 0
 620 282 649 270 673 255 c 0
 680 251 687 245 695 237 c 0
 708 224 716 213 722 198 c 0
 726 188 727 186 745 117 c 0
 758 69 766 48 772 34 c 0
 779 16 790 2 798 0 c 0
 799 0 800 0 800 0 c 0
 810 0 826 6 834 12 c 0
 841 18 847 30 847 38 c 0
 847 45 852 50 860 50 c 0
 868 50 873 46 873 37 c 0
 873 29 869 9 854 -3 c 0
 841 -15 820 -23 798 -23 c 0
 768 -23 739 -16 715 -5 c 0
 682 9 659 35 649 69 c 0
 644 82 640 91 640 134 c 0
 640 180 636 187 632 197 c 0
 625 219 607 237 580 250 c 0
 551 263 510 273 464 273 c 0
 451 273 444 273 441 273 c 0
 439 273 439 273 438 273 c 0
 435 275 433 280 433 285 c 0
 433 287 433 289 434 291 c 0
 436 297 440 298 458 298 c 0
 511 298 555 316 589 345 c 0
 620 372 637 415 637 465 c 0
 637 480 635 491 630 501 c 0
 614 534 574 561 526 572 c 0
 506 577 492 579 468 579 c 0
 456 579 451 579 445 579 c 0
 442 579 439 580 436 579 c 0
 418 575 402 566 386 555 c 0
 374 547 354 527 346 515 c 2
 340 506 l 1
 340 256 l 1
 340 6 l 1
 335 3 l 1
 332 0 l 1
 295 0 l 2
 256 0 255 0 252 5 c 0
 252 6 251 11 251 25 c 0
 251 52 252 112 252 232 c 0
 252 480 250 461 243 473 c 0
 239 482 229 486 213 489 c 0
 202 491 179 494 160 494 c 2
 144 494 l 1
 144 510 l 1
 144 526 l 1
 155 526 l 1
 205 526 241 551 248 582 c 0
 250 588 250 588 257 592 c 0
 262 595 262 595 273 595 c 0
 290 595 300 589 311 579 c 0
 324 568 334 549 337 529 c 2
 339 521 l 1
 339 535 l 1
 339 548 l 1
 348 557 l 2
 361 569 375 579 391 587 c 0
 410 596 431 601 451 604 c 0
EndSplineSet
Validated: 1
EndChar

StartChar: S
Encoding: 83 83 77
Width: 890
Flags: HW
HStem: -23 33<380 533> 588 29<367 511>
VStem: 195 108<427 528> 252 27<105 177> 600 105<73 221> 623 27<421 479>
LayerCount: 2
Fore
SplineSet
392 616 m 0xe8
 396 616 404 616 412 616 c 0
 430 616 454 615 464 615 c 0
 496 615 519 603 549 588 c 0
 583 571 598 565 629 565 c 0
 645 565 649 565 660 567 c 0
 667 568 677 570 682 572 c 1
 687 573 690 574 693 574 c 0
 695 574 697 573 698 572 c 1
 700 571 707 556 707 553 c 0
 707 550 703 546 699 542 c 0
 689 533 674 512 666 497 c 0
 656 478 649 452 649 430 c 0
 649 425 649 424 646 421 c 0
 643 418 643 418 636 418 c 0
 630 418 629 418 626 421 c 0
 624 423 623 425 623 430 c 1xe4
 619 458 608 488 594 510 c 0
 560 559 508 588 433 588 c 0
 416 588 404 587 392 584 c 0
 352 574 318 540 307 500 c 0
 302 485 302 478 302 462 c 0
 302 443 303 432 308 418 c 0
 321 381 350 352 386 341 c 0
 390 339 428 331 470 322 c 0
 552 306 564 302 581 296 c 0
 615 284 640 267 662 247 c 0
 684 227 696 204 703 176 c 0
 705 167 706 162 706 148 c 0
 706 144 706 141 706 138 c 0
 706 127 704 119 699 106 c 0
 680 44 613 -4 529 -18 c 0
 514 -21 496 -23 478 -23 c 0
 455 -23 433 -20 413 -16 c 0
 387 -11 370 -5 344 7 c 0
 334 12 321 17 316 19 c 0
 300 25 281 29 263 29 c 0
 259 29 256 28 252 28 c 0
 241 28 233 26 214 22 c 0
 212 22 210 21 208 21 c 0
 202 21 199 24 195 34 c 0
 194 38 195 40 195 42 c 0xe8
 195 46 197 49 203 53 c 0
 215 65 231 87 238 102 c 0
 246 120 252 146 252 164 c 0
 252 174 256 177 266 177 c 0
 271 177 273 177 275 174 c 1
 278 172 279 171 279 159 c 0xd0
 279 136 285 117 292 100 c 0
 319 45 380 10 466 10 c 0
 483 10 495 11 507 14 c 0
 536 21 563 43 581 73 c 0
 594 95 600 120 600 147 c 0
 600 165 597 185 591 202 c 0
 577 238 548 268 514 279 c 0
 511 280 471 288 427 298 c 0
 327 318 318 321 287 336 c 0
 255 351 231 370 216 393 c 0
 211 401 202 419 200 427 c 0
 197 438 195 450 195 461 c 0
 195 490 205 517 227 542 c 0
 261 582 324 616 392 616 c 0xe8
EndSplineSet
Validated: 1
EndChar

StartChar: T
Encoding: 84 84 78
Width: 982
Flags: HW
HStem: 522 73<161 391 436 831>
VStem: 219 104<161 377>
LayerCount: 2
Fore
SplineSet
161 559 m 1
 161 595 l 1
 497 595 l 1
 831 595 l 1
 831 559 l 1
 831 522 l 1
 672 522 l 2
 567 522 510 522 503 521 c 0
 447 515 398 484 365 435 c 0
 339 396 326 347 324 282 c 0
 324 277 323 272 323 268 c 0
 323 205 336 152 362 111 c 0
 392 62 440 27 493 17 c 0
 501 16 512 16 524 16 c 0
 553 16 588 19 611 25 c 0
 645 33 668 47 694 73 c 0
 709 88 720 101 736 125 c 0
 742 133 748 141 749 142 c 1
 753 144 757 143 762 140 c 0
 767 136 769 135 769 131 c 0
 769 127 766 121 758 110 c 0
 712 41 670 10 609 -3 c 0
 586 -8 556 -11 527 -11 c 0
 506 -11 486 -10 469 -7 c 0
 407 3 351 30 306 71 c 0
 280 95 260 121 245 154 c 0
 232 180 224 204 219 233 c 0
 218 241 218 255 218 269 c 0
 218 283 218 296 219 305 c 0
 224 333 232 358 245 385 c 0
 264 425 292 457 329 485 c 0
 344 497 355 504 375 514 c 2
 391 522 l 1
 275 522 l 1
 161 522 l 1
 161 559 l 1
EndSplineSet
Validated: 1
EndChar

StartChar: U
Encoding: 85 85 79
Width: 993
Flags: HW
HStem: -10 23<426 565> 505 33<140 210 594 664> 586 20G<264 279 717 733>
VStem: 251 91<92 158 158 356> 697 94<-5 145 145 215 215 472>
LayerCount: 2
Fore
SplineSet
252 603 m 0
 257 606 258 606 269 606 c 0
 287 605 301 600 314 587 c 0
 324 575 334 555 337 537 c 0
 338 531 338 474 338 356 c 0
 338 184 338 162 342 137 c 0
 347 96 359 69 379 50 c 0
 405 26 442 14 493 12 c 0
 495 12 497 12 499 12 c 0
 538 12 569 21 600 41 c 0
 653 77 687 138 697 215 c 0
 698 222 699 285 699 346 c 0
 699 407 698 468 697 472 c 0
 695 480 690 490 686 493 c 0
 675 501 649 505 609 505 c 2
 594 505 l 1
 594 521 l 1
 594 538 l 1
 604 538 l 2
 654 541 690 562 697 593 c 0
 699 599 700 599 707 603 c 0
 712 606 712 606 723 606 c 0
 742 605 755 600 768 587 c 0
 779 575 789 554 791 536 c 0
 792 530 792 448 792 261 c 2
 792 -5 l 1
 787 -8 l 1
 784 -11 l 1
 746 -11 l 1
 710 -11 l 1
 707 -8 l 1
 703 -5 l 1
 702 70 l 1
 702 145 l 1
 697 133 l 2
 683 98 664 70 639 45 c 0
 622 29 609 19 587 8 c 0
 558 -6 532 -11 494 -11 c 0
 485 -11 475 -11 464 -10 c 0
 397 -6 348 11 311 43 c 0
 280 69 259 110 251 158 c 0
 247 183 247 181 246 328 c 0
 245 483 246 472 239 484 c 0
 235 493 225 498 209 501 c 0
 198 503 175 505 156 505 c 2
 140 505 l 1
 140 521 l 1
 140 538 l 1
 151 538 l 2
 201 541 237 562 244 593 c 0
 246 599 246 599 252 603 c 0
EndSplineSet
Validated: 1
EndChar

StartChar: uni1E02
Encoding: 86 7682 80
Width: 0
Flags: HW
HStem: -11 24<334 453> 582 25<359 475> 696 110<382 469> 703 33<5 75>
VStem: 111 92<210 413 469 670> 371 110<708 795> 584 106<181 423>
LayerCount: 2
Fore
SplineSet
371 752 m 0xee
 371 783 396 806 426 806 c 0
 459 806 480 778 480 752 c 0
 480 726 459 696 425 696 c 0
 398 696 371 717 371 752 c 0xee
690 300 m 0
 690 116 548 -11 397 -11 c 0
 262 -11 141 72 114 210 c 2
 111 223 l 1
 111 445 l 1
 111 511 111 559 111 594 c 0
 111 691 107 693 74 699 c 0
 63 701 39 703 20 703 c 2
 5 703 l 1
 5 736 l 1
 16 736 l 1xde
 65 736 104 761 111 792 c 0
 115 805 123 805 131 805 c 0
 132 805 133 805 134 805 c 0
 178 805 197 768 202 735 c 0
 203 729 203 685 203 598 c 2
 203 469 l 1
 211 480 l 2
 260 555 340 604 426 604 c 0
 562 604 690 477 690 300 c 0
584 302 m 0
 584 407 567 550 449 582 c 1
 447 582 443 582 440 582 c 0
 433 582 425 582 417 582 c 0
 381 582 275 560 209 426 c 2
 203 413 l 1
 203 313 l 1
 203 299 203 286 203 271 c 0
 203 190 209 97 296 42 c 0
 326 24 361 12 395 12 c 0
 492 12 543 95 557 130 c 0
 576 173 584 224 584 302 c 0
EndSplineSet
Validated: 1
EndChar

StartChar: uni1E40
Encoding: 87 7744 81
Width: 0
Flags: HW
HStem: 0 22G<136 200 477 541 818 882> 505 33<5 75> 583 23<330 416 671 758> 696 110<453 539>
VStem: 113 87<6 438 471 496> 441 110<707 794> 454 87<6 438 471 559> 795 87<6 511>
LayerCount: 2
Fore
SplineSet
441 752 m 0xfd
 441 782 467 806 498 806 c 0
 522 806 551 786 551 752 c 0
 551 719 524 696 498 696 c 0
 468 696 441 719 441 752 c 0xfd
200 6 m 1
 193 0 l 1
 156 0 l 2
 117 0 116 0 113 5 c 0
 113 6 112 11 112 25 c 0
 112 53 113 115 113 239 c 0
 113 300 113 345 113 380 c 0
 113 493 109 495 74 501 c 0
 63 503 39 505 20 505 c 2
 5 505 l 1
 5 538 l 1
 15 538 l 1
 65 538 102 564 109 595 c 0
 112 603 117 605 123 605 c 0
 127 605 131 604 134 604 c 0
 160 604 182 592 195 555 c 0
 199 542 200 532 200 501 c 2
 200 471 l 1
 213 487 l 2
 307 603 345 604 382 604 c 0
 384 604 l 0
 468 604 541 581 541 486 c 2
 541 471 l 1
 554 487 l 2
 648 603 686 604 723 604 c 0
 725 604 l 0
 781 604 858 595 876 528 c 0
 882 509 882 524 882 254 c 2
 882 6 l 1
 874 0 l 1
 838 0 l 2
 799 0 798 0 795 5 c 0
 794 7 792 58 792 262 c 2
 792 516 l 1
 785 548 776 583 715 583 c 0
 712 583 l 0
 689 583 655 581 559 462 c 2
 541 438 l 1
 541 6 l 1
 534 0 l 1
 497 0 l 2
 458 0 457 0 454 5 c 0xfb
 453 7 451 58 451 262 c 2
 451 516 l 1
 444 548 435 583 374 583 c 0
 371 583 l 0
 348 583 314 581 218 462 c 2
 200 438 l 1
 200 6 l 1
EndSplineSet
Validated: 1
EndChar

StartChar: uni1E6A
Encoding: 88 7786 82
Width: 768
Flags: HW
HStem: 522 73<51 282 326 722>
VStem: 110 104<161 377>
LayerCount: 2
Fore
SplineSet
399 804 m 0
 403 805 409 806 413 806 c 0
 436 800 l 0
 448 794 458 783 464 769 c 0
 466 763 466 761 466 752 c 0
 466 742 466 739 464 733 c 0
 460 724 453 715 447 710 c 0
 437 701 425 696 412 696 c 0
 398 696 385 702 375 712 c 0
 363 723 357 736 357 752 c 0
 357 759 358 763 359 767 c 0
 365 785 381 800 399 804 c 0
51 559 m 1
 51 595 l 1
 387 595 l 1
 722 595 l 1
 722 559 l 1
 722 522 l 1
 562 522 l 2
 457 522 400 522 393 521 c 0
 337 515 288 484 255 435 c 0
 229 396 216 347 214 282 c 0
 214 277 214 272 214 268 c 0
 214 205 227 152 253 111 c 0
 283 62 330 27 383 17 c 0
 391 16 402 16 414 16 c 0
 443 16 479 19 502 25 c 0
 536 33 559 47 585 73 c 0
 600 88 611 101 627 125 c 0
 633 133 638 141 639 142 c 1
 643 144 647 143 652 140 c 0
 657 136 660 135 660 131 c 0
 660 127 656 121 648 110 c 0
 602 41 561 10 500 -3 c 0
 477 -8 446 -11 417 -11 c 0
 396 -11 376 -10 359 -7 c 0
 297 3 242 30 197 71 c 0
 171 95 150 121 135 154 c 0
 122 180 115 204 110 233 c 0
 109 241 108 255 108 269 c 0
 108 283 109 296 110 305 c 0
 115 333 122 358 135 385 c 0
 154 425 182 457 219 485 c 0
 234 497 245 504 265 514 c 2
 282 522 l 1
 166 522 l 1
 51 522 l 1
 51 559 l 1
EndSplineSet
Validated: 1
EndChar

StartChar: Gdotaccent
Encoding: 89 288 83
Width: 0
Flags: HW
HStem: -221 33<320 503> 522 73<51 333 434 693> 696 110<329 416>
VStem: 142 67<286 400> 155 27<-46 28> 317 110<708 795> 592 67<-101 21>
LayerCount: 2
Fore
SplineSet
359 804 m 0xe6
 364 805 369 806 374 806 c 0
 387 806 401 800 411 790 c 0
 422 780 427 766 427 752 c 0
 427 737 422 723 411 713 c 0
 401 703 387 696 374 696 c 0
 369 696 364 695 359 696 c 0
 344 699 330 713 324 727 c 0
 319 736 317 742 317 752 c 0
 317 761 319 766 324 775 c 0
 330 788 344 801 359 804 c 0xe6
51 559 m 1
 51 595 l 1
 373 595 l 1
 693 595 l 1
 693 559 l 1
 693 522 l 1
 563 522 l 1
 434 522 l 1
 419 518 l 2
 388 510 354 497 325 485 c 0
 270 459 232 430 217 398 c 0
 212 386 209 372 209 358 c 0xf6
 209 330 220 300 239 275 c 0
 261 249 291 229 324 220 c 0
 328 219 367 211 410 202 c 0
 453 193 493 184 499 182 c 0
 527 174 556 158 580 141 c 0
 588 135 607 116 614 108 c 0
 631 86 646 59 652 33 c 0
 656 17 658 1 658 -14 c 0
 658 -42 652 -69 639 -96 c 0
 628 -120 616 -136 597 -155 c 0
 561 -189 515 -213 462 -221 c 0
 459 -221 456 -222 452 -222 c 0
 444 -222 433 -221 423 -221 c 0
 407 -221 391 -221 381 -221 c 0
 351 -221 326 -208 301 -199 c 0
 260 -183 235 -176 200 -171 c 0
 169 -166 156 -165 117 -165 c 0
 88 -165 80 -164 79 -163 c 1
 77 -162 71 -146 71 -143 c 0
 71 -139 73 -136 82 -130 c 0
 123 -96 155 -49 155 4 c 0
 155 10 155 16 155 19 c 0
 155 22 155 26 155 28 c 1
 157 31 162 33 167 33 c 0
 169 33 172 33 174 32 c 1
 180 29 181 26 181 17 c 0xee
 181 -10 188 -42 198 -66 c 0
 223 -123 275 -164 345 -179 c 0
 371 -185 400 -188 425 -188 c 0
 437 -188 449 -187 458 -186 c 0
 478 -182 500 -175 516 -166 c 0
 563 -139 592 -95 592 -48 c 0
 592 -43 593 -39 592 -34 c 0
 587 10 555 49 510 72 c 0
 492 80 480 84 444 91 c 0
 426 95 389 104 360 109 c 0
 302 122 290 125 266 136 c 0
 218 160 183 195 163 239 c 0
 150 267 142 295 142 323 c 0xf6
 142 337 144 352 148 365 c 0
 161 411 200 451 261 487 c 0
 276 496 305 510 321 517 c 2
 333 522 l 1
 193 522 l 1
 51 522 l 1
 51 559 l 1
EndSplineSet
Validated: 1
EndChar

StartChar: uni1E60
Encoding: 90 7776 84
Width: 0
Flags: HW
HStem: -23 33<242 395> 588 29<229 372>
VStem: 56 108<427 528> 114 27<105 177> 462 105<73 221> 484 27<421 479>
LayerCount: 2
Fore
SplineSet
271 804 m 0xc0
 275 805 281 806 285 806 c 0
 308 800 l 0
 320 794 330 783 336 769 c 0
 338 763 338 761 338 752 c 0
 338 742 338 739 336 733 c 0
 327 709 307 696 285 696 c 0
 276 696 266 698 258 703 c 0
 246 709 233 725 230 738 c 0
 229 741 230 746 230 751 c 0
 230 756 229 761 230 764 c 0
 234 782 252 800 271 804 c 0xc0
254 616 m 0
 258 616 265 616 273 616 c 0
 291 616 316 615 326 615 c 0
 358 615 381 603 411 588 c 0
 445 571 459 565 490 565 c 0
 506 565 511 565 522 567 c 0
 529 568 539 570 544 572 c 1
 549 573 552 574 555 574 c 0
 557 574 559 573 560 572 c 1
 562 571 568 556 568 553 c 0
 568 550 565 546 561 542 c 0
 551 533 535 512 527 497 c 0
 517 478 511 452 511 430 c 0
 511 425 511 424 508 421 c 0
 505 418 505 418 498 418 c 0
 492 418 490 418 487 421 c 0
 485 423 484 425 484 430 c 1xe4
 480 458 470 488 456 510 c 0
 422 559 370 588 295 588 c 0
 278 588 266 587 254 584 c 0
 214 574 180 540 169 500 c 0
 164 485 164 478 164 462 c 0
 164 443 165 432 170 418 c 0
 183 381 212 352 248 341 c 0
 252 339 290 331 332 322 c 0
 414 306 425 302 442 296 c 0
 476 284 501 267 523 247 c 0
 545 227 558 204 565 176 c 0
 567 167 567 162 567 148 c 0
 567 144 567 141 567 138 c 0
 567 127 566 119 561 106 c 0
 542 44 475 -4 391 -18 c 0
 376 -21 358 -23 340 -23 c 0
 317 -23 294 -20 274 -16 c 0
 248 -11 232 -5 206 7 c 0
 196 12 183 17 178 19 c 0
 162 25 143 29 125 29 c 0
 121 29 118 28 114 28 c 0
 103 28 95 26 76 22 c 0
 74 22 71 21 69 21 c 0
 63 21 60 24 56 34 c 0
 55 38 56 40 56 42 c 0xe8
 56 46 59 49 65 53 c 0
 77 65 92 87 99 102 c 0
 107 120 114 146 114 164 c 0
 114 174 118 177 128 177 c 0
 133 177 135 177 137 174 c 1
 140 172 140 171 140 159 c 0xd0
 140 136 147 117 154 100 c 0
 181 45 242 10 328 10 c 0
 345 10 357 11 369 14 c 0
 398 21 424 43 442 73 c 0
 455 95 462 120 462 147 c 0
 462 165 459 185 453 202 c 0
 439 238 410 268 376 279 c 0
 373 280 333 288 289 298 c 0
 189 318 179 321 148 336 c 0
 116 351 93 370 78 393 c 0
 73 401 63 419 61 427 c 0
 58 438 56 450 56 461 c 0xe8
 56 490 67 517 89 542 c 0
 123 582 186 616 254 616 c 0
EndSplineSet
Validated: 1
EndChar

StartChar: bracketleft
Encoding: 91 91 85
Width: 284
Flags: HW
HStem: -256 41<162 261> 727 41<162 261>
VStem: 121 140<-256 -215 727 768> 121 41<-215 727>
LayerCount: 2
Fore
SplineSet
121 256 m 1xd0
 121 768 l 1
 191 768 l 1
 261 768 l 1
 261 748 l 1
 261 727 l 1xe0
 212 727 l 1
 162 727 l 1
 162 256 l 1
 162 -215 l 1xd0
 212 -215 l 1
 261 -215 l 1
 261 -236 l 1
 261 -256 l 1
 191 -256 l 1
 121 -256 l 1xe0
 121 256 l 1xd0
EndSplineSet
Validated: 1
EndChar

StartChar: backslash
Encoding: 92 92 86
Width: 0
Flags: HW
LayerCount: 2
Fore
SplineSet
427 -255 m 1
 423 -253 419 -250 417 -246 c 0
 417 -246 334 -20 236 250 c 0
 71 705 57 743 57 749 c 0
 57 754 57 755 60 759 c 0
 61 761 66 764 68 766 c 1
 71 767 74 768 77 768 c 0
 84 768 90 764 94 758 c 0
 94 758 177 532 275 262 c 0
 402 -87 455 -232 455 -236 c 0
 455 -246 446 -256 435 -256 c 0
 432 -256 428 -256 427 -255 c 1
EndSplineSet
Validated: 1
EndChar

StartChar: bracketright
Encoding: 93 93 87
Width: 284
Flags: HW
HStem: -256 41<23 122> 727 41<23 122>
VStem: 23 140<-256 -215 727 768> 122 41<-215 727>
LayerCount: 2
Fore
SplineSet
23 748 m 1xe0
 23 768 l 1
 93 768 l 1
 163 768 l 1xe0
 163 256 l 1xd0
 163 -256 l 1
 93 -256 l 1
 23 -256 l 1
 23 -236 l 1
 23 -215 l 1xe0
 73 -215 l 1
 122 -215 l 1
 122 256 l 1
 122 727 l 1xd0
 73 727 l 1
 23 727 l 1
 23 748 l 1xe0
EndSplineSet
Validated: 1
EndChar

StartChar: asciicircum
Encoding: 94 94 88
Width: 0
Flags: HW
HStem: 499 104
VStem: 122 266
LayerCount: 2
Fore
SplineSet
189 563 m 0
 224 585 255 604 256 604 c 0
 259 603 388 522 388 521 c 0
 388 518 379 501 377 499 c 1
 375 499 347 509 316 523 c 1
 282 537 256 549 255 549 c 0
 253 548 227 536 194 523 c 1
 164 509 136 499 134 499 c 0
 132 500 122 520 122 521 c 1
 123 521 152 539 189 563 c 0
EndSplineSet
Validated: 1
EndChar

StartChar: underscore
Encoding: 95 95 89
Width: 796
Flags: HW
HStem: -239 41<100 695>
LayerCount: 2
Fore
SplineSet
96 -200 m 2
 100 -198 l 1
 397 -198 l 1
 695 -198 l 1
 699 -200 l 2
 702 -202 706 -205 708 -207 c 1
 710 -211 711 -212 711 -218 c 0
 711 -224 710 -225 708 -229 c 1
 706 -231 702 -235 699 -237 c 2
 695 -239 l 1
 397 -239 l 1
 100 -239 l 1
 96 -237 l 2
 93 -235 90 -231 89 -229 c 0
 86 -225 86 -224 86 -218 c 0
 86 -212 86 -211 89 -207 c 0
 90 -205 93 -202 96 -200 c 2
EndSplineSet
Validated: 1
EndChar

StartChar: quoteleft
Encoding: 96 8216 90
Width: 284
Flags: HW
LayerCount: 2
Fore
SplineSet
164 602 m 0
 166 603 167 604 169 604 c 0
 171 604 174 603 177 600 c 1
 180 596 181 595 181 592 c 0
 181 588 180 586 169 575 c 0
 162 568 154 559 150 554 c 0
 122 519 105 480 98 437 c 0
 97 426 96 407 96 396 c 0
 96 394 96 391 96 390 c 2
 97 385 l 1
 103 390 l 2
 114 400 129 405 143 405 c 0
 158 405 171 400 181 389 c 0
 191 378 196 364 196 350 c 0
 196 331 187 312 169 303 c 0
 160 298 150 296 141 296 c 0
 126 296 111 302 99 315 c 0
 92 322 85 337 81 350 c 0
 76 365 73 383 73 403 c 0
 73 424 76 446 81 468 c 0
 86 487 90 500 99 519 c 0
 108 536 116 549 127 563 c 0
 135 574 159 599 164 602 c 0
EndSplineSet
Validated: 1
EndChar

StartChar: a
Encoding: 97 97 91
Width: 776
Flags: HW
HStem: -12 61<363 453>
LayerCount: 2
Fore
SplineSet
439 356 m 0
 436 363 432 375 430 381 c 2
 425 392 l 1
 423 389 l 2
 417 380 295 187 295 187 c 1
 301 171 l 2
 329 108 351 76 379 59 c 0
 390 52 404 49 417 49 c 0
 432 49 448 53 461 61 c 0
 478 71 491 85 515 114 c 0
 522 124 532 135 536 139 c 1
 542 147 l 1
 528 171 l 2
 487 248 458 307 439 356 c 0
454 474 m 0
 456 474 460 475 465 475 c 0
 472 474 475 473 479 468 c 0
 481 466 553 267 644 11 c 0
 645 10 645 9 645 8 c 0
 645 5 643 1 640 0 c 0
 638 -1 635 -2 632 -2 c 0
 629 -2 626 -1 623 0 c 0
 621 1 617 5 616 7 c 0
 614 9 608 21 602 32 c 1
 597 44 582 70 572 89 c 2
 554 125 l 1
 550 121 l 2
 548 118 534 102 521 85 c 0
 508 68 492 48 486 41 c 0
 454 5 424 -12 391 -12 c 0
 388 -12 385 -12 382 -12 c 0
 381 -12 379 -12 378 -12 c 0
 331 -6 297 32 263 112 c 0
 259 119 257 126 256 126 c 0
 255 126 242 106 226 81 c 0
 210 56 196 34 195 33 c 0
 192 29 185 26 180 25 c 0
 179 25 178 24 177 24 c 0
 171 24 167 28 167 32 c 0
 167 36 441 466 446 470 c 0
 448 471 452 473 454 474 c 0
EndSplineSet
Validated: 1
EndChar

StartChar: b
Encoding: 98 98 92
Width: 819
Flags: HW
HStem: 503 33<153 204> 584 20G<240 260>
VStem: 232 72<118 329 378 479>
LayerCount: 2
Fore
SplineSet
240 600 m 1
 245 604 l 1
 255 604 l 2
 264 603 266 603 271 601 c 0
 287 593 300 572 303 540 c 0
 304 534 304 502 304 454 c 2
 304 378 l 1
 311 387 l 2
 347 429 394 453 445 453 c 0
 451 453 457 453 463 452 c 0
 513 447 559 424 595 386 c 0
 629 351 650 307 658 256 c 0
 659 248 660 235 660 221 c 0
 660 207 659 193 658 185 c 0
 648 125 619 72 575 37 c 0
 543 10 504 -6 464 -10 c 0
 458 -11 451 -11 445 -11 c 0
 400 -11 353 5 317 35 c 0
 307 43 289 63 281 74 c 0
 257 105 241 142 234 184 c 0
 233 193 233 210 232 333 c 0
 231 485 232 475 225 486 c 0
 218 497 200 503 164 503 c 2
 153 503 l 1
 153 519 l 1
 153 536 l 1
 161 536 l 2
 195 539 223 560 230 589 c 0
 231 593 232 596 233 596 c 1
 240 600 l 1
467 426 m 0
 460 428 452 429 443 429 c 0
 432 429 420 427 410 425 c 0
 371 415 335 383 310 340 c 2
 304 329 l 1
 304 266 l 2
 304 203 305 185 308 162 c 0
 313 122 327 88 346 63 c 0
 366 37 391 21 420 14 c 0
 425 13 433 13 441 13 c 0
 451 13 461 13 467 15 c 0
 495 22 519 38 537 63 c 0
 564 99 574 145 574 221 c 0
 574 296 564 342 537 378 c 0
 527 391 516 402 502 411 c 0
 491 418 480 423 467 426 c 0
EndSplineSet
Validated: 1
EndChar

StartChar: c
Encoding: 99 99 93
Width: 777
Flags: HW
HStem: -9 26<370 506> 431 26<370 500>
LayerCount: 2
Fore
SplineSet
397 457 m 0
 406 458 419 458 433 458 c 0
 454 458 478 457 494 455 c 0
 518 452 543 443 571 432 c 0
 594 423 601 419 602 417 c 0
 604 414 604 410 603 408 c 1
 603 405 565 374 562 373 c 2
 561 372 558 372 557 372 c 1
 555 373 547 380 538 389 c 0
 508 419 490 428 452 431 c 0
 444 432 437 432 430 432 c 0
 399 432 376 425 352 409 c 0
 312 381 287 334 280 275 c 0
 277 256 275 237 275 219 c 0
 275 184 281 152 290 124 c 0
 307 75 344 36 387 22 c 0
 398 18 405 16 418 16 c 0
 422 16 427 16 432 16 c 0
 512 16 551 42 580 115 c 0
 587 131 587 132 590 133 c 0
 594 135 597 134 602 131 c 0
 607 127 609 124 609 120 c 0
 609 115 594 80 585 65 c 0
 558 20 522 -2 465 -9 c 0
 457 -10 442 -11 427 -11 c 0
 412 -11 398 -10 391 -9 c 0
 365 -5 343 3 321 13 c 0
 265 41 220 90 202 148 c 0
 194 173 189 198 189 223 c 0
 189 242 192 261 197 280 c 0
 210 330 239 376 280 408 c 0
 313 435 355 452 397 457 c 0
EndSplineSet
Validated: 1
EndChar

StartChar: d
Encoding: 100 100 94
Width: 896
Flags: HW
HStem: -20 25<439 552> 427 20<331 359> 444 24<442 548>
VStem: 255 85<120 327> 650 85<121 328>
LayerCount: 2
Fore
SplineSet
478 468 m 0xb8
 484 468 491 468 496 468 c 0xb8
 514 468 528 467 545 463 c 0
 596 453 645 423 679 382 c 0
 704 353 722 314 730 276 c 0
 735 257 735 248 735 224 c 0
 735 211 735 198 734 193 c 0
 730 165 722 139 710 114 c 0
 697 86 682 65 660 45 c 0
 623 10 577 -12 525 -20 c 0
 523 -20 520 -21 517 -21 c 0
 511 -21 503 -20 495 -20 c 0
 487 -20 479 -21 473 -21 c 0
 470 -21 467 -20 465 -20 c 0
 404 -11 349 20 311 66 c 0
 282 100 261 146 255 193 c 0
 255 195 255 198 255 201 c 0
 255 207 255 215 255 224 c 0
 255 232 255 241 255 248 c 0
 255 251 255 254 255 256 c 0
 261 302 282 348 311 382 c 0
 321 394 339 411 350 420 c 1
 355 423 359 427 359 427 c 1
 358 427 340 421 329 416 c 0
 316 410 304 403 270 384 c 0
 230 360 194 344 185 344 c 0
 183 344 180 344 179 346 c 1
 176 349 169 362 169 366 c 0
 169 367 171 371 174 375 c 0
 186 395 197 420 197 444 c 0
 197 457 198 457 204 461 c 0
 208 463 210 464 212 464 c 0
 214 464 217 463 220 462 c 0
 243 452 269 447 298 447 c 0
 304 447 309 447 315 447 c 0xd8
 337 447 353 451 392 457 c 0
 408 460 424 462 428 463 c 0
 444 466 463 468 478 468 c 0xb8
518 444 m 0
 516 444 514 445 512 445 c 0
 507 445 501 444 495 444 c 0
 490 444 483 445 478 445 c 0
 476 445 474 444 472 444 c 0
 428 437 389 403 366 359 c 0
 349 326 340 281 340 224 c 0
 340 176 346 137 357 106 c 0
 376 53 422 13 472 5 c 0
 478 4 487 4 495 4 c 0
 504 4 512 4 518 5 c 0
 568 13 614 53 633 106 c 0
 644 137 650 176 650 224 c 0
 650 271 644 310 633 341 c 0
 614 394 568 436 518 444 c 0
EndSplineSet
Validated: 1
EndChar

StartChar: e
Encoding: 101 101 95
Width: 790
Flags: HW
HStem: -11 27<357 471> 237 23<279 520 589 645> 434 25<353 450>
VStem: 191 86<118 237 259 332> 520 69<259 363>
LayerCount: 2
Fore
SplineSet
378 458 m 0
 383 459 390 459 397 459 c 0
 412 459 430 456 445 453 c 0
 480 446 510 433 534 409 c 0
 567 375 589 329 589 269 c 1
 589 259 l 1
 617 259 l 1
 645 259 l 1
 645 248 l 1
 645 237 l 1
 462 237 l 1
 278 237 l 1
 278 220 l 2
 278 131 297 74 338 41 c 0
 360 24 382 15 408 15 c 0
 419 15 430 16 442 19 c 0
 498 31 545 71 561 120 c 0
 564 131 567 134 575 134 c 0
 580 134 582 134 585 131 c 0
 587 129 589 127 589 124 c 0
 589 121 587 117 585 110 c 0
 570 67 538 32 494 10 c 0
 465 -3 429 -11 397 -11 c 0
 393 -11 389 -12 385 -12 c 0
 379 -11 l 0
 335 -6 297 13 264 45 c 0
 251 58 242 68 232 84 c 0
 212 116 197 149 191 191 c 0
 191 193 191 197 191 201 c 0
 191 208 191 217 191 226 c 0
 191 235 191 246 191 253 c 0
 191 257 191 260 191 262 c 0
 203 342 251 408 318 440 c 0
 336 449 356 455 378 458 c 0
424 434 m 0
 422 434 419 434 416 434 c 0
 394 434 l 0
 391 434 387 434 385 434 c 0
 346 428 310 393 294 346 c 0
 289 334 286 319 284 306 c 0
 282 295 279 270 279 264 c 2
 279 259 l 1
 399 259 l 1
 520 259 l 1
 520 273 l 1
 520 336 498 385 467 411 c 0
 455 421 440 430 424 434 c 0
EndSplineSet
Validated: 1
EndChar

StartChar: f
Encoding: 102 102 96
Width: 850
Flags: HW
HStem: -199 22G<275 322> 61 57<326 637> 351 33<174 225> 429 23<438 567>
VStem: 256 70<-193 61 119 345>
LayerCount: 2
Fore
SplineSet
261 449 m 1
 265 453 266 453 274 453 c 0
 278 453 285 452 288 451 c 0
 302 447 312 431 317 404 c 0
 318 398 318 386 319 368 c 2
 319 340 l 1
 325 349 l 2
 354 405 414 445 485 452 c 0
 487 452 490 452 494 452 c 0
 501 452 510 452 519 452 c 0
 528 452 538 452 546 452 c 0
 550 452 554 452 557 452 c 0
 633 447 677 424 687 382 c 0
 688 377 689 372 689 368 c 0
 689 365 689 363 688 361 c 0
 686 358 632 313 629 313 c 2
 628 312 625 312 624 313 c 1
 619 315 617 319 616 334 c 0
 614 370 605 391 587 407 c 0
 571 420 547 427 513 429 c 0
 510 429 508 429 505 429 c 0
 452 429 404 410 369 375 c 0
 347 352 335 330 329 302 c 0
 327 292 327 290 326 205 c 2
 326 119 l 1
 481 119 l 1
 637 119 l 1
 637 90 l 1
 637 61 l 1
 481 61 l 1
 326 61 l 1
 326 -66 l 1
 326 -193 l 1
 322 -196 l 1
 318 -199 l 1
 291 -199 l 2
 260 -199 258 -199 256 -193 c 1
 254 -190 254 -161 254 60 c 0
 254 197 254 312 253 316 c 0
 249 343 238 349 193 351 c 2
 174 351 l 1
 174 368 l 1
 174 384 l 1
 178 384 l 2
 184 384 195 386 202 388 c 0
 228 396 246 414 252 437 c 0
 253 441 254 444 255 444 c 1
 261 449 l 1
EndSplineSet
Validated: 1
EndChar

StartChar: g
Encoding: 103 103 97
Width: 870
Flags: HW
HStem: -210 24<378 529> 384 57<177 369 441 706>
VStem: 241 49<192 302> 251 29<-71 15> 621 49<-123 -12>
LayerCount: 2
Fore
SplineSet
177 413 m 1
 177 441 l 1
 441 441 l 1
 706 441 l 1
 706 413 l 1
 706 384 l 1
 580 384 l 1
 454 384 l 1
 441 381 l 2
 415 375 379 361 362 352 c 0
 330 335 305 310 296 286 c 0
 292 276 290 263 290 252 c 0
 290 240 292 227 297 216 c 0
 310 185 343 157 382 144 c 0
 388 142 408 138 427 134 c 0
 504 120 513 118 526 114 c 0
 596 94 648 51 664 0 c 0
 668 -12 670 -21 670 -34 c 2
 670 -43 l 2
 670 -58 670 -64 668 -73 c 0
 660 -110 641 -142 614 -162 c 0
 582 -187 541 -202 492 -207 c 0
 479 -209 456 -210 440 -210 c 0
 433 -210 428 -210 424 -210 c 0
 422 -210 420 -210 418 -210 c 0
 389 -207 374 -200 343 -185 c 0
 311 -170 294 -162 265 -162 c 0
 260 -162 255 -161 251 -161 c 0
 243 -161 234 -162 222 -164 c 0
 218 -165 215 -165 212 -165 c 0
 207 -165 205 -164 203 -161 c 0
 200 -156 197 -144 197 -141 c 1
 198 -140 201 -134 205 -129 c 0
 231 -95 246 -57 251 -15 c 0
 251 -8 251 1 251 5 c 0
 251 9 251 14 251 15 c 0
 253 19 259 22 265 22 c 0
 271 22 276 19 278 15 c 0
 278 14 280 4 280 -6 c 0
 280 -29 283 -42 287 -58 c 0
 303 -129 347 -173 408 -184 c 0
 416 -185 427 -186 439 -186 c 0
 457 -186 479 -184 495 -182 c 0
 553 -174 592 -152 610 -114 c 1
 617 -102 621 -86 621 -71 c 0
 621 -63 619 -54 617 -47 c 0
 609 -13 574 18 526 34 c 0
 509 40 503 41 445 52 c 0
 374 65 366 69 342 79 c 1
 289 105 252 148 241 200 c 0
 241 202 240 204 240 207 c 0
 240 213 241 219 241 225 c 0
 241 232 240 239 240 245 c 0
 240 248 241 250 241 252 c 0
 247 281 262 306 286 329 c 1
 308 352 324 365 368 384 c 1
 362 384 l 2
 352 384 327 384 274 384 c 2
 177 384 l 1
 177 413 l 1
EndSplineSet
Validated: 1
EndChar

StartChar: h
Encoding: 104 104 98
Width: 793
Flags: HW
HStem: 0 22G<259 305 553 616> 503 33<158 209> 584 20G<245 264>
VStem: 240 70<6 351 351 497> 550 71<6 399>
LayerCount: 2
Fore
SplineSet
245 600 m 1
 250 604 l 1
 260 604 l 2
 268 603 271 603 276 601 c 0
 286 596 295 584 299 569 c 0
 305 551 305 552 306 447 c 2
 306 351 l 1
 311 360 l 2
 320 376 328 386 342 401 c 0
 353 411 360 418 368 423 c 0
 388 436 409 446 433 450 c 0
 443 452 456 452 470 452 c 0
 487 452 504 450 519 447 c 0
 550 441 576 428 592 409 c 0
 599 400 610 378 613 366 c 0
 620 342 621 353 621 171 c 2
 621 6 l 1
 616 3 l 1
 613 0 l 1
 585 0 l 1
 556 0 l 1
 553 3 l 1
 550 6 l 1
 549 174 l 2
 548 327 548 343 547 353 c 0
 539 397 519 420 483 427 c 0
 478 428 469 429 460 429 c 0
 451 429 440 428 434 427 c 0
 415 423 393 413 377 402 c 0
 372 398 362 391 355 385 c 0
 336 366 322 342 315 316 c 0
 309 296 310 305 309 150 c 2
 309 6 l 1
 305 3 l 1
 302 0 l 1
 274 0 l 2
 243 0 242 0 240 6 c 1
 238 9 238 35 238 236 c 0
 238 360 238 464 237 468 c 0
 233 495 221 501 176 503 c 2
 158 503 l 1
 158 519 l 1
 158 536 l 1
 166 536 l 2
 200 539 229 560 236 589 c 0
 237 593 238 596 239 596 c 1
 245 600 l 1
EndSplineSet
Validated: 1
EndChar

StartChar: i
Encoding: 105 105 99
Width: 497
Flags: HW
HStem: 0 22G<278 317> 351 33<174 225> 432 20G<260 282>
VStem: 253 69<6 160 160 327>
LayerCount: 2
Fore
SplineSet
260 449 m 1
 265 453 l 1
 275 453 l 2
 287 452 294 449 301 442 c 0
 310 433 315 420 319 400 c 0
 320 390 322 379 322 198 c 2
 322 6 l 1
 317 3 l 1
 314 0 l 1
 288 0 l 2
 268 0 261 0 259 2 c 1
 253 5 253 -6 253 160 c 0
 253 242 253 312 252 316 c 0
 248 343 237 349 194 351 c 2
 174 351 l 1
 174 368 l 1
 174 384 l 1
 181 384 l 2
 216 387 244 408 251 437 c 0
 252 441 253 444 254 444 c 1
 260 449 l 1
EndSplineSet
Validated: 1
EndChar

StartChar: uni1E0B
Encoding: 106 7691 100
Width: 0
Flags: HW
HStem: -20 25<299 411> 427 20<191 219> 444 24<302 408> 575 110<311 398>
VStem: 115 85<120 327> 300 110<587 674> 510 85<121 328>
CounterMasks: 1 0e
LayerCount: 2
Fore
SplineSet
342 683 m 0x9e
 347 684 351 685 356 685 c 0
 369 685 383 679 393 669 c 0
 404 659 410 645 410 631 c 0
 410 621 408 613 403 604 c 0
 397 590 383 578 368 575 c 0
 363 574 358 575 353 575 c 0
 340 575 326 582 316 592 c 0
 305 602 300 616 300 631 c 0
 300 640 301 645 306 654 c 0
 312 667 327 680 342 683 c 0x9e
338 468 m 0xbe
 344 468 350 468 355 468 c 0xbe
 373 468 387 467 404 463 c 0
 455 453 505 423 539 382 c 0
 564 353 582 314 590 276 c 0
 595 257 595 248 595 224 c 0
 595 211 595 198 594 193 c 0
 590 165 581 139 569 114 c 0
 556 86 542 65 520 45 c 0
 483 10 437 -12 385 -20 c 0
 383 -20 380 -21 377 -21 c 0
 371 -21 362 -20 354 -20 c 0
 346 -20 339 -21 333 -21 c 0
 330 -21 327 -20 325 -20 c 0
 264 -11 209 20 171 66 c 0
 142 100 121 146 115 193 c 0
 115 195 114 198 114 201 c 0
 114 207 115 215 115 224 c 0
 115 232 114 241 114 248 c 0
 114 251 115 254 115 256 c 0
 121 302 142 348 171 382 c 0
 181 394 199 411 210 420 c 1
 215 423 219 427 219 427 c 1
 218 427 199 421 188 416 c 0
 175 410 164 403 130 384 c 0
 90 360 54 344 45 344 c 0
 43 344 40 344 39 346 c 1
 36 349 29 362 29 366 c 0
 29 367 31 371 34 375 c 0
 46 395 56 420 56 444 c 0
 56 457 57 457 63 461 c 0
 67 463 70 464 72 464 c 0
 74 464 77 463 80 462 c 0
 103 452 129 447 158 447 c 0
 164 447 169 447 175 447 c 0xde
 197 447 213 451 252 457 c 0
 268 460 284 462 288 463 c 0
 304 466 323 468 338 468 c 0xbe
378 444 m 0
 376 444 374 445 372 445 c 0
 367 445 360 444 354 444 c 0
 349 444 343 445 338 445 c 0
 336 445 334 444 332 444 c 0
 288 437 248 403 225 359 c 0
 208 326 200 281 200 224 c 0
 200 176 206 137 217 106 c 0
 236 53 282 13 332 5 c 0
 338 4 346 4 354 4 c 0
 363 4 372 4 378 5 c 0
 428 13 474 53 493 106 c 0
 504 137 510 176 510 224 c 0
 510 271 504 310 493 341 c 0
 474 394 428 436 378 444 c 0
EndSplineSet
Validated: 1
EndChar

StartChar: cdotaccent
Encoding: 107 267 101
Width: 483
Flags: HW
HStem: -9 26<214 351> 431 26<214 344> 575 109<258 313>
LayerCount: 2
Fore
SplineSet
258 684 m 0
 262 685 265 685 269 685 c 0
 290 685 308 673 318 654 c 0
 322 646 325 638 325 630 c 0
 325 622 322 614 318 606 c 0
 309 588 289 575 270 575 c 0
 246 575 225 590 217 613 c 1
 216 618 215 623 215 631 c 0
 215 647 220 659 232 670 c 0
 238 676 250 682 258 684 c 0
242 457 m 0
 251 458 263 458 277 458 c 0
 298 458 322 457 338 455 c 0
 362 452 388 443 416 432 c 0
 439 423 445 419 446 417 c 0
 448 414 448 410 447 408 c 1
 447 405 410 374 407 373 c 2
 406 372 402 372 401 372 c 1
 399 373 391 380 382 389 c 0
 352 419 334 428 296 431 c 0
 288 432 281 432 274 432 c 0
 243 432 221 425 197 409 c 0
 157 381 131 334 124 275 c 0
 121 256 120 237 120 219 c 0
 120 184 125 152 134 124 c 0
 151 75 188 36 231 22 c 0
 242 18 250 16 263 16 c 0
 267 16 271 16 276 16 c 0
 356 16 395 42 424 115 c 0
 431 131 431 132 434 133 c 0
 438 135 441 134 446 131 c 0
 451 127 454 124 454 120 c 0
 454 115 438 80 429 65 c 0
 402 20 366 -2 309 -9 c 0
 301 -10 286 -11 271 -11 c 0
 256 -11 243 -10 236 -9 c 0
 210 -5 187 3 165 13 c 0
 109 41 64 90 46 148 c 0
 38 173 34 198 34 223 c 0
 34 242 36 261 41 280 c 0
 54 330 83 376 124 408 c 0
 157 435 200 452 242 457 c 0
EndSplineSet
Validated: 1
EndChar

StartChar: l
Encoding: 108 108 102
Width: 645
Flags: HW
HStem: 503 33<157 208> 584 20G<243 264>
VStem: 237 68<92 473> 472 27<66 117 117 127>
LayerCount: 2
Fore
SplineSet
243 600 m 1
 248 604 l 1
 258 604 l 2
 270 603 277 601 284 594 c 0
 292 586 298 572 302 553 c 0
 303 545 303 526 304 322 c 0
 305 83 304 97 309 77 c 0
 316 50 333 30 356 22 c 0
 366 18 377 16 387 16 c 0
 406 16 423 22 437 35 c 0
 457 55 470 83 472 117 c 0
 472 127 473 128 475 130 c 0
 478 133 479 133 485 133 c 0
 492 133 493 133 496 130 c 2
 499 127 l 1
 499 116 l 2
 497 75 478 36 450 13 c 0
 440 4 420 -5 408 -8 c 0
 400 -10 389 -11 378 -11 c 0
 358 -11 335 -8 318 -1 c 0
 308 2 292 10 285 16 c 0
 260 33 247 57 239 92 c 2
 237 102 l 1
 236 287 l 2
 235 490 235 475 228 486 c 0
 222 497 203 503 168 503 c 2
 157 503 l 1
 157 519 l 1
 157 536 l 1
 164 536 l 2
 175 537 184 540 195 544 c 0
 215 554 228 570 233 589 c 0
 234 593 236 596 237 596 c 1
 243 600 l 1
EndSplineSet
Validated: 1
EndChar

StartChar: m
Encoding: 109 109 103
Width: 1067
Flags: HW
HStem: 0 22G<280 322 563 605 847 889> 351 33<174 226> 429 23<413 503 697 786>
VStem: 254 72<6 344> 538 72<6 306 356 394> 821 72<6 178 178 403>
CounterMasks: 1 1c
LayerCount: 2
Fore
SplineSet
261 449 m 1
 265 453 266 453 274 453 c 0
 288 453 298 448 306 436 c 0
 314 424 318 405 319 371 c 2
 319 347 l 1
 326 359 l 2
 335 377 345 393 359 407 c 0
 382 430 406 443 438 450 c 0
 446 452 452 452 471 452 c 0
 488 452 497 452 505 451 c 0
 558 442 591 414 603 367 c 0
 604 362 605 356 606 355 c 1
 606 354 608 359 611 365 c 0
 620 381 629 393 643 407 c 0
 666 430 690 443 722 450 c 0
 730 452 736 452 755 452 c 0
 780 452 790 450 808 445 c 0
 821 442 842 432 852 424 c 0
 875 405 889 375 892 335 c 0
 893 327 893 270 893 165 c 2
 893 6 l 1
 889 3 l 1
 886 0 l 1
 858 0 l 2
 835 0 829 0 827 2 c 1
 821 5 821 -7 821 178 c 0
 820 331 820 348 819 357 c 0
 811 404 790 426 752 429 c 0
 750 429 749 429 747 429 c 0
 727 429 704 423 686 413 c 0
 652 394 625 357 615 316 c 0
 609 296 610 305 609 150 c 2
 609 6 l 1
 605 3 l 1
 602 0 l 1
 574 0 l 2
 551 0 546 0 544 2 c 1
 538 5 538 -7 538 178 c 0
 537 331 537 348 536 357 c 0
 528 404 506 426 468 429 c 0
 466 429 465 429 463 429 c 0
 443 429 420 423 402 413 c 0
 368 394 342 357 332 316 c 0
 326 296 327 305 326 150 c 2
 326 6 l 1
 322 3 l 1
 318 0 l 1
 291 0 l 2
 268 0 262 0 260 2 c 1
 254 5 254 -6 254 160 c 0
 254 242 254 312 253 316 c 0
 249 343 238 349 193 351 c 2
 174 351 l 1
 174 368 l 1
 174 384 l 1
 182 384 l 2
 216 387 245 408 252 437 c 0
 253 441 254 444 255 444 c 1
 261 449 l 1
EndSplineSet
Validated: 1
EndChar

StartChar: n
Encoding: 110 110 104
Width: 809
Flags: HW
HStem: 0 22G<280 322 569 633> 351 33<174 226> 429 24<420 526>
VStem: 254 72<6 346> 566 71<6 399>
LayerCount: 2
Fore
SplineSet
261 449 m 1
 265 453 266 453 274 453 c 0
 288 453 298 448 306 436 c 0
 314 423 318 405 319 370 c 2
 319 345 l 1
 326 356 l 2
 335 374 343 385 358 401 c 0
 369 411 376 418 384 423 c 0
 404 436 426 446 450 450 c 0
 460 452 472 452 486 452 c 0
 503 452 521 450 536 447 c 0
 567 441 592 428 608 409 c 0
 615 400 627 378 630 366 c 0
 637 342 637 353 637 171 c 2
 637 6 l 1
 633 3 l 1
 630 0 l 1
 601 0 l 1
 572 0 l 1
 569 3 l 1
 566 6 l 1
 565 174 l 2
 564 327 564 343 563 353 c 0
 555 397 536 420 500 427 c 0
 495 428 485 429 476 429 c 0
 467 429 457 428 451 427 c 0
 432 423 409 413 393 402 c 0
 388 398 379 391 372 385 c 0
 353 366 339 342 332 316 c 0
 326 296 327 305 326 150 c 2
 326 6 l 1
 322 3 l 1
 318 0 l 1
 291 0 l 2
 268 0 262 0 260 2 c 1
 254 5 254 -6 254 160 c 0
 254 242 254 312 253 316 c 0
 249 343 238 349 193 351 c 2
 174 351 l 1
 174 368 l 1
 174 384 l 1
 182 384 l 2
 216 387 245 408 252 437 c 0
 253 441 254 444 255 444 c 1
 261 449 l 1
EndSplineSet
Validated: 1
EndChar

StartChar: o
Encoding: 111 111 105
Width: 802
Flags: HW
VStem: 189 87<121 320>
LayerCount: 2
Fore
SplineSet
391 457 m 0
 399 458 408 458 417 458 c 0
 473 458 529 435 571 393 c 0
 577 387 587 378 590 373 c 0
 625 329 643 274 643 220 c 0
 643 204 641 188 638 172 c 0
 622 86 556 18 470 -4 c 0
 451 -9 440 -10 417 -10 c 0
 393 -10 381 -9 362 -4 c 0
 260 22 189 113 189 219 c 0
 189 265 203 315 229 353 c 0
 267 411 324 449 391 457 c 0
435 434 m 0
 429 435 424 435 418 435 c 0
 393 435 367 428 345 414 c 0
 305 389 284 348 278 288 c 0
 277 278 276 252 276 228 c 0
 276 211 276 194 276 185 c 0
 280 120 295 81 327 51 c 0
 352 27 384 15 416 15 c 0
 448 15 481 27 506 51 c 0
 538 81 552 120 556 185 c 0
 556 194 557 211 557 228 c 0
 557 252 556 278 555 288 c 0
 552 317 545 342 535 361 c 0
 516 401 479 427 435 434 c 0
EndSplineSet
Validated: 1
EndChar

StartChar: p
Encoding: 112 112 106
Width: 868
Flags: HW
HStem: -199 22G<274 321> -10 24<479 560> 351 33<173 225> 426 26<417 522>
VStem: 255 70<-193 262> 406 27<77 117 117 125> 622 86<110 319>
LayerCount: 2
Fore
SplineSet
260 449 m 1
 265 453 l 1
 275 453 l 1
 287 453 294 449 301 442 c 0
 314 429 322 409 322 372 c 1
 322 351 l 1
 328 361 l 2
 350 396 373 421 406 436 c 0
 419 442 431 447 446 450 c 0
 454 452 468 453 481 453 c 0
 489 453 497 453 503 453 c 0
 506 453 509 453 511 453 c 0
 550 446 586 429 616 406 c 0
 626 399 647 378 655 368 c 0
 665 356 676 339 684 324 c 0
 699 291 708 263 708 228 c 0
 708 219 l 0
 708 162 690 106 659 62 c 0
 650 49 625 24 613 16 c 0
 595 4 573 -6 554 -10 c 0
 552 -10 550 -11 547 -11 c 0
 541 -11 534 -10 528 -10 c 0
 521 -10 515 -11 509 -11 c 0
 506 -11 504 -10 502 -10 c 0
 490 -7 478 -3 468 3 c 0
 448 12 428 17 406 17 c 0
 396 17 384 16 374 14 c 0
 370 13 366 13 364 13 c 0
 358 13 356 16 353 24 c 0
 351 29 351 32 351 35 c 0
 351 39 352 41 356 43 c 0
 363 47 373 54 379 60 c 0
 395 75 406 94 406 117 c 0
 406 124 407 126 409 128 c 0
 411 131 413 131 418 131 c 0
 425 131 429 129 431 125 c 1
 431 124 432 118 432 112 c 0
 432 61 461 25 503 15 c 0
 510 14 518 13 525 13 c 0
 532 13 541 14 545 15 c 0
 578 27 608 89 617 162 c 0
 620 180 622 199 622 217 c 0
 622 241 619 264 614 282 c 0
 599 351 557 405 505 421 c 0
 494 424 482 426 471 426 c 0
 444 426 418 416 396 401 c 0
 354 370 323 320 323 259 c 0
 323 251 322 248 322 246 c 0
 322 245 323 245 323 244 c 0
 325 240 325 220 325 24 c 2
 325 -193 l 1
 321 -196 l 1
 317 -199 l 1
 290 -199 l 2
 259 -199 257 -199 255 -193 c 1
 254 -192 254 -188 254 -175 c 0
 254 -149 255 -87 255 60 c 0
 255 197 253 312 252 316 c 0
 248 343 236 351 191 351 c 1
 173 351 l 1
 173 368 l 1
 173 384 l 1
 181 384 l 1
 215 384 244 408 251 437 c 0
 252 441 254 444 255 444 c 1
 260 449 l 1
EndSplineSet
Validated: 1
EndChar

StartChar: uni1E1F
Encoding: 113 7711 107
Width: 574
Flags: HW
HStem: -199 22G<134 180> 61 57<184 496> 351 33<33 84> 429 23<297 426>
VStem: 115 70<-193 61 119 345> 311 108<592 654>
LayerCount: 2
Fore
SplineSet
353 683 m 0
 358 684 362 685 367 685 c 0
 381 685 393 680 404 669 c 0
 415 658 421 644 421 631 c 0
 421 626 420 621 419 617 c 0
 415 598 397 582 379 578 c 0
 374 577 370 576 365 576 c 0
 351 576 339 581 328 592 c 0
 317 602 311 616 311 631 c 0
 311 640 312 645 317 654 c 0
 323 667 338 680 353 683 c 0
120 449 m 1
 124 453 125 453 133 453 c 0
 137 453 143 452 146 451 c 0
 160 447 171 431 176 404 c 0
 177 398 177 386 178 368 c 2
 178 340 l 1
 183 349 l 2
 212 405 273 445 344 452 c 0
 346 452 349 452 353 452 c 0
 359 452 368 452 377 452 c 0
 386 452 396 452 405 452 c 0
 409 452 413 452 416 452 c 0
 492 447 536 424 546 382 c 0
 547 377 548 372 548 368 c 0
 548 365 548 363 547 361 c 0
 545 358 490 313 487 313 c 2
 486 312 483 312 482 313 c 1
 477 315 476 319 475 334 c 0
 473 370 463 391 445 407 c 0
 429 420 406 427 372 429 c 0
 369 429 367 429 364 429 c 0
 311 429 262 410 227 375 c 0
 205 352 193 330 187 302 c 0
 185 292 185 290 184 205 c 2
 184 119 l 1
 340 119 l 1
 496 119 l 1
 496 90 l 1
 496 61 l 1
 340 61 l 1
 184 61 l 1
 184 -66 l 1
 184 -193 l 1
 180 -196 l 1
 177 -199 l 1
 150 -199 l 2
 119 -199 117 -199 115 -193 c 1
 113 -190 113 -161 113 60 c 0
 113 197 113 312 112 316 c 0
 108 343 96 349 51 351 c 2
 33 351 l 1
 33 368 l 1
 33 384 l 1
 37 384 l 2
 43 384 53 386 60 388 c 0
 86 396 105 414 111 437 c 0
 112 441 113 444 114 444 c 1
 120 449 l 1
EndSplineSet
Validated: 1
EndChar

StartChar: r
Encoding: 114 114 108
Width: 748
Flags: HW
HStem: -199 22G<274 321> 351 33<173 225> 432 20G<269 275 544 545>
VStem: 255 70<-193 244 264 344> 486 63<157 381>
LayerCount: 2
Fore
SplineSet
260 449 m 1
 264 453 265 453 273 453 c 0
 277 453 284 454 287 453 c 0
 301 449 311 431 316 404 c 0
 317 397 318 385 318 330 c 1
 318 264 l 1
 427 356 l 2
 486 406 537 452 538 453 c 1
 540 454 543 453 545 453 c 0
 546 453 547 454 549 453 c 0
 553 451 553 447 553 440 c 0
 553 437 553 434 553 429 c 0
 553 422 551 399 551 381 c 0
 551 369 550 356 550 343 c 0
 550 238 565 126 594 22 c 0
 597 9 598 3 598 0 c 0
 598 -3 598 -5 596 -7 c 0
 593 -10 586 -10 583 -7 c 0
 578 -3 556 34 544 60 c 0
 511 129 486 199 486 276 c 0
 486 285 486 299 486 313 c 0
 486 333 486 357 486 368 c 0
 486 375 490 381 490 381 c 1
 408 312 l 1
 325 244 l 1
 325 26 l 1
 325 -193 l 1
 321 -196 l 1
 317 -199 l 1
 290 -199 l 2
 259 -199 257 -199 255 -193 c 1
 254 -192 254 -188 254 -175 c 0
 254 -149 255 -87 255 60 c 0
 255 197 253 312 252 316 c 0
 248 343 236 351 191 351 c 1
 173 351 l 1
 173 368 l 1
 173 384 l 1
 181 384 l 1
 215 384 244 408 251 437 c 0
 252 441 254 444 255 444 c 1
 260 449 l 1
EndSplineSet
Validated: 1
EndChar

StartChar: s
Encoding: 115 115 109
Width: 841
Flags: HW
HStem: -199 22G<275 322> 351 33<174 225> 429 23<438 567>
VStem: 256 70<-193 302>
LayerCount: 2
Fore
SplineSet
261 449 m 1
 265 453 266 453 274 453 c 0
 278 453 285 452 288 451 c 0
 302 447 312 431 317 404 c 0
 318 398 318 386 319 368 c 2
 319 340 l 1
 325 349 l 2
 354 405 414 445 485 452 c 0
 487 452 490 452 494 452 c 0
 501 452 510 452 519 452 c 0
 528 452 538 452 546 452 c 0
 550 452 554 452 557 452 c 0
 633 447 677 424 687 382 c 0
 688 377 689 372 689 368 c 0
 689 365 689 363 688 361 c 0
 686 358 632 313 629 313 c 2
 628 312 625 312 624 313 c 1
 619 315 617 319 616 334 c 0
 614 370 605 391 587 407 c 0
 571 420 547 427 513 429 c 0
 510 429 508 429 505 429 c 0
 452 429 404 410 369 375 c 0
 347 352 335 330 329 302 c 2
 327 292 l 1
 326 49 l 1
 326 -193 l 1
 322 -196 l 1
 318 -199 l 1
 291 -199 l 2
 260 -199 258 -199 256 -193 c 1
 254 -190 254 -161 254 60 c 0
 254 197 254 312 253 316 c 0
 249 343 238 349 193 351 c 2
 174 351 l 1
 174 368 l 1
 174 384 l 1
 178 384 l 2
 184 384 195 386 202 388 c 0
 228 396 246 414 252 437 c 0
 253 441 254 444 255 444 c 1
 261 449 l 1
EndSplineSet
Validated: 1
EndChar

StartChar: t
Encoding: 116 116 110
Width: 835
Flags: HW
HStem: -10 28<397 530> 384 57<172 346 384 672>
LayerCount: 2
Fore
SplineSet
172 413 m 1
 172 441 l 1
 422 441 l 1
 672 441 l 1
 672 413 l 1
 672 384 l 1
 552 384 l 2
 432 383 431 383 424 381 c 0
 393 373 367 353 350 322 c 0
 334 293 326 251 326 200 c 0
 326 197 326 193 326 190 c 0
 327 156 331 134 338 111 c 0
 354 60 390 24 432 17 c 0
 439 16 447 16 455 16 c 0
 481 16 512 22 530 31 c 0
 561 46 581 71 599 119 c 0
 603 131 605 134 610 134 c 0
 617 134 626 126 626 120 c 0
 626 116 618 96 609 78 c 0
 583 26 548 0 490 -9 c 0
 481 -10 464 -11 450 -11 c 0
 441 -11 433 -11 428 -10 c 0
 365 -3 309 30 275 82 c 0
 257 109 245 144 241 178 c 0
 240 185 239 193 239 200 c 0
 239 258 264 315 306 354 c 0
 315 362 331 375 340 380 c 2
 346 384 l 1
 259 384 l 1
 172 384 l 1
 172 413 l 1
EndSplineSet
Validated: 1
EndChar

StartChar: u
Encoding: 117 117 111
Width: 811
Flags: HW
HStem: 351 33<172 224 483 535> 432 20G<259 279 570 590>
VStem: 252 72<44 211 211 326> 562 73<-5 114 114 328>
LayerCount: 2
Fore
SplineSet
259 449 m 1
 264 453 l 1
 274 453 l 2
 283 452 286 452 291 450 c 0
 307 442 320 420 323 388 c 0
 324 381 324 334 324 239 c 0
 324 96 324 84 328 68 c 0
 335 38 355 20 393 14 c 0
 401 13 412 13 424 13 c 0
 436 13 447 13 453 14 c 0
 471 19 486 28 501 41 c 0
 536 76 557 135 562 215 c 0
 563 225 563 248 563 270 c 0
 563 292 563 311 562 316 c 0
 558 343 547 349 502 351 c 2
 483 351 l 1
 483 368 l 1
 483 384 l 1
 492 384 l 2
 526 387 554 408 561 437 c 0
 562 441 563 445 564 445 c 1
 564 445 567 447 570 449 c 2
 575 453 l 1
 586 453 l 2
 595 452 598 452 602 450 c 0
 619 442 631 419 634 387 c 0
 635 379 635 322 635 185 c 2
 635 -5 l 1
 631 -8 l 1
 628 -11 l 1
 600 -11 l 1
 573 -11 l 1
 570 -8 l 1
 567 -5 l 1
 566 55 l 2
 566 88 565 114 565 114 c 1
 565 110 553 83 550 75 c 0
 527 29 495 0 453 -9 c 0
 446 -10 439 -10 419 -10 c 0
 392 -10 376 -9 360 -6 c 0
 327 1 305 12 287 30 c 0
 272 44 264 57 258 80 c 0
 252 99 252 105 252 211 c 0
 252 265 252 312 251 316 c 0
 247 343 235 349 190 351 c 2
 172 351 l 1
 172 368 l 1
 172 384 l 1
 180 384 l 2
 214 387 243 408 250 437 c 0
 251 441 252 444 253 444 c 1
 259 449 l 1
EndSplineSet
Validated: 1
EndChar

StartChar: uni1E03
Encoding: 118 7683 112
Width: 569
Flags: HW
HStem: 583 33<27 78> 583 101<304 355>
VStem: 106 72<118 329 378 558> 262 110<592 668>
LayerCount: 2
Fore
SplineSet
304 683 m 0x30
 309 684 313 685 318 685 c 0
 332 685 344 680 355 669 c 0
 366 659 372 645 372 631 c 0
 372 616 366 602 355 592 c 0
 344 581 332 576 318 576 c 0
 313 576 309 577 304 578 c 0
 289 581 274 592 268 606 c 0
 263 615 262 621 262 631 c 0
 262 640 263 645 268 654 c 0
 274 667 289 680 304 683 c 0x30
114 680 m 1
 119 684 l 1
 129 684 l 2x70
 138 683 140 683 145 681 c 0
 161 673 174 652 177 620 c 0
 178 613 178 572 178 494 c 2
 178 378 l 1
 185 387 l 2
 221 429 268 453 319 453 c 0
 325 453 331 453 337 452 c 0
 387 447 433 424 469 386 c 0
 503 351 524 307 532 256 c 0
 533 248 534 235 534 221 c 0
 534 207 533 193 532 185 c 0
 522 125 494 72 450 37 c 0
 418 10 378 -6 338 -10 c 0
 332 -11 325 -11 319 -11 c 0
 274 -11 227 5 191 35 c 0
 181 43 163 63 155 74 c 0
 131 105 116 142 109 184 c 0
 108 193 107 212 106 373 c 0
 105 569 106 555 99 566 c 0
 92 577 74 583 38 583 c 2
 27 583 l 1
 27 599 l 1
 27 615 l 1
 35 615 l 2xb0
 69 618 97 640 104 669 c 0
 105 673 107 676 108 676 c 1
 114 680 l 1
341 426 m 0
 334 428 326 429 317 429 c 0
 306 429 294 427 284 425 c 0
 245 415 209 383 184 340 c 2
 178 329 l 1
 178 266 l 2
 178 203 179 185 182 162 c 0
 187 122 201 88 220 63 c 0
 240 37 265 21 294 14 c 0
 299 13 307 13 315 13 c 0
 325 13 335 13 341 15 c 0
 369 22 393 38 411 63 c 0
 438 99 449 145 449 221 c 0
 449 296 438 342 411 378 c 0
 401 391 390 402 376 411 c 0
 365 418 354 423 341 426 c 0
EndSplineSet
Validated: 1
EndChar

StartChar: uni1E41
Encoding: 119 7745 113
Width: 847
Flags: HW
HStem: 0 22G<138 180 422 464 706 748> 351 33<33 84> 429 23<272 361 555 645>
VStem: 113 72<6 344> 378 109<586 674> 396 72<6 306 356 394> 680 72<6 178 178 403>
LayerCount: 2
Fore
SplineSet
419 684 m 0xfa
 422 685 426 685 430 685 c 0
 437 685 446 684 451 682 c 0
 473 674 486 654 486 631 c 0
 486 613 478 596 464 586 c 0
 454 579 445 577 432 577 c 0
 419 577 410 579 400 586 c 0
 386 596 378 612 378 631 c 0
 378 644 381 654 389 665 c 0
 396 673 407 680 419 684 c 0xfa
120 449 m 1
 124 453 125 453 133 453 c 0
 147 453 157 448 165 436 c 0
 173 424 177 405 178 371 c 2
 178 347 l 1
 184 359 l 2
 193 377 204 393 218 407 c 0
 241 430 265 443 297 450 c 0
 305 452 311 452 330 452 c 0
 347 452 356 452 364 451 c 0
 417 442 450 414 462 367 c 0
 463 362 464 356 465 355 c 1
 465 354 467 359 470 365 c 0
 479 381 488 393 502 407 c 0
 525 430 549 443 581 450 c 0
 589 452 594 452 613 452 c 0
 638 452 649 450 667 445 c 0
 680 442 701 432 711 424 c 0
 734 405 748 375 751 335 c 0
 752 327 752 270 752 165 c 2
 752 6 l 1
 748 3 l 1
 744 0 l 1
 717 0 l 2
 694 0 688 0 686 2 c 1
 680 5 680 -7 680 178 c 0
 679 331 679 348 678 357 c 0
 670 404 648 426 610 429 c 0
 608 429 608 429 606 429 c 0
 586 429 563 423 545 413 c 0
 511 394 484 357 474 316 c 0
 468 296 469 305 468 150 c 2
 468 6 l 1
 464 3 l 1
 461 0 l 1
 433 0 l 2
 410 0 404 0 402 2 c 1
 396 5 396 -7 396 178 c 0xf6
 395 331 395 348 394 357 c 0
 386 404 365 426 327 429 c 0
 325 429 324 429 322 429 c 0
 302 429 279 423 261 413 c 0
 227 394 200 357 190 316 c 0
 184 296 185 305 184 150 c 2
 184 6 l 1
 180 3 l 1
 177 0 l 1
 150 0 l 2
 127 0 121 0 119 2 c 1
 113 5 113 -6 113 160 c 0
 113 242 113 312 112 316 c 0
 108 343 96 349 51 351 c 2
 33 351 l 1
 33 368 l 1
 33 384 l 1
 41 384 l 2
 75 387 104 408 111 437 c 0
 112 441 113 444 114 444 c 1
 120 449 l 1
EndSplineSet
Validated: 1
EndChar

StartChar: uni1E6B
Encoding: 120 7787 114
Width: 596
Flags: HW
HStem: -10 28<276 409> 384 57<51 225 264 551>
LayerCount: 2
Fore
SplineSet
313 683 m 0
 318 684 322 685 327 685 c 0
 356 685 381 661 381 631 c 0
 381 600 356 576 326 576 c 0
 322 576 317 577 313 578 c 0
 296 582 281 594 274 612 c 0
 272 618 272 621 272 631 c 0
 272 640 272 642 274 648 c 0
 281 666 296 679 313 683 c 0
51 413 m 1
 51 441 l 1
 301 441 l 1
 551 441 l 1
 551 413 l 1
 551 384 l 1
 431 384 l 2
 311 383 310 383 303 381 c 0
 272 373 246 353 229 322 c 0
 213 293 205 251 205 200 c 0
 205 197 205 193 205 190 c 0
 206 156 210 134 217 111 c 0
 233 60 269 24 311 17 c 0
 318 16 326 16 334 16 c 0
 360 16 392 22 410 31 c 0
 441 46 460 71 478 119 c 0
 482 131 484 134 489 134 c 0
 496 134 505 126 505 120 c 0
 505 116 497 96 488 78 c 0
 462 26 428 0 370 -9 c 0
 361 -10 343 -11 329 -11 c 0
 320 -11 312 -11 307 -10 c 0
 244 -3 189 30 155 82 c 0
 137 109 124 144 120 178 c 0
 119 185 119 193 119 200 c 0
 119 258 143 315 185 354 c 0
 194 362 210 375 219 380 c 2
 225 384 l 1
 138 384 l 1
 51 384 l 1
 51 413 l 1
EndSplineSet
Validated: 1
EndChar

StartChar: gdotaccent
Encoding: 121 289 115
Width: 0
Flags: HWO
HStem: -210 24<252 403> 384 57<51 243 315 580>
VStem: 115 49<192 302> 125 29<-71 15> 261 109<586 674> 495 49<-123 -12>
LayerCount: 2
Fore
SplineSet
302 684 m 0xcc
 305 685 309 685 313 685 c 0
 320 685 329 684 334 682 c 0
 356 674 370 654 370 631 c 0
 370 607 356 586 333 579 c 0
 328 578 321 577 315 577 c 0
 309 577 303 578 298 579 c 0
 275 586 261 607 261 631 c 0
 261 648 270 665 284 675 c 0
 290 679 294 681 302 684 c 0xcc
51 413 m 1
 51 441 l 1
 315 441 l 1
 580 441 l 1
 580 413 l 1
 580 384 l 1
 454 384 l 1
 328 384 l 1
 315 381 l 2
 289 375 254 361 237 352 c 0
 205 335 179 310 170 286 c 0
 166 276 164 263 164 252 c 0
 164 240 166 227 171 216 c 0
 184 185 217 157 256 144 c 0
 262 142 282 138 301 134 c 0
 378 120 387 118 400 114 c 0
 470 94 522 51 538 0 c 0
 542 -12 544 -21 544 -34 c 2
 544 -43 l 2
 544 -58 544 -64 542 -73 c 0
 534 -110 515 -142 488 -162 c 0
 456 -187 415 -202 366 -207 c 0
 353 -209 330 -210 314 -210 c 0
 307 -210 302 -210 298 -210 c 0
 296 -210 294 -210 292 -210 c 0
 263 -207 248 -200 217 -185 c 0
 185 -170 168 -162 139 -162 c 0
 134 -162 129 -161 125 -161 c 0
 117 -161 108 -162 96 -164 c 0
 92 -165 89 -165 86 -165 c 0
 81 -165 79 -164 77 -161 c 0
 74 -156 71 -144 71 -141 c 1
 72 -140 75 -134 79 -129 c 0
 105 -95 120 -57 125 -15 c 0
 125 -8 125 1 125 5 c 0
 125 9 125 14 125 15 c 0
 127 19 133 22 139 22 c 0
 145 22 150 19 152 15 c 0
 152 14 154 4 154 -6 c 0
 154 -29 157 -42 161 -58 c 0
 177 -129 221 -173 282 -184 c 0
 290 -185 301 -186 313 -186 c 0
 331 -186 353 -184 369 -182 c 0
 427 -174 466 -152 484 -114 c 1
 491 -102 495 -86 495 -71 c 0
 495 -63 494 -54 492 -47 c 0
 484 -13 448 18 400 34 c 0
 383 40 377 41 319 52 c 0
 248 65 240 69 216 79 c 1
 163 105 126 148 115 200 c 0
 115 202 114 204 114 207 c 0
 114 213 115 219 115 225 c 0
 115 232 114 239 114 245 c 0
 114 248 115 250 115 252 c 0
 121 281 136 306 160 329 c 1
 182 352 198 365 242 384 c 1
 236 384 l 2
 226 384 201 384 148 384 c 2
 51 384 l 1
 51 413 l 1
EndSplineSet
EndChar

StartChar: uni1E61
Encoding: 122 7777 116
Width: 574
Flags: HW
HStem: -199 22G<134 180> 351 33<33 84> 429 23<297 426>
VStem: 115 70<-193 302> 311 108<592 654>
LayerCount: 2
Fore
SplineSet
353 683 m 0
 358 684 362 685 367 685 c 0
 381 685 393 680 404 669 c 0
 415 658 421 644 421 631 c 0
 421 626 420 621 419 617 c 0
 415 598 397 582 379 578 c 0
 374 577 370 576 365 576 c 0
 351 576 339 581 328 592 c 0
 317 602 311 616 311 631 c 0
 311 640 312 645 317 654 c 0
 323 667 338 680 353 683 c 0
120 449 m 1
 124 453 125 453 133 453 c 0
 137 453 143 452 146 451 c 0
 160 447 171 431 176 404 c 0
 177 398 177 386 178 368 c 2
 178 340 l 1
 183 349 l 2
 212 405 273 445 344 452 c 0
 346 452 349 452 353 452 c 0
 359 452 368 452 377 452 c 0
 386 452 396 452 405 452 c 0
 409 452 413 452 416 452 c 0
 492 447 536 424 546 382 c 0
 547 377 548 372 548 368 c 0
 548 365 548 363 547 361 c 0
 545 358 490 313 487 313 c 2
 486 312 483 312 482 313 c 1
 477 315 476 319 475 334 c 0
 473 370 463 391 445 407 c 0
 429 420 406 427 372 429 c 0
 369 429 367 429 364 429 c 0
 311 429 262 410 227 375 c 0
 205 352 193 330 187 302 c 2
 185 292 l 1
 184 49 l 1
 184 -193 l 1
 180 -196 l 1
 177 -199 l 1
 150 -199 l 2
 119 -199 117 -199 115 -193 c 1
 113 -190 113 -161 113 60 c 0
 113 197 113 312 112 316 c 0
 108 343 96 349 51 351 c 2
 33 351 l 1
 33 368 l 1
 33 384 l 1
 37 384 l 2
 43 384 53 386 60 388 c 0
 86 396 105 414 111 437 c 0
 112 441 113 444 114 444 c 1
 120 449 l 1
EndSplineSet
Validated: 1
EndChar

StartChar: endash
Encoding: 123 8211 117
Width: 512
Flags: HW
LayerCount: 2
Fore
SplineSet
0 273 m 1
 0 285 l 1
 256 285 l 1
 511 285 l 1
 511 273 l 1
 511 261 l 1
 256 261 l 1
 0 261 l 1
 0 273 l 1
EndSplineSet
Validated: 1
EndChar

StartChar: emdash
Encoding: 124 8212 118
Width: 1024
Flags: HW
LayerCount: 2
Fore
SplineSet
0 273 m 1
 0 285 l 1
 512 285 l 1
 1023 285 l 1
 1023 273 l 1
 1023 261 l 1
 512 261 l 1
 0 261 l 1
 0 273 l 1
EndSplineSet
Validated: 1
EndChar

StartChar: asciitilde
Encoding: 126 126 119
Width: 512
Flags: HW
HStem: 559 44<126 274>
LayerCount: 2
Fore
SplineSet
179 603 m 0
 184 604 189 604 194 604 c 0
 211 604 232 600 265 590 c 0
 299 580 314 576 333 576 c 0
 335 576 338 577 341 577 c 0
 351 578 358 578 365 580 c 0
 377 584 392 591 403 598 c 2
 412 604 l 1
 419 595 l 1
 426 586 l 1
 426 585 417 578 408 570 c 0
 376 546 363 541 343 535 c 0
 334 533 325 531 316 531 c 0
 298 531 279 536 248 545 c 0
 211 556 196 559 178 559 c 0
 176 559 173 559 170 559 c 0
 160 558 153 558 146 556 c 0
 134 552 119 545 108 538 c 2
 99 531 l 1
 92 541 l 1
 85 550 l 1
 85 551 94 557 104 565 c 0
 126 581 136 589 147 594 c 0
 156 598 170 602 179 603 c 0
EndSplineSet
Validated: 1
EndChar

StartChar: uni0308
Encoding: 127 776 120
Width: 512
Flags: HW
LayerCount: 2
Fore
SplineSet
143 603 m 0
 147 604 152 605 156 605 c 0
 173 605 191 596 200 581 c 0
 206 572 208 562 208 553 c 0
 208 544 206 535 200 526 c 0
 191 511 174 502 157 502 c 0
 153 502 148 503 144 504 c 0
 120 509 104 530 104 554 c 0
 104 577 120 597 143 603 c 0
342 603 m 0
 346 604 351 605 355 605 c 0
 382 605 407 582 407 553 c 0
 407 525 382 502 356 502 c 0
 352 502 347 503 343 504 c 0
 319 509 303 530 303 554 c 0
 303 577 319 597 342 603 c 0
EndSplineSet
Validated: 1
EndChar

StartChar: quotedblright
Encoding: 257 8221 121
Width: 512
Flags: HW
LayerCount: 2
Fore
SplineSet
75 602 m 0
 80 603 84 604 89 604 c 0
 105 604 120 598 131 585 c 0
 138 578 146 563 150 551 c 0
 155 535 158 517 158 497 c 0
 158 476 155 454 150 432 c 0
 145 413 140 400 131 382 c 0
 117 353 103 335 83 312 c 0
 71 300 66 296 61 296 c 0
 58 296 56 297 53 300 c 1
 50 304 49 305 49 308 c 0
 49 312 50 314 60 324 c 0
 82 346 97 365 110 391 c 0
 121 414 128 437 132 463 c 0
 133 474 134 493 134 504 c 0
 134 506 134 509 134 510 c 2
 133 515 l 1
 127 510 l 2
 116 500 102 495 88 495 c 0
 79 495 69 497 61 502 c 0
 45 510 34 530 34 549 c 0
 34 575 50 597 75 602 c 0
273 602 m 0
 278 603 283 604 288 604 c 0
 304 604 319 598 330 585 c 0
 337 578 344 563 348 551 c 0
 353 535 356 517 356 497 c 0
 356 476 353 454 348 432 c 0
 343 413 339 400 330 382 c 0
 316 353 302 335 282 312 c 0
 270 300 265 296 260 296 c 0
 257 296 255 297 252 300 c 1
 249 304 248 305 248 308 c 0
 248 312 249 314 259 324 c 0
 281 346 295 365 308 391 c 0
 319 414 327 437 331 463 c 0
 332 474 333 493 333 504 c 0
 333 506 333 509 333 510 c 2
 332 515 l 1
 326 510 l 2
 315 500 300 495 286 495 c 0
 271 495 258 500 248 511 c 0
 238 521 232 535 232 549 c 0
 232 563 238 578 248 588 c 0
 254 595 264 600 273 602 c 0
EndSplineSet
Validated: 1
EndChar

StartChar: quotedblleft
Encoding: 256 8220 122
Width: 512
Flags: HW
LayerCount: 2
Fore
SplineSet
315 298 m 0
 310 297 306 296 301 296 c 0
 285 296 270 302 259 315 c 0
 252 322 245 337 241 349 c 0
 236 365 232 383 232 403 c 0
 232 424 236 446 241 468 c 0
 246 487 250 500 259 518 c 0
 273 547 287 564 307 587 c 0
 319 599 324 604 329 604 c 0
 332 604 334 603 337 600 c 1
 340 596 341 595 341 592 c 0
 341 588 340 586 330 576 c 0
 308 554 293 535 280 509 c 0
 269 486 262 463 258 437 c 0
 257 426 256 406 256 395 c 0
 256 393 256 391 256 390 c 2
 257 385 l 1
 263 390 l 2
 274 400 288 405 302 405 c 0
 311 405 321 403 329 398 c 0
 345 390 356 370 356 351 c 0
 356 325 340 303 315 298 c 0
117 298 m 0
 112 297 107 296 102 296 c 0
 86 296 71 302 60 315 c 0
 53 322 46 337 42 349 c 0
 37 365 34 383 34 403 c 0
 34 424 37 446 42 468 c 0
 47 487 51 500 60 518 c 0
 74 547 88 564 108 587 c 0
 120 599 125 604 130 604 c 0
 133 604 135 603 138 600 c 1
 141 596 142 595 142 592 c 0
 142 588 141 586 131 576 c 0
 109 554 95 535 82 509 c 0
 71 486 63 463 59 437 c 0
 58 426 57 406 57 395 c 0
 57 393 57 391 57 390 c 2
 58 385 l 1
 64 390 l 2
 75 400 90 405 104 405 c 0
 119 405 132 400 142 389 c 0
 152 379 158 364 158 350 c 0
 158 336 152 322 142 312 c 0
 136 305 126 300 117 298 c 0
EndSplineSet
Validated: 1
EndChar

StartChar: arrowright
Encoding: 258 8594 123
Width: 0
Flags: HW
HStem: 236 41<-80 490>
VStem: 367 41<29 91 420 483>
LayerCount: 2
Fore
SplineSet
603 256 m 1
 504 218 428 138 408 29 c 1
 387 29 l 2
 370 29 367 29 367 31 c 0
 367 31 383 140 480 226 c 2
 490 236 l 1
 207 236 l 2
 25 236 -41 235 -65 235 c 0
 -77 235 -79 235 -80 236 c 1
 -89 240 -91 252 -91 256 c 0
 -91 263 -87 271 -80 274 c 1
 -77 276 -66 276 207 276 c 2
 490 276 l 1
 480 286 l 2
 384 370 367 478 367 481 c 0
 367 483 370 483 387 483 c 2
 408 483 l 1
 428 373 504 293 603 256 c 1
EndSplineSet
Validated: 1
EndChar

StartChar: arrowleft
Encoding: 259 8592 124
Width: 0
Flags: HW
HStem: 236 41<22 592>
VStem: 104 41<29 91 420 483>
LayerCount: 2
Fore
SplineSet
104 29 m 1
 84 138 8 218 -91 256 c 1
 8 293 84 373 104 483 c 1
 125 483 l 2
 142 483 145 483 145 481 c 0
 145 479 129 371 32 286 c 2
 22 276 l 1
 305 276 l 2
 578 276 589 276 592 274 c 1
 599 271 603 263 603 256 c 0
 603 252 601 240 592 236 c 1
 591 235 589 235 577 235 c 0
 553 235 487 236 305 236 c 2
 22 236 l 1
 32 226 l 2
 128 141 145 33 145 31 c 0
 145 29 142 29 125 29 c 2
 104 29 l 1
EndSplineSet
Validated: 1
EndChar
